<?xml version='1.0' encoding='utf-8'?>
<svg xmlns="http://www.w3.org/2000/svg" width="1058px" height="755px" version="1.1" viewBox="3 662 1058 755"> <g fill="#8ab9cb"> <path d="m2.999 661.38c-0.16329 0-0.31989 0.06484-0.43536 0.1803-0.11546 0.11548-0.18033 0.27209-0.18033 0.43534l1e-3 755c4e-7 0.3401 0.27565 0.6157 0.61569 0.6157l1058 1e-3c0.1633 0 0.3198-0.0649 0.4353-0.1804s0.1804-0.272 0.1804-0.4353l-1e-3 -755c0-0.34-0.2756-0.61566-0.6157-0.61566l-1058-9.8e-4z"/> </g> <g> <g fill="#ebf0f3"> <path d="m261.19 1205c-1.3051 13.657 9.4603 25.176 22.845 25.149l163.06-0.3361c-7.1385-15.257-7.17-30.527-0.09409-45.813l-162.04 0.3355c-11.956 0.0244-22.636 8.7638-23.772 20.665z"/> </g> <g fill-opacity=".36863"> <path d="m856.73 1300.1-3.2743 0.6618q-16.808 1.0773-25.483 1.2453-11.816 0.3852-28.059 0.7309-32.488 0.6918-82.689 1.2245-50.548 0.5329-109.07 0.784-29.263 0.1256-60.52 0.1809-14.382 0.0717-98.26 0.0074-32.686-0.0704-62.464-0.2012-71.899-0.3792-82.788-0.5273-50.829-0.4421-90.023-1.125-87.506-1.6522-72.679-3.4336 6.5174-0.8874 32.267-1.6371 12.875-0.3746 30.557-0.7153 6.1214-0.1956 63.297-0.9356 95.021-1.0933 230.5-1.1395 82.465 0.0861 95.923 0.1823 30.078 0.1094 57.626 0.2846 55.098 0.3503 100.08 0.9622 22.491 0.3058 40.175 0.6462 40.001 0.8815 42.232 1.0992 20.942 0.7833 22.652 1.7053z"/> </g> <g fill="#561f1c"> <path d="m721.6 1271-148.72 0.6805-0.09253-20.28c-0.01758-3.7342 2.9961-6.7736 6.7285-6.7914l135.2-0.618c3.7336-0.0174 6.7743 2.9953 6.7909 6.7282l0.09277 20.28z"/> </g> <g fill="#5a4939"> <path d="m735.22 1291.2-175.76 0.8037-0.062-13.52c-0.03383-7.4671 5.9908-13.549 13.459-13.583l148.72-0.6787c7.4676-0.0346 13.548 5.9889 13.582 13.457l0.06187 13.52z"/> </g> <g fill="#fcb826"> <path d="m735.25 1297.9-175.76 0.8036c-3.7335 0.016-6.7733-2.9975-6.7902-6.7303v8e-4c-0.01756-3.7341 2.996-6.7737 6.7284-6.7915l175.76-0.8025c3.7334-0.0169 6.7732 2.995 6.7903 6.7277v0.0011c0.0176 3.7333-2.9955 6.7737-6.7281 6.7911z"/> </g> <g fill="#561f1c"> <path d="m703.83 947.02-47.34-26.756q43.543-77.047 87.087-154.1 23.67 13.377 47.34 26.755-43.544 77.048-87.088 154.1z"/> <path d="m774.82 866.67-18.632 32.904c-1.7154 3.0285-5.5617 4.094-8.5895 2.3788l-21.936-12.422 24.843-43.873 21.935 12.422c3.0282 1.7151 4.0935 5.5603 2.3788 8.5892z"/> </g> <g fill="#ec9a5e"> <path d="m733.53 901.22 6e-4 -0.00137c-1.7164 3.03-5.5616 4.0951-8.5898 2.3803l-43.873-24.844c-3.0288-1.7152-4.0935-5.5608-2.3786-8.5895l6.4e-4 -3.6e-4c1.7146-3.0285 5.5606-4.0932 8.5886-2.3781l43.873 24.844c3.0287 1.7155 4.0937 5.5613 2.3783 8.5894z"/> <path d="m764.58 846.38 7.4e-4 -4.9e-4c-1.7163 3.029-5.5623 4.0941-8.5903 2.3785l-43.873-24.843c-3.0289-1.7149-4.0939-5.5606-2.378-8.589l6.1e-4 0.00205c1.714-3.0315 5.5597-4.0958 8.5884-2.3812l43.872 24.843c3.0299 1.7163 4.0945 5.5613 2.3789 8.5905z"/> </g> <g fill="#561f1c"> <path d="m719.65 951.31 0.0011-4.6e-4c-3.4306 6.0567-11.122 8.1867-17.179 4.7575l-54.841-31.055c-6.0567-3.4292-8.1867-11.121-4.7574-17.179l7e-4 0.00186c3.4291-6.0587 11.121-8.1888 17.179-4.7594l54.84 31.055c6.0565 3.43 8.187 11.121 4.757 17.179z"/> <path d="m800.39 808.72 0.0012-6e-4c-3.4315 6.0565-11.123 8.1876-17.18 4.7568l-54.841-31.055c-6.0569-3.4287-8.1863-11.12-4.757-17.178l3.6e-4 -2.6e-4c3.4297-6.058 11.121-8.1877 17.179-4.7586l54.841 31.056c6.0575 3.4309 8.1875 11.122 4.7571 17.18z"/> </g> <g fill="#5a4939"> <path d="m718 928.65 6.1e-4 2e-3c-1.7158 3.0268-5.5616 4.092-8.59 2.3767l-43.873-24.844c-3.0285-1.715-4.0937-5.5612-2.3788-8.5894l8.5e-4 6.3e-4c1.7141-3.0284 5.5608-4.0948 8.5884-2.3789l43.874 24.843c3.0286 1.7153 4.0934 5.561 2.3783 8.5903z"/> <path d="m780.11 818.96 2.5e-4 0.00207c-1.7158 3.0275-5.5619 4.0914-8.5902 2.3765l-43.873-24.844c-3.0287-1.7141-4.0941-5.5607-2.3789-8.5895l8.7e-4 0.00207c1.7145-3.0303 5.5598-4.095 8.5886-2.3808l43.873 24.844c3.028 1.7152 4.093 5.5614 2.3789 8.5901z"/> </g> <g fill="#ec9a5e"> <path d="m805.58 936.31 57.187 5.8653 57.187 5.8659-114.37-11.731z"/> </g> <g fill="#561f1c"> <path d="m939.27 1003.2c4.3231 2.4488 9.4274 3.3221 14.25 2.1261 6.234-1.5479 11.201-6.0371 13.382-12.282 0.86197-2.4671 1.1802-5.1079 0.93077-7.7091-0.6118-6.3678-4.1474-11.766-9.5342-14.814l-188.96-107-18.632 32.903 188.56 106.78z"/> </g> <g fill="#b46135"> <path d="m429.27 1292.9c13.385-0.0276 24.103-11.592 22.742-25.243-1.1857-11.896-11.901-20.592-23.857-20.568l-162.86 0.3365c-2.3768 4e-3 -4.3074-1.9178-4.3126-4.2953l1.5e-4 9e-4c-0.00472-2.3775 1.9179-4.3079 4.2947-4.3129l162.56-0.3341c17.256-0.0359 32.33 13.23 32.883 30.477 0.57228 17.846-13.706 32.512-31.432 32.548l-163.88 0.3379c-2.3769 0.0045-4.3074-1.918-4.3124-4.2943v-0.0034c-0.00484-2.376 1.9177-4.3068 4.2946-4.3116l163.88-0.3373z"/> </g> <g fill="#ebf0f3"> <path d="m452.02 1267.7c1.3615 13.651-9.3567 25.215-22.742 25.243l-163.06 0.3368c7.0757-15.286 7.0442-30.556-0.09448-45.812l162.04-0.3339c11.957-0.0241 22.672 8.6703 23.857 20.567z"/> </g> <g fill="#e1e6e9"> <path d="m437.93 1257.5-168.09 0.3466c-0.15445-0.606-0.35547-1.2103-0.53193-1.8148l168.62-0.3464 0.00366 1.8146z"/> <path d="m437.95 1264.2-166.81 0.3439c-0.07315-0.6061-0.22658-1.2114-0.32114-1.8152l167.12-0.3446 0.00412 1.8159z"/> <path d="m437.96 1270.9-166.52 0.3436c0.01038-0.6058 0.00931-1.2108-0.00378-1.8157l166.52-0.3421 0.00378 1.8142z"/> <path d="m437.98 1277.6-167.12 0.3438c0.09175-0.6055 0.24298-1.2113 0.3136-1.8156l166.8-0.3436 0.00378 1.8154z"/> <path d="m437.99 1284.3-168.62 0.3477c0.17433-0.6072 0.37248-1.2126 0.52452-1.8173l168.09-0.3454 0.0037 1.815z"/> </g> <g fill="#561f1c"> <path d="m390.89 1165.6-69.639 0.3185-0.04343-9.4965c-0.00817-1.7486 1.403-3.1718 3.1508-3.18l63.308-0.2896c1.7483-0.0077 3.1721 1.4031 3.18 3.1507l0.04339 9.4969z"/> </g> <g fill="#5a4939"> <path d="m397.26 1175-82.302 0.3762-0.0289-6.3309c-0.01599-3.4961 2.8052-6.3438 6.3022-6.3605l69.639-0.3171c3.4969-0.0171 6.3441 2.804 6.36 6.3013l0.02908 6.331z"/> </g> <g fill="#fcb826"> <path d="m397.28 1178.2-82.302 0.3761c-1.748 0.0075-3.1717-1.4036-3.1796-3.1516v3e-4c-0.00798-1.7487 1.4029-3.1719 3.1508-3.1798l82.301-0.3756c1.7483-8e-3 3.1716 1.4019 3.1797 3.1495v6e-4c0.00814 1.748-1.4029 3.1726-3.1507 3.1805z"/> </g> <g fill="#561f1c"> <path d="m348.1 1012.6 14.942 0.00283q-3e-5 71.214-3e-5 142.43-7.4708 2e-4 -14.941 8e-4 -1.5e-4 -71.218-1.3e-4 -142.43z"/> <path d="m258.31 1000.2 97.262 6e-4 97.262 0.0011q0 4.3971 0 8.7951-97.262 2.4e-4 -194.52 7.4e-4 0-4.3993 0-8.7975z"/> </g> <g fill="#637079"> <path d="m449.81 1008.6v0.00135-1e-3c0.01292 0.23073-0.01812 0.46157-0.09134 0.6809v0.00125l-23.973 71.919c-0.3204 0.9611-1.3593 1.4811-2.3205 1.1609-0.96103-0.3211-1.4805-1.3598-1.16-2.3211v0.0011l23.974-71.921-0.09156 0.68105v-3.5e-4c-0.05572-1.0114 0.71912-1.8768 1.7308-1.9325 1.0115-0.05556 1.8768 0.7191 1.9326 1.7304z"/> <path d="m449.81 1008.6v0.00135-1e-3c0.00192 0.0331 0.00287 0.0674 0.00287 0.1012v0.00124l5e-5 71.919c0 1.0131-0.82137 1.8347-1.8345 1.8339-1.0131 0-1.8343-0.8208-1.8343-1.8339v0.0013l-9e-5 -71.921 0.00265 0.10085v-3.5e-4c-0.05572-1.0114 0.71912-1.8768 1.7308-1.9325 1.0115-0.05556 1.8768 0.7191 1.9326 1.7304z"/> <path d="m449.81 1008.6v0.00135-1e-3l-0.09134-0.479 23.974 71.92c0.32038 0.9608-0.19915 1.9995-1.1602 2.3206-0.96112 0.3202-2.0002-0.1998-2.3204-1.1607v0.0011l-23.973-71.922c-0.05161-0.1549-0.08224-0.3155-0.09156-0.47885v0.00122-0.00157c-0.05572-1.0114 0.71912-1.8768 1.7308-1.9325 1.0115-0.05556 1.8768 0.7191 1.9326 1.7304z"/> </g> <g fill="#fcb826"> <path d="m491.27 1081.8-86.576 3e-4q4.0219 15.061 17.022 25.192 12.55 8.4695 26.427 8.3658 15.411 0.0176 27.388-9.4978 11.42-8.4688 15.739-24.06z"/> </g> <g fill="#561f1c"> <path d="m382.58 1016-0.24649 3.6656q-1.7532 11.077-10.26 17.719-8.5653 6.6356-20.172 5.3815-11.077-1.753-17.719-10.26-2.128-2.7493-3.5056-5.9918l-1.1579-3.3334q-0.9542-3.4406-0.96494-7.1812 0.28949-11.479 7.9118-19.101 7.6221-7.6221 19.101-7.9124 11.479 0.2903 19.101 7.9125 7.6222 7.6219 7.9119 19.101z"/> </g> <g fill="#637079"> <path d="m264.1 1007.2v0.00147-6e-4c0.01275 0.2306-0.0184 0.46166-0.09135 0.681v0.00124l-23.974 71.919c-0.32037 0.9613-1.3593 1.4811-2.3204 1.1606-0.96109-0.3208-1.4804-1.3591-1.1602-2.3205v0.0013l23.974-71.922-0.0914 0.6808v-4e-4c-0.05593-1.0116 0.71888-1.8767 1.7305-1.9324 1.0117-0.05615 1.877 0.71925 1.9327 1.73z"/> <path d="m264.1 1007.2v0.00147-6e-4c0.00185 0.03344 0.00274 0.0675 0.00274 0.1007v0.00134l-6e-5 71.919c0 1.0131-0.8212 1.8342-1.8344 1.8342-1.0131 0-1.8344-0.8211-1.8344-1.8342v0.0015l2e-5 -71.922 0.00286 0.1007v-4e-4c-0.05593-1.0116 0.71888-1.8767 1.7305-1.9324 1.0117-0.05615 1.877 0.71925 1.9327 1.73z"/> <path d="m264.1 1007.2v0.00147-6e-4l-0.09135-0.4789 23.974 71.92c0.3203 0.9614-0.19904 1.9997-1.1602 2.3205-0.96102 0.3205-2-0.1993-2.3204-1.1604v0.0014l-23.974-71.922c-0.05154-0.1549-0.08224-0.31591-0.09119-0.47936v0.00134-0.00174c-0.05593-1.0116 0.71888-1.8767 1.7305-1.9324 1.0117-0.05615 1.877 0.71925 1.9327 1.73z"/> </g> <g fill="#fcb826"> <path d="m305.56 1080.4-86.576 5e-4q4.0219 15.061 17.022 25.192 12.55 8.4698 26.427 8.3657 15.411 0.0172 27.388-9.4973 11.42-8.4697 15.738-24.061z"/> </g> <g fill="#561f1c"> <path d="m348.87 1041.9-1.0203 2.8702q-2.0665 5.6843-3.8255 12.043-1.7588 6.3588-2.8002 14.29-0.50788 3.9929-0.75955 8.5478l-0.17478 4.7237-0.02532 5.051q0.05157 5.2197 0.3594 11 1.0772 20.234 5.8452 58.768l6.7998 1.7938-4.3987-119.09z"/> <path d="m361.95 1041.9 1.0206 2.8705q2.0665 5.684 3.8253 12.043 1.759 6.3588 2.8006 14.29 0.50791 3.9929 0.7594 8.5478l0.17496 4.7238 0.0253 5.051q-0.05149 5.2197-0.35929 11-1.0775 20.234-5.8454 58.768l-6.7999 1.7938 4.3984-119.09z"/> <path d="m346.56 983.82v0.00124-0.00124 0.00124-0.00124 0.00124-0.00124z"/> </g> <g fill="#535d66"> <path d="m284.03 1230.1c-13.385 0.0282-24.15-11.491-22.846-25.148 1.1367-11.901 11.817-20.641 23.772-20.666l162.86-0.3353c2.377-0.0061 4.2994-1.9368 4.2946-4.3133l1.6e-4 0.0013c-0.00494-2.3777-1.9356-4.2998-4.3124-4.2948l-162.56 0.3352c-17.256 0.0361-32.275 13.364-32.757 30.613-0.49875 17.849 13.84 32.455 31.565 32.418l163.88-0.3381c2.3769-0.0045 4.2995-1.9352 4.2946-4.312v-0.0027c-0.00497-2.3762-1.9353-4.2985-4.3123-4.2944l-163.88 0.3388z"/> </g> <g fill="#e1e6e9"> <path d="m275.23 1194.8 168.09-0.3464c0.15173-0.6063 0.35056-1.2116 0.5242-1.8171l-168.62 0.3489 0.00378 1.8146z"/> <path d="m275.24 1201.4 166.81-0.3439c0.0705-0.606 0.22196-1.2121 0.31363-1.8166l-167.12 0.3457 0.00379 1.8148z"/> <path d="m275.25 1208.1 166.52-0.3428c-0.01288-0.6058-0.01422-1.2112-0.00373-1.8165l-166.52 0.3447 0.00362 1.8146z"/> <path d="m275.27 1214.8 167.12-0.3451c-0.09421-0.6056-0.24786-1.2114-0.32107-1.8157l-166.81 0.3457 0.00363 1.8151z"/> <path d="m275.28 1221.5 168.62-0.3485c-0.17669-0.6052-0.3775-1.2103-0.53177-1.8146l-168.09 0.3481 0.00386 1.815z"/> </g> <g fill="#561f1c"> <path d="m366.14 1213.4v6e-4l-1.5e-4 1e-3 1.5e-4 -0.0016z"/> </g> <g fill="#5a4939"> <path d="m375.68 1016-0.18359 2.729q-0.5802 3.6652-2.1533 6.678l-0.84861 1.4657q-0.91083 1.4251-2.0697 2.6865-1.1591 1.2617-2.5664 2.3605-2.8339 2.1959-6.1152 3.2314-1.6406 0.5173-3.3932 0.7452-0.80627 0.2951-5.509 0.0301-1.8326-0.2898-3.5021-0.8279-4.0311-1.5632-4.6417-2.1738-2.8498-1.8213-5.0473-4.6358-4.9061-6.8089-4.0748-14.152 0.36543-3.6563 1.809-6.7454 0.72196-1.5445 1.7134-2.9474 0.34323-0.80564 3.5488-3.8572 5.3277-4.5049 12.924-4.6969 3.798 0.09604 7.029 1.2701 1.6155 0.5873 3.089 1.4437 0.82554 0.2598 4.1021 3.1767 2.9166 3.2763 3.1764 4.102 0.85673 1.4738 1.4437 3.0892 1.1742 3.2306 1.27 7.0284z"/> </g> <g fill="#fff" fill-opacity=".1098"> <path d="m442.24 1098.8-0.09027 1.3402q-0.28485 1.8002-1.0574 3.28-0.38628 0.74-0.89458 1.3998-1.3774 1.5794-1.7991 1.7989-1.3918 1.0783-3.0035 1.5871-0.8058 0.2543-1.6665 0.3659-0.39593 0.145-2.7057 0.0149-1.8-0.2849-3.2799-1.0574-0.7399-0.3863-1.3997-0.8946-1.5793-1.3772-1.7991-1.7991-2.4096-3.3443-2.0014-6.9509 0.17951-1.7957 0.88861-3.3126 0.3544-0.7589 0.84135-1.4477 0.1685-0.3956 1.743-1.8946 2.6166-2.2123 6.3473-2.3067 1.8654 0.0474 3.4522 0.6239 1.9226 0.8366 2.2236 1.1629 0.689 0.4867 1.3084 1.1064 0.61933 0.619 1.1061 1.3081 1.1015 1.783 1.1629 2.2233 0.57669 1.587 0.62378 3.4522z"/> <path d="m253.54 1096.1-0.09012 1.3402q-0.64761 4.003-3.6456 6.4128-3.1992 2.5006-7.4814 2.0336-3.7297-0.5315-6.3138-3.5166-2.3891-3.3244-2.2222-6.387 0.13772-4.1205 2.8986-6.8414 2.8637-2.8607 6.9776-2.9184 1.48-0.0188 3.4522 0.6237 1.7723 0.7892 2.0096 0.9929 0.86395 0.6198 1.5222 1.2766 1.1172 0.9812 2.1905 3.2696 0.6221 1.598 0.70233 3.714z"/> </g> <g fill="#fbfcfb"> <path d="m657.22 1007.3c-2.1022 2.9455-3.6357 6.1767-4.6022 9.6976-0.53086 0.1495-1.0782 0.20556-1.6435 0.16454-0.5689-0.16124-1.1722-0.21557-1.8083-0.16454v-1.1504c0.02796-0.7726 0.11026-1.5386 0.24656-2.3015 0.4965-1.3853 1.0175-2.7544 1.5617-4.1093 0.69675-1.009 1.3543-2.0494 1.9723-3.1228 1.4021 0.43237 2.8253 0.76123 4.2734 0.98633z"/> </g> <g fill="#f9bb8d"> <path d="m642.59 1009.3c0.29248 0.1813 0.62134 0.31753 0.98608 0.41104 1.7274 0.1366 3.4256 0.10866 5.0955-0.08214 0.7726 0.0101 1.54-0.04457 2.3013-0.16456-0.5442 1.3549-1.0652 2.724-1.5617 4.1093-0.1363 0.7629-0.2186 1.5289-0.24656 2.3015h-0.1643c-2.5625 0.5701-5.0281 1.4198-7.3965 2.5476-2.8782 1.8356-5.6164 3.8626-8.2184 6.0817-0.30727 0.1163-0.55397 0.0346-0.73962-0.2467-0.69045-0.74795-0.90895-1.6239-0.65745-2.6299 0.9138-1.113 1.7093-2.3192 2.3834-3.616-1.8608-0.13633-3.723-0.2186-5.5886-0.2467-2.666-0.74766-4.0369-2.5016-4.1092-5.2598 0.47996-4.8422 3.11-6.8146 7.8894-5.9171 2.699 0.56566 5.3288 1.3313 7.8896 2.3009 0.69384 0.23866 1.4071 0.37486 2.137 0.41086z"/> </g> <g fill="#0c4d5a"> <path d="m661.49 1007.3c-0.97146 0.00501-1.9313-0.10522-2.8764-0.32861-0.36485 0.02455-0.7201 0.08035-1.0683 0.16445 0.01804-0.10195 0.07214-0.184 0.16444-0.2467 1.3231-0.19546 2.5837-0.059 3.7803 0.41086z"/> </g> <g fill="#010000"> <path d="m661.49 1007.3c1.5549 0.11328 3.0901 0.33204 4.6023 0.65747 1.9262 0.52257 3.8987 0.90552 5.9172 1.1505 0.87597 0.21836 1.7539 0.43896 2.6299 0.65736 1.5926 0.4686 3.1821 1.0161 4.7667 1.6439 1.3345 0.7494 2.0461 1.9003 2.1367 3.4516-0.0527 1.0174 0.0015 2.0036 0.1643 2.9585-0.39634 1.9892-1.0536 3.8513-1.9723 5.5886-0.52429 0.7199-0.96193 1.4857-1.3151 2.3009-0.72337 0.9171-1.3528 1.9037-1.8903 2.9587-1.0685 1.039-1.9724 2.1892-2.7122 3.4517-0.57019 0.3518-0.95495 0.8447-1.1505 1.4792-0.9419 0.7214-1.7077 1.5994-2.3011 2.6298-0.1643-0.0143-0.3008 0.0411-0.4109 0.1648-0.5161 0.6767-1.0371 1.3343-1.5615 1.972-0.1265 0.1959-0.2909 0.3601-0.49306 0.4929-0.81534 0.6497-1.4726 1.4169-1.9724 2.3017-0.1644 0.0539-0.2744 0.1643-0.3287 0.3285-0.5917 0.3175-1.0848 0.7562-1.4793 1.3149-0.81204 0.7298-1.6059 1.4958-2.3833 2.3012-0.31567 0.677-0.25974 1.3347 0.16446 1.9724 1.073 1.852 2.1136 3.7163 3.1228 5.5885 1.1047 2.375 2.2551 4.7303 3.4518 7.0677 0.17935 0.3042 0.39955 0.5788 0.65745 0.8218 0.3683 1.098 0.91555 2.0844 1.6438 2.9585 0.60647 1.7048 1.4282 3.2938 2.4655 4.7667 0.16416 0.493 0.3286 0.9861 0.493 1.4793 1.6963 2.9533 3.3942 5.9121 5.0952 8.8757 3.3154 3.302 6.3562 6.8094 9.1226 10.519-0.0889 0.0095-0.1449 0.0637-0.16456 0.1644 0.47996 0.7824 1.1111 1.4397 1.8903 1.9724 0.08045 0.2118 0.1084 0.4319 0.08215 0.6575 0.1941-0.0361 0.35855 0.0177 0.49305 0.1644 0.2236 0.4501 0.5261 0.8333 0.90405 1.1503 0.07895-0.156 0.10695-0.3202 0.08225-0.4929 0.309 0.5604 0.6658 1.1078 1.0684 1.6434 0.08214 0.3322 0.1643 0.6612 0.24644 0.9867-0.14294 0.3399-0.33534 0.6688-0.57534 0.9857-1.4052 1.3399-2.8023 2.6546-4.1913 3.9452-1.4349 1.4628-2.942 2.8319-4.52 4.1088-0.0278 0.1644-0.0542 0.3292-0.0821 0.4934 0.29245 0.5686 0.45676 1.1718 0.493 1.8079v0.8221c-0.20214 0.1066-0.31066 0.299-0.3286 0.5753 0.18384 0.8097 0.29394 1.6321 0.32873 2.4652-0.09543 1.0995-0.09543 2.168 0 3.2054 0.02127 0.7198-0.03466 1.4314-0.16443 2.1363-0.2169-0.238-0.35485-0.1838-0.411 0.1647-0.2234 1.3098-0.4158 2.6245-0.5752 3.9446-0.3927 1.3397-0.77576 2.6808-1.1504 4.0269 0.0244 0.2073 0.07874 0.3977 0.1643 0.5754 0.01137 0.7368-0.09703 1.4481-0.3287 2.137-0.63283 2.0365-1.3184 4.0647-2.0547 6.0815-0.31727 1.6632-0.8645 3.2508-1.6436 4.7664-0.8169 2.1188-1.5565 4.2552-2.219 6.4104-0.16444-0.0051-0.27284 0.0771-0.32874 0.2466-0.6527 1.6586-1.2556 3.33-1.808 5.0136-0.13804 0.0555-0.19236 0.1658-0.1643 0.3281-0.21214 0.0924-0.3485 0.2567-0.4109 0.4932-0.2893 0.5771-0.48166 1.1803-0.5753 1.8082-0.3978 0.4665-0.61644 1.0142-0.65746 1.6437-1.185 2.342-2.2814 4.7534-3.2877 7.232 0.41274 1.4707 0.906 2.8958 1.4796 4.2732-0.15614 0.4916-0.01964 0.929 0.41086 1.3153 0.37136 1.4364 0.9467 2.7513 1.7256 3.9446 0.2615 0.1398 0.45375 0.3582 0.5756 0.6574 0.2037 0.868 0.53244 1.6897 0.98606 2.4655 0.08054 0.2681 0.10854 0.5426 0.08214 0.8219 0.08717 0.6098 0.2235 1.213 0.41114 1.8079 0.60633 1.7262 1.2638 3.4241 1.9724 5.0957 0.08215 0.3236 0.10855 0.6528 0.08215 0.9863h0.49305c0.10999 0 0.16445 0.0542 0.16445 0.1642-0.0691 0.1251-0.125 0.2633-0.16445 0.4111 0.25645 0.7231 0.44705 1.4631 0.57532 2.219 0.36987 0.5474 0.61633 1.1505 0.73973 1.8079 0.20216 0.1384 0.36647 0.3026 0.49293 0.4932 0.42407 1.1931 0.80887 2.398 1.1506 3.6158-0.14453-0.0212-0.25307 0.0332-0.32887 0.1646 0.0889 0.7266 0.3091 1.4119 0.6575 2.0548 0.656 3.3841 1.149 6.7796 1.4794 10.19 0.01135 0.4504-0.04285 0.917-0.16455 1.3971 0.2466 0.4324 0.35693 0.3779 0.32886-0.1644 0.21694 0.0282 0.4093-0.0264 0.57534-0.1642 0.12314 0.5223 0.36985 0.9615 0.7395 1.3147 0.697 1.3198 1.2986 2.6891 1.8081 4.1096v0.3286 0.3285c-0.0098 0.089-0.064 0.1448-0.1643 0.1647-0.2859-0.4686-0.5868-0.5229-0.9041-0.1647-4.2734-0.11-8.547-0.219-12.821-0.3285-0.11011 0.1231-0.24657 0.1788-0.41087 0.1643 0.00645-0.8153 0.19883-1.5815 0.5753-2.3011 0.30065-0.1924 0.54724-0.4392 0.7396-0.7398-0.25486-0.5458-0.52757-1.0929-0.8219-1.6437 0.21206-0.5838 0.10366-0.6658-0.32884-0.2463-0.25966-0.3143-0.53406-0.5888-0.82166-0.8221-0.1644-0.3798-0.3829-0.7084-0.65746-0.9861-1.9032-2.6559-3.7655-5.3404-5.5884-8.0539-1.2771-2.1733-2.5921-4.3099-3.9447-6.4104-0.86146-1.9084-1.8213-3.7705-2.8764-5.5882-0.0825-0.3319-0.16454-0.6611-0.24694-0.9863-0.10326-1.0736-0.43212-2.0594-0.9862-2.9589 0.08714-0.1134 0.19568-0.1958 0.32884-0.2466-0.2728-0.3008-0.60155-0.5191-0.98607-0.6576 0.07557-0.0675 0.12977-0.1495 0.16417-0.2463-2.0957-5.8237-3.6028-11.795-4.52-17.916-0.08057 0.2118-0.1085 0.4324-0.08203 0.6573-0.16297-0.7346-0.21692-1.502-0.16431-2.301 0.10181-0.0178 0.18394-0.0723 0.24644-0.1645 0.04116-2.7135-0.041-5.3975-0.24644-8.0536v-0.1647c0.14148-0.9662 0.30579-1.9525 0.49329-2.9585-0.00355-0.202-0.05765-0.3665-0.16445-0.4932v-0.3287c0.1642 0.0054 0.2726-0.0773 0.3285-0.2466 0.32703-1.3214 0.49146-2.6622 0.4932-4.0266 0.5162-0.0957 0.76267-0.4244 0.7396-0.9867 0.0394-0.9743 0.1759-1.9343 0.4109-2.8763 0.46666-0.9909 0.7955-2.0314 0.98607-3.1229-0.02967-0.227-0.13977-0.3633-0.32861-0.4108 0.13804-0.3091 0.19224-0.6378 0.16444-0.9865h0.16417c-0.0426 0.2434 0.01147 0.4622 0.16433 0.6578 0.6296-1.5563 1.1768-3.1459 1.6436-4.7668-0.05405-0.1644-0.11011-0.3283-0.1643-0.4931-0.1001 0.0196-0.15455 0.0758-0.16445 0.1648-0.25645 0.0029-0.5029 0.0571-0.7396 0.1639-1.1324 0.8005-2.3093 1.5403-3.5338 2.2192-0.8068 0.7215-1.6289 1.407-2.4655 2.0542-0.5194 0.2323-1.0126 0.5065-1.4792 0.8224-0.91225 0.4207-1.7342 0.968-2.4656 1.6432-1.3429 1.2327-2.8221 2.2733-4.4377 3.1231-0.62146 0.3635-1.1688 0.8005-1.6438 1.3149-0.66896 0.2501-1.2163 0.6609-1.6437 1.2327-0.521 0.2334-1.0141 0.5064-1.4794 0.8219-0.70336 0.6789-1.415 1.3083-2.1368 1.8902-0.54715 0.3304-1.0402 0.7149-1.4792 1.1504-1.0338 0.6034-1.9114 1.3974-2.6297 2.3834-0.2615 0.1414-0.5342 0.2514-0.8218 0.3288-0.7528 0.7248-1.4662 1.4646-2.1368 2.2187-0.36807 0.1466-0.6969 0.3654-0.98621 0.6576-0.65746 0.7677-1.369 1.4795-2.1366 2.1369-0.21716 1.1768-0.21716 2.3273 0 3.4519 0 1.5332 0 3.0688-1.2e-4 4.6023-0.10704 1.0006-0.16114 2.0146-0.16444 3.0402 0.19386 2.929 0.33204 5.8599 0.41066 8.794 0.17934 0.677 0.31564 1.3607 0.41114 2.0547-0.1709 1.229-0.19886 2.4621-0.08216 3.6982 0.19396 1.8013 0.30406 3.6095 0.32876 5.4243 0.20065 0.4044 0.30893 0.8432 0.3288 1.3148 0.0542 1.8622 0.11 3.7261 0.16434 5.5883 0.05906 1.2494 0.25146 2.4558 0.57546 3.6161v1.6438c0.0294 0.733 0.1378 1.3365 0.32847 1.8082 0.16123 0.5686 0.21533 1.1718 0.16433 1.8079-0.115 1.0666-0.11526 2.1611-1.5e-4 3.2872-0.02295 0.6773-0.13305 1.3346-0.32861 1.9721 0.41916 1.4744 0.802 2.9537 1.1507 4.4379-0.10196-0.018-0.18423-0.0722-0.2466-0.1639-5.8843 0.1113-11.775 0.2201-17.669 0.3285 0.0542-0.11 0.1101-0.219 0.16444-0.3285 1.3033-0.4047 2.564-0.952 3.7804-1.6439 0.3237-0.2665 0.54234-0.5952 0.65745-0.9861 0.23499-0.2104 0.34495-0.485 0.32861-0.8219h-1.4794c-0.03113-0.8779-0.08533-1.7555-0.1643-2.63 0.21544-0.3683 0.32555-0.807 0.3287-1.3151-0.23655-2.3452-0.40073-4.7008-0.4929-7.0675-0.1642 1.1997-0.2186 2.4066-0.1642 3.6161-0.13487-1.7276-0.2434-3.4795-0.32884-5.2597 0.20534-0.1364 0.31384-0.3566 0.32884-0.6575-0.3502-2.646-0.57054-5.3024-0.65745-7.9717-0.01175-0.3271-0.12185-0.5735-0.32885-0.7397v-0.6571c0.2153-0.3405 0.3253-0.7515 0.32885-1.233-0.20385-2.995-0.47865-5.9815-0.82215-8.9581 0.15467-1.3264 0.20874-2.6415 0.16443-3.9451-0.25647-1.9674-0.53088-3.8856-0.82177-5.753-0.16102-0.5126-0.21536-1.0615-0.16446-1.6434 0.2056-0.1366 0.314-0.3566 0.3289-0.6571-0.0889-0.712-0.17104-1.4238-0.2466-2.137-0.01636-0.3534-0.1528-0.6278-0.4109-0.8218v-0.4929c0.10194 0.0183 0.1841 0.0723 0.2465 0.1639 0.0279-0.5205 0.0543-1.04 0.08225-1.5614-0.47485-4.2846-0.69348-8.5865-0.65759-12.903 1.4465-2.0839 2.8698-4.1667 4.2735-6.2457 0.51625-0.753 1.1474-1.4101 1.8904-1.9726 1.0896-1.5513 2.13-3.141 3.1228-4.7664 0.166-0.1382 0.3583-0.1924 0.5753-0.1645 0.19887-0.5113 0.4456-1.0042 0.73964-1.4793 0.19236-0.2285 0.43896-0.3663 0.73962-0.411-0.2102-0.8219 0.06424-1.4513 0.8219-1.89 0.15614-0.2549 0.21204-0.5277 0.16444-0.8219 0.84814-1.4745 1.7784-2.8992 2.7941-4.2738 0.33034-0.2758 0.60498-0.6045 0.82204-0.9857 8.2363-2.4906 15.605-6.8744 22.107-13.15 0.10997-0.2183 0.10997-0.4389 0-0.6577-1.7555-3.5384-3.2086-7.2104-4.3558-11.012-2.1286-0.3699-4.2392-0.8088-6.3282-1.3152 0.04285 0.4671 0.0148 0.9055-0.08203 1.3152-0.66257-1.3264-1.32-2.6417-1.9724-3.9451-0.76426-1.8589-1.6964-3.6126-2.7943-5.2597-0.16259-0.9269-0.54564-1.7488-1.1506-2.4654-0.54235-0.8102-0.95324-1.6865-1.2327-2.6298-0.15624-0.2615-0.34851-0.4815-0.57534-0.6579-0.35166-0.9215-0.7888-1.7978-1.3148-2.6295-0.5769-1.3182-1.2905-2.5773-2.1368-3.7804-0.62622-1.6929-1.5039-3.2281-2.63-4.6024-0.40586-0.1858-0.84316-0.2136-1.3147-0.0819-1.1195 0.128-2.1599 0.4305-3.1231 0.904-1.5336 0.2742-3.067 0.547-4.6023 0.8218-1.4217 0.202-2.8467 0.3944-4.2735 0.5753-0.59326 0.115-1.1406 0.3072-1.6436 0.575-0.90746 0.0462-1.7833 0.1562-2.6299 0.329-1.79 0.0311-3.5421 0.1958-5.2597 0.4929-3.0703 0.0311-6.1391-0.0244-9.2044-0.1642-1.6996 0.0278-3.3976 0-5.0954-0.0822-0.90075-0.217-1.6946-0.6275-2.3833-1.2326-0.89915-1.3987-1.4464-2.9343-1.6438-4.6024 0.21544-6.8096 0.70849-13.603 1.4793-20.382 0.14627-0.7165 0.3107-1.43 0.49307-2.1364 0.44067-0.9614 1.1802-1.5648 2.219-1.8082v0.6576c2.0825 0.1528 4.1372 0.4818 6.1638 0.9863 1.2771 0.406 2.3453 1.1177 3.2049 2.1364 0.67556 0.291 1.1128 0.7841 1.3151 1.4792-0.44714 2.4739-0.9402 4.9395-1.4792 7.3965 0.5802 1.7424 1.129 3.4946 1.6436 5.26h0.4931c0.8498-0.2184 1.6715-0.5214 2.4654-0.9039 0.2991-0.1215 0.5177-0.3141 0.6576-0.5753 2.6939-1.1722 5.4338-2.2121 8.2182-3.1231 0.30764-0.0596 0.55394-0.2235 0.73964-0.4932 0.1628-0.4057 0.3552-0.7889 0.5753-1.1506 0.0642-0.276 0.14624-0.5505 0.24646-0.8218 1.2064-1.7551 2.4112-3.5074 3.6162-5.2598 1.6468-2.1107 3.4269-4.0826 5.3418-5.917 0.44043 0.2777 0.87927 0.5521 1.315 0.8218 0.33365 0.388 0.6624 0.7709 0.9861 1.1506 0.4275 1.0567 0.89247 2.0986 1.3971 3.1229 0.3223 0.3962 0.62305 0.8072 0.90406 1.233 0.42234 0.3417 0.85964 0.6425 1.3148 0.9037 0.286 0.4503 0.66905 0.779 1.1506 0.9866 0.1776 0.3432 0.45204 0.562 0.8218 0.6571 2.0301 1.8098 4.1125 3.5635 6.2461 5.2596 0.32555 0.2699 0.6543 0.5427 0.9862 0.8219 0.83996 1.0784 1.8262 2.0105 2.9586 2.7946 1.7061 1.7604 3.5144 3.4038 5.4241 4.9306 0.30894 0.5312 0.7462 0.8597 1.3149 0.9861-0.0738-1.1997-0.29233-2.3503-0.65745-3.4511-0.22509-2.2177-0.60815-4.4085-1.1508-6.575-0.0376-1.1033-0.1476-2.1991-0.3285-3.2875-0.1908-1.1981-0.32714-2.4028-0.4111-3.6161-0.0624-0.092-0.14456-0.1462-0.2465-0.1643-0.1644-0.2184-0.3287-0.4389-0.49315-0.6575 0.02785-0.1624-0.02625-0.273-0.16431-0.3288 0.02136-0.2941-0.03274-0.5686-0.16418-0.8218 0.01464-0.4355-0.09546-0.82-0.32886-1.1504-0.0543-0.2188-0.1102-0.4389-0.1644-0.6576 0.0395-0.3942-0.0707-0.723-0.32876-0.986-0.0542-0.11-0.11014-0.2187-0.16444-0.3288-0.0592-0.7266-0.2778-1.3843-0.65746-1.9724-0.24659-0.7084-0.521-1.4202-0.82178-2.1368-0.07066-0.4374-0.23511-0.82-0.49316-1.1505-0.18067-0.1807-0.2909-0.401-0.3286-0.6578-0.1464-0.7128-0.4208-1.3702-0.8217-1.972-0.37815-0.9731-0.8435-1.9053-1.3974-2.7941-0.45677-0.4868-0.97777-0.8716-1.5613-1.1507-0.0773-0.2321-0.2417-0.3405-0.4933-0.329v-0.3285c0.2959-0.4275 0.68066-0.7825 1.1508-1.0684 1.2228-0.5294 2.3735-1.187 3.4515-1.9726 1.5419-0.5731 3.0211-1.2588 4.438-2.0545 0.733-0.1412 1.3906-0.4156 1.9724-0.8217 2.0349-0.6625 4.0072-1.4563 5.9175-2.3835 1.752-0.48291 3.5041-0.95004 5.2595-1.3971 0.9419-0.12465 1.8181-0.39915 2.63-0.82155h0.3286c0.9088-0.15965 1.7866-0.37804 2.6299-0.6576 0.9188-0.0376 1.795-0.2301 2.6298-0.5754 0.54564-0.08205 1.0931-0.1099 1.6438-0.08205 0.02771-0.21665-0.02636-0.40915-0.16446-0.57545-2.7646 0.1399-5.4488-0.21654-8.0539-1.0686-0.6869-0.0322-1.1259-0.3611-1.3148-0.98595h-0.49315c-0.03626-0.35498-0.2006-0.62925-0.4932-0.82165 0.96646-3.5209 2.5-6.7521 4.6022-9.6976 0.16284 0.02794 0.27295-0.02626 0.32886-0.16416 0.34824-0.0841 0.70349-0.1399 1.0683-0.16445 0.9451 0.22339 1.9049 0.33362 2.8764 0.32861z"/> </g> <g fill="#115262"> <path d="m666.1 1007.9c1.379 0.11647 2.7483 0.30897 4.1094 0.57517 0.67215 0.0971 1.2737 0.2892 1.8079 0.57534-2.0186-0.24499-3.991-0.62794-5.9172-1.1505z"/> </g> <g fill="#83a19a"> <path d="m642.59 1009.3c2.0101 0.29764 4.0368 0.40774 6.0815 0.3289-1.6699 0.1908-3.368 0.21874-5.0955 0.08214-0.36474-0.09351-0.6936-0.22974-0.98608-0.41104z"/> </g> <g fill="#0c7287"> <path d="m674.64 1009.8c0.69516-0.05115 1.3526 0.0593 1.9724 0.3291 0.2087-0.0117 0.4011-0.0659 0.5753-0.16456 0.4208 0.50136 0.94007 0.6377 1.5614 0.41076-0.1841 0.04115-0.3485 0.1233-0.49316 0.2467 0.43556 0.21864 0.8186 0.49184 1.1508 0.8219-1.5846-0.6278-3.1741-1.1753-4.7667-1.6439z"/> </g> <g fill="#0c3d49"> <path d="m614.16 1013.2c-1.0421-0.02773-2.0841 0-3.1228 0.08237-0.7118 0.2184-1.4234 0.4109-2.1368 0.57535 0.58853-0.3783 1.246-0.62465 1.9724-0.73985 1.1258-0.1343 2.2206-0.1067 3.2872 0.08213z"/> </g> <g fill="#764b40"> <path d="m615.47 1013.7v0.16445c-0.43885 0.05445-0.87609 0.11025-1.315 0.16445 0.37477-0.283 0.8136-0.3932 1.315-0.3289z"/> </g> <g fill="#faba8d"> <path d="m615.47 1013.9h1.4792c0.1761 0.15295 0.39476 0.20895 0.6577 0.16445 2.5774 1.5581 4.9048 3.4764 6.9856 5.7527 1.5829 1.9659 3.2267 3.8843 4.9309 5.7529 0.49805 0.6673 0.90893 1.3789 1.2328 2.1365 0.26134 0.8514 0.36974 1.7275 0.3286 2.6301-0.0244 0.4831-0.13293 0.9502-0.3286 1.3968 0.0509 0.2403 0.1594 0.4324 0.3286 0.5756v0.3285c0.2516-0.0115 0.416 0.0969 0.4933 0.329-0.0889 0.0097-0.1448 0.0637-0.16444 0.1642 0.78734 1.2905 1.527 2.6053 2.219 3.9448 0.13635 0.6097 0.1084 1.2132-0.08215 1.8078-0.44544 0.6723-0.80225 1.3842-1.0686 2.1368-0.751 0.7829-1.3542 1.6585-1.8077 2.6302-0.37012 0.1906-0.7251 0.4108-1.0686 0.6571-0.87439 0.7892-1.6962 1.6108-2.4654 2.4658-0.6361 0.112-1.1851 0.4128-1.6437 0.9038-1.3509 0.2253-2.3373-0.2679-2.9585-1.4792-0.1562-0.0787-0.32053-0.1068-0.49314-0.0822 0.02624-0.2795-0.00156-0.554-0.08216-0.8219-0.36803 0.3766-0.77917 0.4029-1.2327 0.0825-0.59524-0.5705-1.2524-1.0356-1.9724-1.3972-0.43576-0.2697-0.8746-0.5441-1.315-0.8218-1.9577-1.5287-3.9859-2.9816-6.0816-4.3559-0.88596-0.6916-1.5433-1.5399-1.9724-2.5477-0.01134-0.4618-0.1216-0.9005-0.3286-1.3151 0.1742-0.6555 0.4469-1.2589 0.82165-1.8078 0.85975-0.2448 1.7358-0.4092 2.6299-0.4932 0.04773-0.2942-0.00818-0.567-0.16434-0.8219-0.5703-0.189-1.0633-0.4913-1.4792-0.9037 0.4454-0.1432 0.6655-0.4455 0.65745-0.9039-0.32055 0.044-0.56701-0.0644-0.73965-0.3288-0.1118 0.2102-0.08554 0.4026 0.0822 0.575-0.5984 0.2237-0.9551 0.0311-1.0684-0.575-0.72495-0.4126-0.6427-0.6872 0.2466-0.8221v-0.4929h-0.6576c0.0033 0.4305-0.2153 0.6489-0.6572 0.6573-0.65114-0.2975-1.2543-0.6263-1.8082-0.9862-0.5835-0.2005-1.0767-0.529-1.4794-0.9863-0.1593-0.4518-0.4618-0.7805-0.90394-0.9861-0.06409-1.0963-0.03601-2.1925 0.08227-3.2872 0.39783-0.4667 0.61647-1.0138 0.65723-1.6436 0.33534-0.6705 0.6643-1.3279 0.98634-1.9723 0.5162-0.48169 0.95336-1.029 1.3149-1.6439 0.23184-0.396 0.5603-0.6704 0.98636-0.82164 0.54724-0.33046 1.0403-0.71336 1.4792-1.1505 0.2859-0.23984 0.6145-0.43078 0.9862-0.57554 1.0684-0.27944 2.1086-0.5819 3.1228-0.9038 0.43886-0.0542 0.8761-0.11 1.315-0.16445z"/> </g> <g fill="#f9bb8d"> <path d="m594.6 1040.8c-0.125 0.1464-0.2893 0.2567-0.49326 0.3289-1.9574-0.5636-3.8756-1.1109-5.7527-1.6434 0.74145-2.2224 1.453-4.4691 2.1367-6.7391 0.0889-3.7787 0.0889-7.5592 0-11.341 0.21205-0.0922 0.3484-0.2565 0.411-0.49306 0.0673-0.82534 0.14956-1.6472 0.2466-2.4656 1.0881-3.1707 3.2808-4.3478 6.5746-3.5341 0.8777 0.2334 1.6174 0.70044 2.219 1.3972 0 0.9928-0.11037 1.979-0.3289 2.9586-0.9038 2.4391-1.6435 4.9328-2.2188 7.4787 1.1458 1.029 2.3241 2.0429 3.534 3.0406 0.53234 0.6803 0.69677 1.4481 0.4929 2.3012-1.1505 1.3692-2.411 2.6302-3.7803 3.7802-0.90904 1.7247-1.9231 3.3683-3.0408 4.931z"/> </g> <g fill="#9e7a64"> <path d="m610.05 1015.5c-0.43896 0.43716-0.932 0.82006-1.4792 1.1505 0.34338-0.56216 0.83654-0.94506 1.4792-1.1505z"/> </g> <g fill="#341f27"> <path d="m681.55 1014.9c0.21693 0.42591 0.32545 0.91885 0.3286 1.4794 0 0.5243-0.0559 1.0174-0.1643 1.4792-0.1628-0.95485-0.217-1.941-0.1643-2.9585z"/> </g> <g fill="#0b0506"> <path d="m614.16 1013.2c0.4833 0.07937 0.92213 0.24377 1.315 0.49327-0.50135-0.0643-0.94018 0.0459-1.315 0.3289-1.0142 0.3219-2.0544 0.62436-3.1228 0.9038-0.3717 0.14476-0.7003 0.3357-0.9862 0.57554-0.6427 0.20546-1.1359 0.58836-1.4792 1.1505-0.42606 0.15124-0.75452 0.42564-0.98636 0.82164-0.5935 0.4142-1.0306 0.9634-1.3149 1.6439-0.32204 0.64441-0.651 1.3018-0.98634 1.9723-0.39756 0.4668-0.61609 1.0141-0.65723 1.6436-0.25303 0.3846-0.36328 0.82176-0.32873 1.3152-0.25147 0.3498-0.3618 0.7605-0.32886 1.2324 0.02796 0.3009 0.05432 0.6033 0.08206 0.9038 0.1103 0.1234 0.2468 0.1792 0.4111 0.1647 0.27124 0.3005 0.59986 0.5193 0.9861 0.6572 0.4027 0.4573 0.89586 0.7858 1.4794 0.9863 0.10194 0.2843 0.26634 0.531 0.49304 0.7396 1.5896 1.1785 3.1772 2.3554 4.7666 3.5341-0.6 0.1445-1.203 0.2811-1.808 0.4105-0.2367 0.0628-0.4011 0.1994-0.49315 0.4112-0.91382 0.3472-1.2688 1.0044-1.0682 1.9724 0.2317 0.3536 0.3682 0.7365 0.4108 1.1505-0.44875 0.0395-0.8317-0.0986-1.1505-0.4108-1.5664-1.4022-3.0194-2.9093-4.3557-4.5201-0.06396-0.5097-0.25476-0.9484-0.57532-1.3147-0.31394-0.74-0.5343-1.5056-0.65734-2.3015-0.0575-1.236 0.0245-2.4948 0.2466-3.7802 0.0196-0.36644 0.1561-0.66735 0.41086-0.9038-0.1759-0.1218-0.28601-0.2861-0.32886-0.4934 0.1826-0.2759 0.1826-0.5226 0-0.7394 0.046-0.452 0.15625-0.8912 0.32874-1.315 0.31736-0.88281 0.75636-1.7042 1.3151-2.4654 0.72144-0.9697 1.5433-1.874 2.4655-2.712 0.68064-0.43263 1.338-0.8992 1.9724-1.3974 0.71338-0.16445 1.425-0.35695 2.1368-0.57535 1.0387-0.08237 2.0807-0.1101 3.1228-0.08237z"/> </g> <g fill="#95ccd2"> <path d="m649 1015.8h0.1643v1.1504c0.63611-0.05103 1.2394 0.0033 1.8083 0.16454h-1.9726v-1.3149z"/> </g> <g fill="#8a6650"> <path d="m607.58 1017.5c-0.36154 0.6149-0.7987 1.1622-1.3149 1.6439 0.2843-0.68053 0.7214-1.2297 1.3149-1.6439z"/> </g> <g fill="#d0bf9d"> <path d="m506.74 1129.6c-0.06104 0.5152-0.11287 1.0329-0.15522 1.5523-0.03935 0.149-0.12518 0.2524-0.25865 0.3104 0.04332-0.6543 0.18096-1.2753 0.41387-1.8627z"/> </g> <g fill="#086f81"> <path d="m654.92 1018.8c2.6051 0.85206 5.2893 1.2085 8.0539 1.0686 0.1381 0.1663 0.19217 0.3588 0.16446 0.57545-0.55066-0.02785-1.0982 0-1.6438 0.08205-0.83472 0.3453-1.711 0.5378-2.6298 0.5754 0.4701-0.35667 1.0173-0.5754 1.6436-0.65745-0.03455-0.09705-0.08875-0.17905-0.1643-0.2467-1.2608-0.16405-2.5196-0.32875-3.7806-0.49295-0.6705-0.10837-1.2177-0.41086-1.6435-0.9044z"/> </g> <g fill="#8f6c55"> <path d="m605.28 1021.1c-0.04076 0.6298-0.2594 1.1769-0.65723 1.6436 0.04114-0.62954 0.25967-1.1768 0.65723-1.6436z"/> </g> <g fill="#104e61"> <path d="m658.86 1021.1c-0.84326 0.27956-1.7211 0.49795-2.6299 0.6576 0.8119-0.4044 1.688-0.62315 2.6299-0.6576z"/> </g> <g fill="#103d4b"> <path d="m655.9 1021.8c-0.8119 0.4224-1.6881 0.6969-2.63 0.82155 0.8236-0.39565 1.6996-0.67029 2.63-0.82155z"/> </g> <g fill="#b99077"> <path d="m604.62 1022.7c-0.11828 1.0947-0.14636 2.1909-0.08227 3.2872 0.44214 0.2056 0.74464 0.5343 0.90394 0.9861-0.38624-0.1379-0.71486-0.3567-0.9861-0.6572-0.2417-0.273-0.3518-0.6015-0.32873-0.9862 0.05578-0.4406 0.11013-0.8776 0.16443-1.3147-0.03455-0.49344 0.0757-0.9306 0.32873-1.3152z"/> </g> <g fill="#086674"> <path d="m679.74 1023.4c-0.23843 0.7132-0.51303 1.4265-0.82203 2.1367-0.1349 0.1462-0.2992 0.2002-0.49303 0.1642 0.35313-0.8152 0.79077-1.581 1.3151-2.3009z"/> </g> <g fill="#276375"> <path d="m602.65 1021.8c-0.3533 1.6222-0.5177 3.2656-0.49304 4.9305-0.18106-1.5132-0.12646-3.0488 0.16444-4.602 0.1117-0.12145 0.2218-0.23144 0.3286-0.3285z"/> </g> <g fill="#291117"> <path d="m602.65 1021.8h0.1643c0.1826 0.2168 0.1826 0.4635 0 0.7394 0.04285 0.2073 0.15296 0.3716 0.32886 0.4934-0.25476 0.23645-0.39126 0.53736-0.41086 0.9038-0.2221 1.2854-0.3041 2.5442-0.2466 3.7802-0.0493-0.3122-0.15785-0.5867-0.32874-0.8217v-0.1646c-0.02466-1.6649 0.13974-3.3083 0.49304-4.9305z"/> </g> <g fill="#574136"> <path d="m604.29 1024.1c-0.0543 0.4371-0.10865 0.8741-0.16443 1.3147-0.02307 0.3847 0.08703 0.7132 0.32873 0.9862-0.1643 0.0145-0.3008-0.0413-0.4111-0.1647-0.02774-0.3005-0.0541-0.6029-0.08206-0.9038-0.03294-0.4719 0.07739-0.8826 0.32886-1.2324z"/> </g> <g fill="#134f5d"> <path d="m642.1 1026.4c-0.5818 0.4061-1.2394 0.6805-1.9724 0.8217 0.5819-0.4056 1.2394-0.6806 1.9724-0.8217z"/> </g> <g fill="#1d5061"> <path d="m602.16 1026.8c0.17089 0.235 0.27944 0.5095 0.32874 0.8217 0.12304 0.7959 0.3434 1.5615 0.65734 2.3015-0.6886-0.9042-1.0173-1.9447-0.98608-3.1232z"/> </g> <g fill="#cdc2a3"> <path d="m630.76 1027.7c0.1743 0.1809 0.3108 0.3995 0.4109 0.6577 0.13303 0.6886 0.1069 1.3462-0.0823 1.9724 0.04114-0.9026-0.06726-1.7787-0.3286-2.6301z"/> </g> <g fill="#dda884"> <path d="m606.92 1028c0.55394 0.3599 1.1571 0.6887 1.8082 0.9862 0.4419-0.0084 0.6605-0.2268 0.6572-0.6573h0.6576v0.4929c-0.8893 0.1349-0.97155 0.4095-0.2466 0.8221 0.1133 0.6061 0.47 0.7987 1.0684 0.575-0.16774-0.1724-0.194-0.3648-0.0822-0.575 0.17264 0.2644 0.4191 0.3728 0.73965 0.3288 0.00805 0.4584-0.21205 0.7607-0.65745 0.9039 0.4159 0.4124 0.9089 0.7147 1.4792 0.9037 0.15616 0.2549 0.21207 0.5277 0.16434 0.8219-0.89404 0.084-1.7701 0.2484-2.6299 0.4932 0.09205-0.2118 0.25645-0.3484 0.49315-0.4112 0.605-0.1294 1.208-0.266 1.808-0.4105-1.5894-1.1787-3.177-2.3556-4.7666-3.5341-0.2267-0.2086-0.3911-0.4553-0.49304-0.7396z"/> </g> <g fill="#074c58"> <path d="m673.82 1032.1c-0.32215 0.5404-0.70505 1.0339-1.1505 1.4792 0.19556-0.6345 0.58032-1.1274 1.1505-1.4792z"/> </g> <g fill="#faa77c"> <path d="m631.08 1032.6c0.2811 2.441 0.66406 4.8506 1.1508 7.2322-0.02796 0.2748-0.05432 0.5475-0.08216 0.8219-0.1776 0.1921-0.3157 0.4113-0.411 0.6577-0.7068 0.1904-1.4185 0.2184-2.1368 0.082-3.4188-0.5112-6.8146-0.9762-10.191-1.3971 0.03637-0.5245 0.28284-0.689 0.73974-0.4931 0.8646-0.2087 1.7145-0.4555 2.5478-0.7398 0.70995-0.5193 1.4758-0.9303 2.3012-1.2327 0.401-0.3944 0.8397-0.7496 1.3148-1.0682 0.3041-0.1857 0.6327-0.2681 0.9862-0.2468-0.02463-0.1727 0.0033-0.3372 0.0822-0.4929 1.0534-0.7906 1.8756-1.7771 2.4653-2.9585 0.4817 0.128 0.75624-0.0924 0.82216-0.6576 0.0393 0.2662 0.17578 0.4306 0.41064 0.4929z"/> </g> <g fill="#074b58"> <path d="m672.67 1033.6c-0.70679 0.9268-1.4743 1.8034-2.3011 2.6298 0.5934-1.0304 1.3592-1.9084 2.3011-2.6298z"/> </g> <g fill="#bf9882"> <path d="m609.88 1033.1c-0.37475 0.5489-0.64745 1.1523-0.82165 1.8078 0.207 0.4146 0.31726 0.8533 0.3286 1.3151h-0.1644c-0.0426-0.414-0.1791-0.7969-0.4108-1.1505-0.20055-0.968 0.15443-1.6252 1.0682-1.9724z"/> </g> <g fill="#898886"> <path d="m634.54 1036.9c0.4009 0.6018 0.6753 1.2592 0.8217 1.972-0.44875-0.5699-0.7217-1.2275-0.8217-1.972z"/> </g> <g fill="#066478"> <path d="m670.37 1036.2c-0.4733 0.508-0.7742 1.1109-0.90406 1.8082-0.32534 0.0427-0.68054 0.1527-1.0683 0.3286 0.5244-0.6377 1.0454-1.2953 1.5615-1.972 0.1101-0.1237 0.2466-0.1791 0.4109-0.1648z"/> </g> <g fill="#076271"> <path d="m667.9 1038.8c-0.16604 0.308-0.30249 0.6365-0.41104 0.9864-0.63596 0.3106-1.157 0.748-1.5614 1.3153 0.4998-0.8848 1.1571-1.652 1.9724-2.3017z"/> </g> <g fill="#fafcfb"> <path d="m588.35 1039.5c1.8771 0.5325 3.7953 1.0798 5.7527 1.6434 0.20396-0.0722 0.36826-0.1825 0.49326-0.3289-0.00986 0.4195 0.15454 0.748 0.49314 0.9867-0.4718 1.8338-0.9648 3.6418-1.4795 5.4237-0.85964-1.0187-1.9278-1.7304-3.2049-2.1364-2.0266-0.5045-4.0813-0.8335-6.1638-0.9863v-0.6576c0.18264-2.5376 1.5517-3.8529 4.1091-3.9446z"/> </g> <g fill="#848484"> <path d="m635.69 1039.5c0.25805 0.3305 0.4225 0.7131 0.49316 1.1505-0.38296-0.2762-0.54736-0.6592-0.49316-1.1505z"/> </g> <g fill="#084c5a"> <path d="m665.6 1041.5c-0.3943 0.5587-0.8877 0.9977-1.4793 1.3149 0.39441-0.5587 0.88756-0.9974 1.4793-1.3149z"/> </g> <g fill="#888988"> <path d="m637 1042.8c0.37966 0.5881 0.59826 1.2458 0.65746 1.9724-0.4437-0.5654-0.66235-1.223-0.65746-1.9724z"/> </g> <g fill="#62cae4"> <path d="m634.37 1044.1c-0.00645 0.2071 0.07555 0.3717 0.24659 0.493 0.03286 1.269 0.11511 2.5279 0.24656 3.7806 0.9336 0.4338 1.9198 0.5984 2.9586 0.4932 0.36486-0.0524 0.66726 0.056 0.90406 0.3288 0.07885-0.1561 0.1068-0.3207 0.08214-0.4934 0.13806 0.0558 0.19216 0.1664 0.16431 0.3288 0.37635 1.4512 0.56875 2.9307 0.57545 4.4379 0.32384 1.0998 0.6262 2.1962 0.9038 3.2875 0.5426 2.1665 0.92566 4.3573 1.1508 6.575 0.15115 1.0402 0.23355 2.0803 0.24659 3.1229-0.23829-0.3223-0.53919-0.5429-0.90404-0.6579-0.15615-0.3678-0.26625-0.7512-0.32875-1.1502-0.922-0.2908-1.6352-0.8662-2.1366-1.7261-0.59021-0.0194-0.86475-0.3218-0.8219-0.9038-0.2793 0.0261-0.55395-0.0018-0.8219-0.082-0.37315-0.4573-0.81189-0.814-1.315-1.0685-1.1324-0.7841-2.1186-1.7162-2.9586-2.7946-0.4274-1.4692-0.646-2.9747-0.6576-4.5201 0.20703-1.2835 0.2894-2.5708 0.2467-3.8626-0.1316-0.2136-0.324-0.3236-0.5753-0.3286-0.62465 0.3435-1.2822 0.3977-1.9726 0.1644-0.20205-0.1795-0.33865-0.398-0.41089-0.6575-0.21032-1.1344-0.07396-2.2026 0.41089-3.2051 0.85305-0.388 1.4564-1.0172 1.8081-1.8904 0.68214-0.1888 1.3938-0.2152 2.1368-0.082 0.2875 0.128 0.562 0.2662 0.82165 0.4107z"/> </g> <g fill="#6e6e6e"> <path d="m637.82 1045.1c0.25806 0.263 0.36826 0.5918 0.32876 0.986-0.2581-0.263-0.3682-0.5918-0.32876-0.986z"/> </g> <g fill="#f6f8f6"> <path d="m631.58 1032.9c0.5835 0.2791 1.1045 0.6639 1.5613 1.1507 0.55393 0.8888 1.0193 1.821 1.3974 2.7941 0.1 0.7445 0.37295 1.4021 0.8217 1.972 0.0377 0.2568 0.14793 0.4771 0.3286 0.6578-0.0542 0.4913 0.1102 0.8743 0.49316 1.1505 0.30078 0.7166 0.57519 1.4284 0.82178 2.1368-0.00489 0.7494 0.21376 1.407 0.65746 1.9724 0.0543 0.1101 0.11024 0.2188 0.16444 0.3288-0.03944 0.3942 0.07066 0.723 0.32876 0.986 0.0542 0.2187 0.1101 0.4388 0.1644 0.6576-0.0148 0.4356 0.0952 0.8201 0.32886 1.1504 0.13144 0.2532 0.18554 0.5277 0.16418 0.8218 0.02466 0.1727-0.00329 0.3373-0.08214 0.4934-0.2368-0.2728-0.5392-0.3812-0.90406-0.3288-0.80714-0.4571-1.6848-0.73-2.6299-0.8219 0.02795-1.0424 0-2.084-0.08215-3.123-0.1726-0.3484-0.4192-0.6213-0.73975-0.8219-0.25965-0.1445-0.53415-0.2827-0.82165-0.4107-0.74304-0.1332-1.4547-0.1068-2.1368 0.082-0.74951 0.6099-1.4892 1.2672-2.219 1.9728-0.37306 1.1799-0.48316 2.3847-0.32886 3.6158 0.1366 0.3566 0.3832 0.6029 0.73975 0.7395 0.80042 0.1052 1.5664 0.0231 2.3012-0.2466-0.19556 2.3588-0.19544 4.7143 0 7.0678-0.041 0.199-0.14954 0.3089-0.3286 0.3287-2.1336-1.6961-4.216-3.4498-6.2461-5.2596-0.1774-0.3433-0.45203-0.562-0.8218-0.6571-0.2859-0.4507-0.6689-0.7794-1.1506-0.9866-0.4552-0.2612-0.8925-0.562-1.3148-0.9037-0.28101-0.4258-0.58176-0.8368-0.90406-1.233-0.50463-1.0243-0.9696-2.0662-1.3971-3.1229 0.0658-0.1692 0.1743-0.1956 0.32875-0.0822 1.2606 0.9861 2.5196 1.9724 3.7804 2.9583 0.58191 0.1185 1.1571 0.0905 1.726-0.0821 0.50464-0.4254 1.0256-0.8086 1.5614-1.1504 0.7693-0.855 1.5911-1.6766 2.4654-2.4658 0.34351-0.2463 0.69849-0.4665 1.0686-0.6571 0.45349-0.9717 1.0567-1.8473 1.8077-2.6302 0.26635-0.7526 0.62316-1.4645 1.0686-2.1368 0.19055-0.5946 0.2185-1.1981 0.08215-1.8078-0.69202-1.3395-1.4316-2.6543-2.219-3.9448 0.01964-0.1005 0.07554-0.1545 0.16444-0.1642z"/> </g> <g fill="#edc4a3"> <path d="m618.76 1043.9c0.72 0.3616 1.3772 0.8267 1.9724 1.3972 0.45349 0.3204 0.86463 0.2941 1.2327-0.0825 0.0806 0.2679 0.1084 0.5424 0.08216 0.8219 0.17261-0.0246 0.33694 0.0035 0.49314 0.0822 0.62124 1.2113 1.6076 1.7045 2.9585 1.4792 0.45864-0.491 1.0076-0.7918 1.6437-0.9038-0.53577 0.3418-1.0568 0.725-1.5614 1.1504-0.56885 0.1726-1.144 0.2006-1.726 0.0821-1.2607-0.9859-2.5198-1.9722-3.7804-2.9583-0.15445-0.1134-0.26295-0.087-0.32875 0.0822-0.3237-0.3797-0.65245-0.7626-0.9861-1.1506z"/> </g> <g fill="#7d7e7c"> <path d="m638.32 1046.7c0.2334 0.3304 0.3435 0.7149 0.32886 1.1504-0.23366-0.3303-0.34366-0.7148-0.32886-1.1504z"/> </g> <g fill="#85d0de"> <path d="m634.37 1044.1c0.32055 0.2006 0.56715 0.4735 0.73975 0.8219 0.08215 1.039 0.1101 2.0806 0.08215 3.123 0.94505 0.0919 1.8228 0.3648 2.6299 0.8219-1.0388 0.1052-2.025-0.0594-2.9586-0.4932-0.13145-1.2527-0.2137-2.5116-0.24656-3.7806-0.17104-0.1213-0.25304-0.2859-0.24659-0.493z"/> </g> <g fill="#7ccadb"> <path d="m631.41 1043.8c-0.35166 0.8732-0.95506 1.5024-1.8081 1.8904-0.48485 1.0025-0.62121 2.0707-0.41089 3.2051 0.07224 0.2595 0.20884 0.478 0.41089 0.6575 0.69031 0.2333 1.3479 0.1791 1.9726-0.1644 0.2513 5e-3 0.4437 0.115 0.5753 0.3286 0.0427 1.2918-0.03967 2.5791-0.2467 3.8626 0.0116 1.5454 0.2302 3.0509 0.6576 4.5201-0.3319-0.2792-0.66065-0.552-0.9862-0.8219 0.17906-0.0198 0.2876-0.1297 0.3286-0.3287-0.19544-2.3535-0.19556-4.709 0-7.0678-0.73474 0.2697-1.5007 0.3518-2.3012 0.2466-0.35655-0.1366-0.60315-0.3829-0.73975-0.7395-0.1543-1.2311-0.0442-2.4359 0.32886-3.6158 0.72984-0.7056 1.4695-1.3629 2.219-1.9728z"/> </g> <g fill="#919191"> <path d="m623.36 1050.4c0.4817 0.2072 0.8647 0.5359 1.1506 0.9866-0.48155-0.2076-0.8646-0.5363-1.1506-0.9866z"/> </g> <g fill="#9a9a9a"> <path d="m624.51 1051.3c0.36977 0.0951 0.6444 0.3138 0.8218 0.6571-0.36976-0.0951-0.6442-0.3139-0.8218-0.6571z"/> </g> <g fill="#152d36"> <path d="m639.47 1049.7c0.10194 0.0181 0.1841 0.0723 0.2465 0.1643 0.08396 1.2133 0.2203 2.418 0.4111 3.6161-0.3912-1.2101-0.61145-2.4685-0.6576-3.7804z"/> </g> <g fill="#5ca0b1"> <path d="m638.97 1049c0.16445 0.2186 0.32875 0.4391 0.49315 0.6575 0.04615 1.3119 0.2664 2.5703 0.6576 3.7804 0.1809 1.0884 0.2909 2.1842 0.3285 3.2875-0.2776-1.0913-0.57996-2.1877-0.9038-3.2875-0.0067-1.5072-0.1991-2.9867-0.57545-4.4379z"/> </g> <g fill="#1d424a"> <path d="m608.24 1055.1c-0.2201 0.3617-0.4125 0.7449-0.5753 1.1506-0.1857 0.2697-0.432 0.4336-0.73964 0.4932 0.40944-0.5787 0.84824-1.1274 1.3149-1.6438z"/> </g> <g fill="#162a33"> <path d="m598.7 1059.9c-0.1399 0.2612-0.3585 0.4538-0.6576 0.5753-0.7939 0.3825-1.6156 0.6855-2.4654 0.9039 1.001-0.5604 2.0432-1.0536 3.123-1.4792z"/> </g> <g fill="#5fa5b6"> <path d="m635.52 1060.9c0.50306 0.2545 0.9418 0.6112 1.315 1.0685 0.26795 0.0802 0.5426 0.1081 0.8219 0.082-0.04285 0.582 0.23169 0.8844 0.8219 0.9038 0.50135 0.8599 1.2146 1.4353 2.1366 1.7261 0.0625 0.399 0.1726 0.7824 0.32875 1.1502-1.9097-1.5268-3.718-3.1702-5.4241-4.9306z"/> </g> <g fill="#31535d"> <path d="m641.6 1063.3c0.36512 1.1008 0.58365 2.2514 0.65745 3.4511-0.5687-0.1264-1.006-0.4549-1.3149-0.9861 0.36485 0.115 0.66575 0.3356 0.90404 0.6579-0.01304-1.0426-0.09544-2.0827-0.24659-3.1229z"/> </g> <g fill="#055c6f"> <path d="m621.22 1070.2c-0.47336 0.406-0.99436 0.516-1.5615 0.3292-0.94994 0.2301-1.9082 0.3943-2.8762 0.4929 0.96315-0.4735 2.0036-0.776 3.1231-0.904 0.47154-0.1317 0.90884-0.1039 1.3147 0.0819z"/> </g> <g fill="#072430"> <path d="m612.18 1071.9c-0.0692 0.1183-0.17747 0.2007-0.32884 0.2463-1.8836 0.1861-3.7459 0.4869-5.5883 0.904 0.50294-0.2678 1.0503-0.46 1.6436-0.575 1.4269-0.1809 2.8518-0.3733 4.2735-0.5753z"/> </g> <g fill="#023f4b"> <path d="m603.64 1073.4c-0.7529 0.1363-1.5205 0.3007-2.3011 0.4929h-2.9586c1.7176-0.2971 3.4697-0.4618 5.2597-0.4929z"/> </g> <g fill="#002932"> <path d="m589.17 1073.7c3.0653 0.1398 6.134 0.1953 9.2044 0.1642-2.6005 0.1644-5.2301 0.2187-7.8897 0.1644-0.43883-0.1102-0.87597-0.2184-1.3147-0.3286z"/> </g> <g fill="#047588"> <path d="m598.38 1073.9h2.9586c-2.2404 0.2763-4.5152 0.4408-6.8212 0.4931-1.3793 0.0328-2.7218-0.0754-4.0271-0.3287 2.6596 0.0543 5.2892 0 7.8897-0.1644z"/> </g> <g fill="#0b6475"> <path d="m625.99 1078.6c0.526 0.8317 0.96314 1.708 1.3148 2.6295-0.1643 0.0152-0.30075-0.0406-0.41086-0.1637-0.07398-0.5825-0.32054-1.0753-0.73974-1.4797-0.1084-0.3202-0.1627-0.6492-0.1642-0.9861z"/> </g> <g fill="#0d687a"> <path d="m629.11 1084.5c0.605 0.7166 0.98805 1.5385 1.1506 2.4654-0.65918-0.6689-1.0437-1.4905-1.1506-2.4654z"/> </g> <g fill="#21151e"> <path d="m687.96 1089.1c1.157 1.1553 2.2516 2.3619 3.2872 3.6161 0.0247 0.1727-0.0033 0.3369-0.08225 0.4929-0.37795-0.317-0.68045-0.7002-0.90405-1.1503-0.1345-0.1467-0.29895-0.2005-0.49305-0.1644 0.02625-0.2256-0.0017-0.4457-0.08215-0.6575-0.7792-0.5327-1.4103-1.19-1.8903-1.9724 0.01966-0.1007 0.07566-0.1549 0.16456-0.1644z"/> </g> <g fill="#fafafa"> <path d="m657.38 1093.3c0.4931 0.6035 1.0403 1.1505 1.6436 1.6438 2.3752 2.1286 4.6762 4.3473 6.9036 6.6566-0.10365 0.2159-0.26805 0.3522-0.49315 0.4112-1.0372 0.0808-2.0234 0.2992-2.9588 0.6576h-0.32864c-0.70676 0.0412-1.3642 0.2054-1.9724 0.4931-0.26304-0.0443-0.48155 0.0115-0.65745 0.164-0.58838 0.0085-1.1358 0.1187-1.6436 0.3292-1.1455 0.1462-2.2418 0.4206-3.2875 0.8214h-0.1642c-0.4387 0.0544-0.8761 0.1102-1.3149 0.1644v-2.9585c0.15283-0.6408 0.20713-1.2986 0.16443-1.9724 0.25476-0.669 0.36474-1.3806 0.32873-2.1366v-0.1644c0.28747-1.0571 0.45203-2.1519 0.49307-3.2875 0.3928-0.8136 0.6113-1.6915 0.6573-2.6297 0.05593-0.2845 0.22036-0.3665 0.4932-0.2464 0.6953 0.723 1.4071 1.407 2.1368 2.0542z"/> </g> <g fill="#5e5e5e"> <path d="m657.38 1093.3c0.7118 0.3832 1.2606 0.9319 1.6436 1.6438-0.6033-0.4933-1.1505-1.0403-1.6436-1.6438z"/> </g> <g fill="#808080"> <path d="m654.75 1091.4c-0.046 0.9382-0.2645 1.8161-0.6573 2.6297 0.00986-0.9499 0.2302-1.8263 0.6573-2.6297z"/> </g> <g fill="#0a0901"> <path d="m623.69 1121c4.3916-6.2004 8.7209-12.446 12.985-18.738 0.1891-0.485 0.21706-0.9782 0.08205-1.4793-0.53245-1.5712-1.1076-3.105-1.7256-4.6023 0.09683-0.4097 0.12488-0.8481 0.08203-1.3152 2.089 0.5064 4.1996 0.9453 6.3282 1.3152 1.1472 3.8019 2.6004 7.4739 4.3558 11.012 0.10997 0.2188 0.10997 0.4394 0 0.6577-6.5025 6.2751-13.871 10.659-22.107 13.15z"/> </g> <g fill="#606060"> <path d="m654.1 1094.1c-0.04104 1.1356-0.2056 2.2304-0.49307 3.2875 0.01307-1.1392 0.17737-2.2352 0.49307-3.2875z"/> </g> <g fill="#066070"> <path d="m692.56 1095.4c0.02626 0.225-0.00144 0.4451-0.08214 0.6571-0.5061 0.5607-0.9451 1.1623-1.315 1.8083-0.55215 0.3071-1.0176 0.7179-1.3971 1.2329-0.21865 0.0536-0.43872 0.11-0.65745 0.1641-0.36964 0.4537-0.8086 0.8105-1.315 1.0685 1.3889-1.2906 2.786-2.6053 4.1913-3.9452 0.24-0.3169 0.4324-0.6458 0.57534-0.9857z"/> </g> <g fill="#5d5d5d"> <path d="m653.6 1097.5c0.03601 0.756-0.07397 1.4676-0.32873 2.1366-0.03626-0.756 0.074-1.468 0.32873-2.1366z"/> </g> <g fill="#434343"> <path d="m665.44 1102c-0.0691 0.1185-0.1775 0.2005-0.3289 0.2465-0.87265 0.176-1.7488 0.3125-2.6299 0.4111 0.93531-0.3584 1.9215-0.5768 2.9588-0.6576z"/> </g> <g fill="#6f6f6f"> <path d="m662.15 1102.6c-0.01804 0.1018-0.07224 0.1839-0.1644 0.2465-0.6033 0.0901-1.2064 0.1723-1.808 0.2466 0.6082-0.2877 1.2656-0.4519 1.9724-0.4931z"/> </g> <g fill="#828282"> <path d="m659.52 1103.3c-0.49975 0.2481-1.0487 0.3587-1.6436 0.3292 0.5079-0.2105 1.0553-0.3207 1.6436-0.3292z"/> </g> <g fill="#757575"> <path d="m657.88 1103.6c-0.0182 0.1015-0.0723 0.1839-0.16446 0.2466-1.0404 0.2102-2.0808 0.4023-3.123 0.5748 1.0456-0.4008 2.142-0.6752 3.2875-0.8214z"/> </g> <g fill="#9b9b9b"> <path d="m653.11 1101.6v2.9585c0.43883-0.0542 0.87623-0.11 1.3149-0.1644-0.4946 0.2744-1.0421 0.385-1.6437 0.3292-0.00818-1.077 0.10193-2.1173 0.32874-3.1233z"/> </g> <g fill="#2d161c"> <path d="m683.68 1107.6c0.43385 2.0803 0.434 4.1631 1.3e-4 6.2459-0.09543-1.0374-0.09543-2.1059 0-3.2054-0.03479-0.8331-0.14489-1.6555-0.32873-2.4652 0.01794-0.2763 0.12646-0.4687 0.3286-0.5753z"/> </g> <g fill="#1b7589"> <path d="m683.68 1106.7c0.10194 0.0178 0.1841 0.0724 0.2467 0.1648 0.02956 0.555 0.11147 1.1037 0.24635 1.6432 0.13635-0.1645 0.27455-0.3293 0.41089-0.4932-0.31224 3.5706-0.72324 7.1595-1.2324 10.766 0.0065 0.2894 0.06215 0.5638 0.1642 0.8217-0.2579 0.7298-0.5868 1.4154-0.9862 2.0548 0.3452-1.9098 0.67395-3.828 0.9862-5.7531 0.12977-0.7049 0.1857-1.4165 0.16443-2.1363 0.43387-2.0828 0.43372-4.1656-1.3e-4 -6.2459v-0.8221z"/> </g> <g fill="#1e0f14"> <path d="m683.52 1115.9c-0.31225 1.9251-0.641 3.8433-0.9862 5.7531v0.3288c-0.25476 0.9088-0.5835 1.7868-0.9861 2.6297-0.08556-0.1777-0.1399-0.3681-0.1643-0.5754 0.37464-1.3461 0.7577-2.6872 1.1504-4.0269 0.1594-1.3201 0.3518-2.6348 0.5752-3.9446 0.05615-0.3485 0.1941-0.4027 0.411-0.1647z"/> </g> <g fill="#04798a"> <path d="m622.7 1121.7c-1.4824 0.8761-3.1261 1.3689-4.9309 1.4793 0.03457 0.0971 0.0889 0.1793 0.16445 0.2465-2.1909 0.2331-4.3278 0.6983-6.4102 1.3971-2.6134 0.4356-5.2432 0.71-7.8896 0.8217 2.9535-0.3373 5.9121-0.802 8.8758-1.397 3.3893-0.9026 6.785-1.7521 10.191-2.5476z"/> </g> <g fill="#18697a"> <path d="m682.53 1122c-0.0558 0.6654-0.1659 1.3228-0.32874 1.9722-0.36656 0.7433-0.58676 1.5386-0.65736 2.3835-0.02965 0.2266-0.1399 0.3634-0.3287 0.411 0.23167-0.6889 0.34007-1.4002 0.3287-2.137 0.4026-0.8429 0.73134-1.7209 0.9861-2.6297z"/> </g> <g fill="#0d8095"> <path d="m654.59 1129.6c-0.43223 1.5183-0.9253 2.9978-1.4792 4.4373h-0.16417c0.06224-0.4008-0.04787-0.5112-0.329-0.3283-0.0542-0.0824-0.1101-0.1645-0.1642-0.2466-0.01646-0.3173 0.03774-0.646 0.1642-0.9866-0.0409-0.2185-0.1511-0.3827-0.3285-0.4929 0.41566-0.1002 0.55397-0.3468 0.4108-0.7398-0.2959 0.2995-0.6525 0.4903-1.0683 0.5752-0.10364 0.1233-0.18594 0.2599-0.24658 0.4114-0.17261-0.1676-0.36486-0.194-0.57532-0.0824-0.21864 0.1646-0.21864 0.3288 0 0.4932-0.1101 0.1103-0.21864 0.2185-0.32874 0.329-0.43224 0.0688-0.78905 0.2612-1.0684 0.575-0.05435-0.1101-0.11025-0.2187-0.16445-0.3287-0.3795 0.4225-0.8463 0.6973-1.3971 0.8215 0.8366-0.6472 1.6587-1.3327 2.4655-2.0542 1.2245-0.6789 2.4014-1.4187 3.5338-2.2192 0.2367-0.1068 0.48315-0.161 0.7396-0.1639z"/> </g> <g fill="#210b0f"> <path d="m653.11 1134c0.55393-1.4395 1.047-2.919 1.4792-4.4373 0.0099-0.089 0.06435-0.1452 0.16445-0.1648 0.05419 0.1648 0.11025 0.3287 0.1643 0.4931-0.4668 1.6209-1.014 3.2105-1.6436 4.7668-0.15286-0.1956-0.20693-0.4144-0.16433-0.6578z"/> </g> <g fill="#201a1f"> <path d="m620.07 1126.3c0.0476 0.2942-0.0083 0.567-0.16444 0.8219-0.75766 0.4387-1.0321 1.0681-0.8219 1.89-0.30066 0.0447-0.54726 0.1825-0.73962 0.411-0.29404 0.4751-0.54077 0.968-0.73964 1.4793-0.217-0.0279-0.4093 0.0263-0.5753 0.1645-0.9928 1.6254-2.0332 3.2151-3.1228 4.7664-0.74305 0.5625-1.3742 1.2196-1.8904 1.9726 2.5199-3.644 5.0116-7.3143 7.4788-11.012 0.1709-0.1992 0.36313-0.3638 0.5753-0.4934z"/> </g> <g fill="#034755"> <path d="m646.37 1134.8c-0.6641 0.4669-1.3216 0.9874-1.9726 1.5612-0.156 0.0788-0.32044 0.1068-0.49304 0.082 0.73145-0.6752 1.5534-1.2225 2.4656-1.6432z"/> </g> <g fill="#220e11"> <path d="m652.78 1135c0.18884 0.0475 0.29894 0.1838 0.32861 0.4108-0.19057 1.0915-0.51941 2.132-0.98607 3.1229-0.235 0.942-0.3715 1.902-0.4109 2.8763 0.02307 0.5623-0.2234 0.891-0.7396 0.9867-0.00174 1.3644-0.16617 2.7052-0.4932 4.0266-0.0559 0.1693-0.1643 0.252-0.3285 0.2466 0.23-2.0099 0.55873-3.9825 0.98586-5.917 0.37314-1.2754 0.7019-2.5904 0.98634-3.9451 0.3402-0.5553 0.5588-1.1568 0.65746-1.8078z"/> </g> <g fill="#235f73"> <path d="m652.12 1136.8c-0.28444 1.3547-0.6132 2.6697-0.98634 3.9451 0.07251-1.4021 0.40114-2.7171 0.98634-3.9451z"/> </g> <g fill="#034c59"> <path d="m639.47 1139.6c-0.42576 0.5968-0.97476 1.0338-1.6438 1.3149 0.47497-0.5144 1.0223-0.9514 1.6438-1.3149z"/> </g> <g fill="#034a54"> <path d="m632.56 1144.9c-0.3483 0.5668-0.84134 0.9504-1.4792 1.1504 0.43896-0.4355 0.93201-0.82 1.4792-1.1504z"/> </g> <g fill="#116375"> <path d="m675.3 1144c-0.14124 0.3765-0.1676 0.7594-0.08204 1.1508-0.735 1.3591-1.4184 2.7284-2.0547 4.1094 0.5524-1.6836 1.1553-3.355 1.808-5.0136 0.0559-0.1695 0.1643-0.2517 0.32874-0.2466z"/> </g> <g fill="#261114"> <path d="m607.75 1144c-0.03589 4.3161 0.18274 8.618 0.65759 12.903-0.02795 0.5214-0.05435 1.0409-0.08225 1.5614-0.0624-0.0916-0.14456-0.1456-0.2465-0.1639 0-0.1104-0.0542-0.1646-0.1644-0.1646-0.15614-4.0024-0.37465-8.0014-0.6575-11.999 0.0067-0.6165 0.0609-1.2196 0.16444-1.8082 0.0542-0.1642 0.16431-0.2747 0.32862-0.3287z"/> </g> <g fill="#361c28"> <path d="m650.15 1147c0.1068 0.1267 0.1609 0.2912 0.16445 0.4932-0.1875 1.006-0.35181 1.9923-0.49329 2.9585-0.03956-1.1884 0.07054-2.3389 0.32884-3.4517z"/> </g> <g fill="#125061"> <path d="m673 1149.6c-0.1659 0.8484-0.49473 1.6159-0.9862 2.3014 0.09364-0.6279 0.286-1.2311 0.5753-1.8082 0.0624-0.2365 0.19876-0.4008 0.4109-0.4932z"/> </g> <g fill="#155764"> <path d="m625.5 1150.9c-0.93187 0.9866-1.8622 1.9727-2.7943 2.959-0.32215 1.0272-0.43215 2.1235-0.32849 3.2874-0.21716-1.1246-0.21716-2.2751 0-3.4519 0.76758-0.6574 1.4791-1.3692 2.1366-2.1369 0.28931-0.2922 0.61814-0.511 0.98621-0.6576z"/> </g> <g fill="#1d6d83"> <path d="m607.42 1144.4c-0.10354 0.5886-0.15774 1.1917-0.16444 1.8082 0.28285 3.9972 0.50136 7.9962 0.6575 11.999-0.1593-0.4028-0.21535-0.8398-0.16444-1.3149-0.26796-3.1461-0.48636-6.2967-0.65746-9.451 0-1.0751 0.11034-2.0878 0.32884-3.0409z"/> </g> <g fill="#33141a"> <path d="m649.82 1150.6c0.20544 2.6561 0.2876 5.3401 0.24644 8.0536-0.0625 0.0922-0.14463 0.1467-0.24644 0.1645-0.10523-1.2771-0.21376-2.5362-0.32886-3.7806 0.05615-1.5069 0.16614-2.9861 0.32886-4.4375z"/> </g> <g fill="#241016"> <path d="m608.07 1158.8c0.2581 0.194 0.39454 0.4684 0.4109 0.8218 0.07556 0.7132 0.1577 1.425 0.2466 2.137-0.0149 0.3005-0.1233 0.5205-0.3289 0.6571-0.10996-0.493-0.2186-0.9861-0.3286-1.479v-2.1369z"/> </g> <g fill="#2b1017"> <path d="m669.55 1165.1c0.59166 1.5141 1.2771 2.9933 2.0545 4.438 0.08055 0.2678 0.1084 0.5424 0.082 0.8219-0.7789-1.1933-1.3542-2.5082-1.7256-3.9446-0.4305-0.3863-0.567-0.8237-0.41086-1.3153z"/> </g> <g fill="#311319"> <path d="m622.37 1161.8h0.16431c0.49305 10.854 1.0964 21.703 1.8082 32.545v0.986c-0.324-1.1603-0.5164-2.3667-0.57546-3.6161-0.05434-1.8622-0.11014-3.7261-0.16434-5.5883-0.01987-0.4716-0.12815-0.9104-0.3288-1.3148-0.0247-1.8148-0.1348-3.623-0.32876-5.4243-0.1167-1.2361-0.08874-2.4692 0.08216-3.6982-0.0955-0.694-0.2318-1.3777-0.41114-2.0547-0.07862-2.9341-0.2168-5.865-0.41066-8.794 0.0033-1.0256 0.0574-2.0396 0.16444-3.0402z"/> </g> <g fill="#236575"> <path d="m608.07 1161c0.11 0.4929 0.21864 0.986 0.3286 1.479-0.0509 0.5819 0.00344 1.1308 0.16446 1.6434-0.02466 2.4427 0.08374 4.8541 0.32861 7.2325-0.0509 0.5819 0.00343 1.1309 0.16443 1.6435v3.6161c-0.1101-0.7969-0.2186-1.6187-0.32874-2.4656-0.21376 0.0973-0.3501 0.2617-0.41086 0.4935-0.028-0.2187-0.05435-0.4393-0.0823-0.6577 0.1382-0.6329 0.3026-1.2637 0.49316-1.89-0.34836-3.6839-0.56872-7.3821-0.65736-11.095z"/> </g> <g fill="#430c16"> <path d="m609.06 1173c-0.161-0.5126-0.21533-1.0616-0.16443-1.6435 0.00343-1.1558 0.08557-1.2096 0.24643-0.1641 0.1332 0.6339 0.10525 1.2358-0.082 1.8076z"/> </g> <g fill="#201116"> <path d="m656.07 1182.5c-0.21176-0.0921-0.34826-0.2568-0.41076-0.4932-0.58167-1.6223-1.2394-3.2118-1.9724-4.767-0.5277-2.1302-1.1852-4.2124-1.9726-6.2459-0.80371-3.2365-1.3789-6.5236-1.7256-9.8619-0.02647-0.2249 0.00146-0.4455 0.08203-0.6573 0.91723 6.1205 2.4243 12.092 4.52 17.916-0.0344 0.0968-0.0886 0.1788-0.16417 0.2463 0.38452 0.1385 0.71327 0.3568 0.98607 0.6576-0.13316 0.0508-0.2417 0.1332-0.32884 0.2466 0.55408 0.8995 0.88294 1.8853 0.9862 2.9589z"/> </g> <g fill="#250e14"> <path d="m673.33 1174.3c0.8728 1.9987 1.721 4.0253 2.5477 6.0819 0.18736 0.5948 0.32396 1.1982 0.41101 1.808h-0.49305c0.0264-0.3335 0-0.6627-0.08215-0.9863-0.70861-1.6716-1.3661-3.3695-1.9724-5.0957-0.18764-0.5949-0.32397-1.1981-0.41114-1.8079z"/> </g> <g fill="#240f13"> <path d="m608.57 1164.1c0.29089 1.8674 0.5653 3.7856 0.82177 5.753 0.04431 1.3036-0.00976 2.6187-0.16443 3.9451 0.3435 2.9766 0.6183 5.9631 0.82215 8.9581-0.00355 0.4815-0.11355 0.8925-0.32885 1.233-0.1857-2.4856-0.4044-4.9515-0.6576-7.3971v-3.6161c0.18725-0.5718 0.2152-1.1737 0.082-1.8076-0.16086-1.0455-0.243-0.9917-0.24643 0.1641-0.24487-2.3784-0.35327-4.7898-0.32861-7.2325z"/> </g> <g fill="#167285"> <path d="m622.54 1161.8c0.12658 0.1246 0.20875 0.289 0.24645 0.4929 0.02784 1.5366 0.1101 3.0703 0.2466 4.6021 0.1101-1.0405 0.2186-2.0823 0.3287-3.1229 0.3731 3.279 0.51113 6.5661 0.4109 9.8621-0.1544 0.1249-0.2367 0.289-0.24657 0.4928 0.07887 0.4999 0.18907 0.9928 0.32887 1.4798 0.161-0.5396 0.3795-0.5936 0.6572-0.165-0.3335 0.3715-0.52586 0.8107-0.57506 1.3151-0.0675-0.0756-0.14964-0.1298-0.24658-0.1643-0.21876 0.8218-0.21876 1.6438 0 2.4659 0.11024-0.2748 0.21864-0.5477 0.32864-0.8221 0.0543 0.1644 0.1102 0.3286 0.1645 0.4931-0.33677 1.5565-0.41917 3.1458-0.24656 4.767 0.08556-0.562 0.2218-1.1096 0.41116-1.6438 0.11655 0.935 0.2251 1.8653 0.32847 2.7941-0.13467 0.1463-0.29907 0.2005-0.49292 0.1646-0.05435 1.3199 0 2.6347 0.16445 3.9446 0.1346-0.4291 0.21665-0.8662 0.2463-1.3147-0.01476 2.2995-0.0426 4.6004-0.08214 6.9033h-0.16416c-0.7118-10.842-1.3152-21.69-1.8082-32.545z"/> </g> <g fill="#2b131a"> <path d="m676.45 1182.3c0.30564 0.891 0.6606 1.7687 1.0683 2.6301 0.23986 0.7547 0.43213 1.522 0.57519 2.3011-0.12646-0.1906-0.29077-0.3548-0.49293-0.4932-0.1234-0.6574-0.36986-1.2605-0.73973-1.8079-0.12827-0.7559-0.31887-1.4959-0.57532-2.219 0.03945-0.1478 0.09535-0.286 0.16445-0.4111z"/> </g> <g fill="#1d6b7d"> <path d="m609.06 1176.6c0.2532 2.4456 0.4719 4.9115 0.6576 7.3971v0.6571c0.1019 1.3679 0.1577 2.7365 0.1644 4.1092-0.13487-0.4058-0.217-0.845-0.24656-1.3147-0.05434 0.0542-0.11014 0.11-0.16434 0.1642-0.02817-1.974-0.1102-3.9464-0.2467-5.9172-0.13645 0.8167-0.2186 1.6384-0.24643 2.4655-0.00987-0.5391-0.14637-1.0321-0.41087-1.4794 0.1101-0.2188 0.2185-0.4388 0.3286-0.6574-0.1676-0.317-0.19557-0.646-0.08204-0.9865 0.0542 0.1104 0.10999 0.219 0.16431 0.3288 0.08203-1.5874 0.10998-3.1771 0.08203-4.7667z"/> </g> <g fill="#35141b"> <path d="m609.72 1184.6c0.207 0.1662 0.3171 0.4126 0.32885 0.7397 0.08691 2.6693 0.30725 5.3257 0.65745 7.9717-0.015 0.3009-0.1235 0.5211-0.32884 0.6575h-0.16431c0.04248-1.7884-0.0675-3.5402-0.32875-5.2597-0.0067-1.3727-0.0625-2.7413-0.1644-4.1092z"/> </g> <g fill="#0d6575"> <path d="m659.19 1189.1c1.3526 2.1005 2.6676 4.2371 3.9447 6.4104-0.27942-0.0773-0.526-0.0773-0.73976 0-0.03124-0.3946-0.1135-0.7772-0.2463-1.1505-0.11355 0.0871-0.1958 0.1956-0.2467 0.3286-0.074-0.4322-0.2105-0.8431-0.4109-1.2326-0.0839-0.3008-0.22036-0.327-0.4109-0.0824 0.12304-0.9157-0.2335-1.3262-1.0685-1.2329 0.281-0.1855 0.3634-0.432 0.2466-0.7395-0.05103 0.1334-0.13306 0.2418-0.2466 0.3287-0.3484-0.5031-0.59496-1.0501-0.7396-1.6434-0.1233-0.1037-0.25966-0.1861-0.4109-0.2466 0.26465-0.1727 0.37317-0.4191 0.32886-0.7398z"/> </g> <g fill="#333945"> <path d="m624.35 1194.3h0.16416c0.15614 0.8611 0.21034 1.7372 0.16431 2.6298h-0.32847v-1.6438-0.986z"/> </g> <g fill="#551221"> <path d="m624.35 1197h0.32847v1.8082c-0.19067-0.4717-0.29907-1.0752-0.32847-1.8082z"/> </g> <g fill="#290f14"> <path d="m611.03 1204c-0.14796-1.5779-0.25624-3.1655-0.3284-4.7665-0.0544-1.2095 0-2.4164 0.1642-3.6161 0.09217 2.3667 0.25635 4.7223 0.4929 7.0675-0.00315 0.5081-0.11326 0.9468-0.3287 1.3151z"/> </g> <g fill="#086a78"> <path d="m663.14 1195.5c1.8229 2.7135 3.6852 5.398 5.5884 8.0539-1.0996 0.1921-1.3741-0.1644-0.8219-1.0685-0.30064-0.0443-0.54724-0.1823-0.73964-0.4113-0.30565-0.6125-0.608-1.2141-0.90404-1.8075-0.32046-0.0445-0.56689 0.0639-0.73936 0.3288-0.1907-0.0821-0.3274-0.2186-0.411-0.4108 0.0179-0.2827 0.1002-0.3107 0.24655-0.0821 0.08045-0.2681 0.1084-0.5429 0.08205-0.8222-0.19386 0.0365-0.3583-0.0177-0.49306-0.1642 0.15772-0.3913-0.00659-0.5555-0.49304-0.4934 0.1577-0.7081-0.08887-1.2013-0.7396-1.479-0.0956-0.6031-0.28774-1.1505-0.57534-1.6437z"/> </g> <g fill="#281116"> <path d="m679.24 1190.9c1.254 3.9154 1.9396 7.9702 2.0544 12.163 0.54725 0.82 0.95826 1.6963 1.2327 2.6298-0.36965-0.3532-0.61636-0.7924-0.7395-1.3147-0.16604 0.1378-0.3584 0.1924-0.57534 0.1642 0.02807 0.5423-0.08226 0.5968-0.32886 0.1644 0.1217-0.4801 0.1759-0.9467 0.16455-1.3971-0.33035-3.4108-0.82335-6.8063-1.4794-10.19-0.3484-0.6429-0.5686-1.3282-0.6575-2.0548 0.0758-0.1314 0.18434-0.1858 0.32887-0.1646z"/> </g> <g fill="#196576"> <path d="m610.21 1194h0.16431c0.08544 1.7802 0.19397 3.5321 0.32884 5.2597 0.07216 1.601 0.18044 3.1886 0.3284 4.7665 0.07897 0.8745 0.13317 1.7521 0.1643 2.63h1.4794c0.01634 0.3369-0.09362 0.6115-0.32861 0.8219 0.02295-0.2662-0.08715-0.4589-0.32885-0.5753-0.37977-0.0823-0.7626-0.1084-1.1505-0.0823-0.33535-4.2473-0.5537-8.5208-0.65725-12.82z"/> </g> <g fill="#2a1116"> <path d="m624.84 1200.6c0.19065 1.4872 0.4093 2.9941 0.6573 4.5199-0.2662 0.2694-0.48484 0.5704-0.65745 0.9039 0.50295 1.3431 0.94019 2.714 1.315 4.1095v0.3285c-0.18236-0.0101-0.3468-0.0641-0.493-0.1646-0.34866-1.4842-0.7315-2.9635-1.1507-4.4379 0.19556-0.6375 0.30566-1.2948 0.32861-1.9721-0.11511-1.1261-0.11485-2.2206 1.5e-4 -3.2872z"/> </g> <g fill="#210d11"> <path d="m669.38 1204.5c0.2876 0.2333 0.562 0.5078 0.82166 0.8221 0.4325-0.4195 0.5409-0.3375 0.32884 0.2463 0.29433 0.5508 0.56704 1.0979 0.8219 1.6437-0.19236 0.3006-0.43895 0.5474-0.7396 0.7398-0.37647 0.7196-0.56885 1.4858-0.5753 2.3011-0.4225 0.0145-0.6691 0.2349-0.73965 0.6571-0.17075-0.1217-0.25305-0.2859-0.2467-0.4929 0.16465-0.0542 0.27465-0.1642 0.32895-0.3285 0.43204-1.0719 0.8168-2.1666 1.1504-3.2876-0.02793-0.2185-0.0543-0.4387-0.08226-0.6577-0.46838-0.4911-0.82494-1.0403-1.0682-1.6434z"/> </g> <g fill="#094341"> <path d="m684.34 1210.1c10.7 0.1085 21.384 0.2183 32.052 0.3285h-31.887-0.1644v-0.3285z"/> </g> <g fill="#121200"> <path d="m625.66 1210.3c0.1462 0.1005 0.31064 0.1545 0.493 0.1646h42.9c-0.00635 0.207 0.07595 0.3712 0.2467 0.4929 0.07055-0.4222 0.31715-0.6426 0.73965-0.6571 0.1643 0.0145 0.30076-0.0412 0.41087-0.1643 4.2735 0.1095 8.5471 0.2185 12.821 0.3285 0.3173-0.3582 0.6182-0.3039 0.9041 0.1647 0.1003-0.0199 0.1545-0.0757 0.1643-0.1647h0.1644c10.546 0.1647 21.121 0.2186 31.723 0.1644v34.516c-45.804 0-91.607 2e-4 -137.41 2e-4 -0.02796-11.506 1e-4 -23.011 0.08226-34.517 9.604-0.1637 19.219-0.2178 28.846-0.1639 5.8943-0.1084 11.785-0.2172 17.669-0.3285 0.06237 0.0917 0.14464 0.1459 0.2466 0.1639z"/> </g> <g fill="#084b4d"> <path d="m626.15 1210.1h43.228c-0.0543 0.1643-0.1643 0.2743-0.32895 0.3285h-42.9v-0.3285z"/> </g> <g fill="#0a5254"> <path d="m607.91 1210.1c-0.05434 0.1095-0.11024 0.2185-0.16444 0.3285-9.6269-0.0539-19.242 2e-4 -28.846 0.1639-0.08216 11.506-0.11022 23.012-0.08226 34.517h-0.16444c-0.02796-11.616 1.4e-4 -23.23 0.08228-34.846 9.7141-0.1635 19.438-0.2181 29.175-0.1639z"/> </g> <g fill="#0c2c24"> <path d="m684.5 1210.4h31.887v34.681h-0.1643v-34.516c-10.602 0.0542-21.177 3e-4 -31.723-0.1644z"/> </g> <g fill="#075c66"> <path d="m684.34 1209.8c10.769 0.3249 21.563 0.4349 32.38 0.3284v35.01h-0.32885v-34.681c-10.667-0.1102-21.351-0.22-32.052-0.3285v-0.3286z"/> </g> </g> </svg>