<?xml version='1.0' encoding='utf-8'?>
<svg xmlns="http://www.w3.org/2000/svg" version="1.1" width="1080px" height="2132px" viewBox="0 0 1080 2132"> <g id="layer1"> <g style="fill:rgb(255,255,255); fill-opacity:1.0; stroke-linejoin: miter"> <path d="M-213.00104,518.08704C-213.24289,518.08704,-213.47484,518.1831,-213.64586,518.3541C-213.81688,518.52515,-213.91295,518.7571,-213.91295,518.99896L-213.91194,1597.0C-213.91194,1597.5037,-213.50366,1597.9119,-213.00003,1597.9119L1293.001,1597.9128C1293.2428,1597.9128,1293.4747,1597.8167,1293.6458,1597.6458C1293.8168,1597.4746,1293.9128,1597.2427,1293.9128,1597.001L1293.9119,518.99994C1293.9119,518.4963,1293.5037,518.088,1293.0,518.088L-213.00104,518.08704 Z"/> </g> <g style="fill:rgb(219,236,246); fill-opacity:1.0; stroke-linejoin: miter"> <path d="M162.91527,1529.0935L144.67766,1511.4314Q94.797195,1462.1033,-0.81165504,1380.4629Q-39.75226,1341.9167,-44.734165,1330.5024Q-72.549995,1279.4158,-71.06711,1263.7639Q-75.342804,1238.0806,-70.99872,1206.7468Q-56.42646,1109.22,52.28557,966.0567Q161.83109,822.1674,297.42752,721.4597Q426.8696,621.9439,564.36646,642.42053Q611.3672,650.682,654.7883,668.723Q773.16406,726.39514,923.7184,784.32Q1015.7866,827.35693,1043.5808,861.7878Q1145.6643,982.08673,1146.4309,1194.4846Q1152.7227,1385.675,1045.24,1471.7322Q1021.1726,1492.1475,956.8097,1525.1726L162.91527,1529.0935"/> </g> <g style="fill:rgb(200,121,57); fill-opacity:1.0; stroke-linejoin: miter"> <path d="M427.6951,1124.636L427.6951,1124.6365Q414.51913,1020.62115,401.34314,916.6052Q535.188,914.15466,669.0331,911.70404Q652.62195,1034.2361,636.2108,1156.7678L427.6951,1124.636 Z"/> </g> <g style="fill:rgb(0,0,0); fill-opacity:1.0; stroke-linejoin: miter"> <path d="M574.20776,900.05475L502.40427,906.7778Q491.2645,916.4617,444.9558,943.5594Q442.70743,945.0724,439.7933,949.1989Q433.58972,955.2683,411.23935,1010.0948L396.15887,1048.3318L393.3592,1066.3333Q388.81396,1109.592,407.46542,1139.8606Q421.45798,1165.31,450.5099,1205.669Q453.75687,1178.258,455.18698,1181.7253Q456.19928,1182.8599,456.208,1203.6382Q456.46655,1213.5574,455.36984,1289.5339L649.5006,1289.5342Q647.9901,1271.6709,633.1062,1146.9663Q653.3163,1161.9683,656.8247,1153.3804Q675.8827,1083.814,672.4729,1042.3218Q671.75024,1027.092,651.37854,1009.4837Q651.3639,989.55536,647.22424,972.57086Q645.27966,959.00433,630.4293,934.70856Q624.944,926.0138,616.036,919.9109Q595.88464,913.2312,574.20776,900.05475 Z"/> </g> <g style="fill:rgb(255,255,255); fill-opacity:1.0; stroke-linejoin: miter"> <path d="M567.31177,885.99994Q573.48474,897.9489,579.4818,905.78784Q584.8031,913.05975,601.25854,931.1785L579.3817,919.612L579.2738,919.7126Q573.14966,927.0118,571.4065,935.80145Q569.3904,944.9765,569.2208,966.30096L530.4784,926.53394L522.5641,936.2235Q505.69843,917.9162,506.22836,908.8393Q505.66116,900.8003,516.312,886.3514L567.2903,885.99994 Z"/> </g> <g style="fill:rgb(255,181,144); fill-opacity:1.0; stroke-linejoin: miter"> <path d="M551.23804,1064.1846Q560.87354,1064.3865,567.05457,1069.3152Q572.49927,1074.0144,570.4994,1080.3289Q567.6228,1088.8645,557.4408,1096.758Q549.03467,1103.0759,539.6665,1103.2085Q535.26855,1103.1931,532.1376,1101.8093Q530.91565,1101.2495,529.9719,1100.5161Q526.1355,1097.0303,525.60205,1096.8438Q523.9087,1095.7515,521.725,1095.102Q516.49817,1093.4851,504.93085,1092.4224L509.01984,1071.1404Q519.4055,1070.384,525.02686,1069.4211Q528.08105,1068.9138,530.78174,1068.2727Q542.5482,1065.1023,543.6044,1065.0164Q547.80115,1064.1768,551.20056,1064.1846 Z"/> </g> <g style="fill:rgb(255,255,255); fill-opacity:1.0; stroke-linejoin: miter"> <path d="M483.09824,1058.8408L518.1987,1065.3269Q519.74414,1080.0251,519.0928,1089.1448Q518.07214,1105.418,509.99573,1107.2004Q505.82236,1108.4336,498.97498,1106.8923Q493.07465,1105.655,480.2726,1100.53L483.0917,1058.9353 Z"/> </g> <g style="fill:rgb(86,31,28); fill-opacity:1.0; stroke-linejoin: miter"> <path d="M794.1658,1086.2346L744.5017,1086.4622L744.47095,1079.6897C744.46497,1078.4426,745.4713,1077.4275,746.7178,1077.4216L791.8668,1077.2156C793.1138,1077.2095,794.129,1078.2158,794.13477,1079.4624L794.1658,1086.2346 Z"/> </g> <g style="fill:rgb(90,73,57); fill-opacity:1.0; stroke-linejoin: miter"> <path d="M798.7117,1092.9866L740.0176,1093.2546L739.9971,1088.7397C739.98584,1086.2461,741.9977,1084.2153,744.49146,1084.2041L794.1555,1083.977C796.6493,1083.9656,798.6802,1085.9773,798.6914,1088.4712L798.71204,1092.9866 Z"/> </g> <g style="fill:rgb(252,184,38); fill-opacity:1.0; stroke-linejoin: miter"> <path d="M802.4685,1092.926L735.7377,1093.2312C734.32007,1093.2373,733.166,1092.0933,733.15967,1090.676L733.15967,1090.6763C733.15295,1089.2588,734.2971,1088.1042,735.7141,1088.0979L802.4448,1087.7935C803.86255,1087.7869,805.0166,1088.9304,805.02295,1090.3477L805.02295,1090.3486C805.0298,1091.7654,803.8856,1092.9197,802.4685,1092.926 Z"/> </g> <g> <g style="fill:rgb(86,31,28); fill-opacity:1.0; stroke-linejoin: miter"> <path d="M318.56302,1082.7375L265.50064,1082.9805L265.46762,1075.7444C265.46143,1074.4121,266.53662,1073.3276,267.86835,1073.3213L316.10693,1073.1003C317.43903,1073.0945,318.52393,1074.1694,318.52988,1075.501L318.56302,1082.7375 Z"/> </g> <g style="fill:rgb(90,73,57); fill-opacity:1.0; stroke-linejoin: miter"> <path d="M323.42017,1089.9514L260.70978,1090.2378L260.6878,1085.4141C260.6756,1082.7502,262.82516,1080.5806,265.48984,1080.5674L318.5522,1080.3259C321.21674,1080.3127,323.38614,1082.4624,323.39825,1085.127L323.42047,1089.9514 Z"/> </g> <g style="fill:rgb(252,184,38); fill-opacity:1.0; stroke-linejoin: miter"> <path d="M323.43127,1092.3633L260.72067,1092.6501C259.38873,1092.6555,258.30405,1091.5806,258.2979,1090.2485L258.2979,1090.2488C258.2918,1088.9165,259.36694,1087.832,260.69867,1087.8262L323.4091,1087.5398C324.74124,1087.5332,325.82578,1088.6079,325.83194,1089.9395L325.83194,1089.94C325.83813,1091.2722,324.763,1092.3574,323.43127,1092.3633 Z"/> </g> <g style="fill:rgb(86,31,28); fill-opacity:1.0; stroke-linejoin: miter"> <path d="M285.95956,966.18036L291.652,966.1816L297.34448,966.18256Q297.34448,1020.4455,297.34448,1074.7102Q291.652,1074.7104,285.95963,1074.7104Q285.95956,1020.4455,285.95956,966.18036 Z"/> </g> <g style="fill:rgb(86,31,28); fill-opacity:1.0; stroke-linejoin: miter"> <path d="M217.54237,956.76184L291.652,956.76245L365.76154,956.76294Q365.76154,960.1135,365.76154,963.4648Q291.652,963.4649,217.54237,963.46515Q217.54237,960.1133,217.54237,956.76184 Z"/> </g> <g style="fill:rgb(99,112,121); fill-opacity:1.0; stroke-linejoin: miter"> <path d="M363.4625,963.1481L363.4625,963.1493L363.4625,963.1483C363.47235,963.32404,363.4488,963.5,363.39288,963.6674L363.39288,963.6684L345.126,1018.4677C344.88196,1019.20026,344.0902,1019.59625,343.35794,1019.35236C342.62567,1019.1076,342.2299,1018.3162,342.47406,1017.5837L342.47406,1017.58453L360.741,962.78345L360.67126,963.30237L360.67126,963.30334C360.62866,962.5314,361.21918,961.87213,361.99,961.82965C362.76068,961.7872,363.42004,962.3777,363.4625,963.1481 Z"/> </g> <g style="fill:rgb(99,112,121); fill-opacity:1.0; stroke-linejoin: miter"> <path d="M363.4625,963.1481L363.4625,963.1493L363.4625,963.1483C363.46402,963.17377,363.46475,963.1998,363.46475,963.2254L363.46475,963.2266L363.46475,1018.02594C363.46475,1018.7979,362.83893,1019.42365,362.06696,1019.4235C361.29504,1019.4235,360.66922,1018.7979,360.66922,1018.02594L360.66922,1018.0267L360.66922,963.2254L360.67126,963.30237L360.67126,963.30334C360.62866,962.5314,361.21918,961.87213,361.99,961.82965C362.76068,961.7872,363.42004,962.3777,363.4625,963.1481 Z"/> </g> <g style="fill:rgb(99,112,121); fill-opacity:1.0; stroke-linejoin: miter"> <path d="M363.4625,963.1481L363.4625,963.1493L363.4625,963.1483L363.39294,962.78345L381.65988,1017.5839C381.904,1018.3162,381.5081,1019.10785,380.77582,1019.35223C380.0436,1019.59625,379.25192,1019.2,379.0078,1018.4682L379.0078,1018.46893L360.741,963.6674C360.70166,963.5492,360.67828,963.4268,360.67126,963.30237L360.67126,963.30334L360.67126,963.30237C360.62866,962.5314,361.21918,961.87213,361.99,961.82965C362.76068,961.7872,363.42004,962.3777,363.4625,963.1481 Z"/> </g> <g style="fill:rgb(252,184,38); fill-opacity:1.0; stroke-linejoin: miter"> <path d="M395.05072,1018.94366L329.08304,1018.94403Q332.14755,1030.4202,342.05356,1038.1396Q351.61603,1044.5928,362.18988,1044.5137Q373.93265,1044.5271,383.05872,1037.2773Q391.76007,1030.824,395.05072,1018.94366 Z"/> </g> <g style="fill:rgb(86,31,28); fill-opacity:1.0; stroke-linejoin: miter"> <path d="M312.23456,968.81415L312.0467,971.60693Q310.71088,980.04706,304.22928,985.1078Q297.703,990.164,288.85898,989.2087Q280.41846,987.8726,275.35806,981.3912Q273.7366,979.29645,272.68692,976.8255L271.80472,974.28564Q271.07758,971.66406,271.06937,968.81415Q271.29004,960.0674,277.09787,954.26Q282.90567,948.452,291.65195,948.231Q300.39832,948.452,306.20602,954.2599Q312.0137,960.0674,312.23456,968.81415 Z"/> </g> <g style="fill:rgb(99,112,121); fill-opacity:1.0; stroke-linejoin: miter"> <path d="M221.95529,962.07104L221.95529,962.0721L221.95529,962.0715C221.96503,962.24725,221.94128,962.4232,221.88564,962.5905L221.88564,962.5914L203.61882,1017.3907C203.37465,1018.12335,202.58301,1018.5195,201.85062,1018.2753C201.11835,1018.03107,200.72269,1017.2398,200.96667,1016.5074L200.96667,1016.50836L219.23367,961.70654L219.16402,962.2255L219.16402,962.22534C219.12144,961.45435,219.71178,960.7951,220.48271,960.75287C221.25346,960.71,221.91272,961.30066,221.95529,962.07104 Z"/> </g> <g style="fill:rgb(99,112,121); fill-opacity:1.0; stroke-linejoin: miter"> <path d="M221.95529,962.07104L221.95529,962.0721L221.95529,962.0715C221.95676,962.0971,221.95741,962.1231,221.95741,962.1484L221.95741,962.1492L221.95741,1016.9493C221.95741,1017.7211,221.33159,1018.34674,220.55956,1018.34674C219.78758,1018.34674,219.16188,1017.7211,219.16188,1016.9493L219.16188,1016.95026L219.16194,962.14856L219.16402,962.2255L219.16402,962.22534C219.12144,961.45435,219.71178,960.7951,220.48271,960.75287C221.25346,960.71,221.91272,961.30066,221.95529,962.07104 Z"/> </g> <g style="fill:rgb(99,112,121); fill-opacity:1.0; stroke-linejoin: miter"> <path d="M221.95529,962.07104L221.95529,962.0721L221.95529,962.0715L221.88564,961.70654L240.15256,1016.50714C240.39667,1017.23956,240.00095,1018.03107,239.26862,1018.2753C238.53635,1018.5195,237.7446,1018.12335,237.50055,1017.3912L237.50055,1017.39215L219.23355,962.5905C219.19427,962.4724,219.1709,962.3498,219.16402,962.2255L219.16402,962.2265L219.16402,962.22534C219.12144,961.45435,219.71178,960.7951,220.48271,960.75287C221.25346,960.71,221.91272,961.30066,221.95529,962.07104 Z"/> </g> <g style="fill:rgb(252,184,38); fill-opacity:1.0; stroke-linejoin: miter"> <path d="M253.54352,1017.867L187.57578,1017.8676Q190.6404,1029.3433,200.54628,1037.063Q210.10858,1043.5161,220.68256,1043.437Q232.42526,1043.45,241.55153,1036.2007Q250.25313,1029.7471,253.54352,1017.867 Z"/> </g> <g style="fill:rgb(90,73,57); fill-opacity:1.0; stroke-linejoin: miter"> <path d="M306.97314,968.78723L306.83328,970.8665Q306.3912,973.6593,305.1925,975.955L304.54587,977.07184Q303.8519,978.1579,302.96893,979.1187Q302.0857,980.08044,301.01337,980.91766Q298.854,982.5908,296.3538,983.37964Q295.1037,983.77405,293.76837,983.9477Q293.154,984.1723,289.57065,983.9705Q288.17438,983.7496,286.9022,983.33966Q283.83072,982.1485,283.3655,981.6836Q281.19403,980.2954,279.5196,978.15106Q275.78137,972.96295,276.41473,967.3675Q276.6932,964.58154,277.79318,962.2277Q278.34326,961.0506,279.09866,959.9821Q279.36014,959.3682,281.80276,957.0429Q285.86218,953.6104,291.65,953.4638Q294.54388,953.53723,297.00574,954.43195Q298.2367,954.8795,299.35953,955.53186Q299.98846,955.7298,302.48508,957.9524Q304.7074,960.44867,304.90536,961.0779Q305.5581,962.2008,306.00534,963.4317Q306.90005,965.8934,306.97314,968.78723 Z"/> </g> <g style="fill:rgb(255,255,255); fill-opacity:0.10980392; stroke-linejoin: miter"> <path d="M357.6936,1031.8855L357.62488,1032.907Q357.4078,1034.2783,356.81912,1035.4058Q356.52475,1035.9697,356.1374,1036.4724Q355.08798,1037.6763,354.7666,1037.8433Q353.7061,1038.665,352.47806,1039.0525Q351.86423,1039.2466,351.2082,1039.3315Q350.9066,1039.4419,349.1466,1039.343Q347.77493,1039.126,346.6475,1038.5371Q346.08377,1038.2427,345.58093,1037.8555Q344.37762,1036.8059,344.2101,1036.4846Q342.37408,1033.9363,342.68524,1031.188Q342.822,1029.8201,343.3622,1028.6641Q343.63232,1028.0862,344.0034,1027.561Q344.1318,1027.2595,345.33145,1026.1177Q347.3252,1024.4319,350.16788,1024.3599Q351.58917,1024.3958,352.79816,1024.8352Q354.26312,1025.4727,354.49243,1025.7214Q355.0175,1026.092,355.48944,1026.5642Q355.96127,1027.0361,356.3322,1027.561Q357.17142,1028.9194,357.2183,1029.2551Q357.65768,1030.4641,357.6936,1031.8855 Z"/> </g> <g style="fill:rgb(255,255,255); fill-opacity:0.10980392; stroke-linejoin: miter"> <path d="M213.9076,1029.8042L213.8389,1030.8254Q213.34538,1033.8755,211.06102,1035.7117Q208.6234,1037.6172,205.36058,1037.2615Q202.5187,1036.8562,200.5497,1034.582Q198.72932,1032.0488,198.85658,1029.7151Q198.96143,1026.5754,201.0652,1024.502Q203.24715,1022.3223,206.38177,1022.27826Q207.50952,1022.264,209.0123,1022.7536Q210.36267,1023.35504,210.54352,1023.5101Q211.20174,1023.98224,211.70335,1024.4829Q212.55453,1025.2307,213.37236,1026.9741Q213.84639,1028.1919,213.9076,1029.8042 Z"/> </g> </g> <g style="fill:rgb(255,255,255); fill-opacity:1.0; stroke-linejoin: miter"> <path d="M664.73584,1039.1409Q670.58374,1057.5662,669.90295,1066.6631Q668.9751,1076.3247,661.6771,1079.0737Q658.0928,1080.2339,654.54626,1078.2727Q651.3198,1076.5908,646.2888,1070.6438L653.511,1042.7292L664.70764,1039.1494 Z"/> </g> <g style="fill:rgb(86,31,28); fill-opacity:1.0; stroke-linejoin: miter"> <path d="M695.23035,992.616L695.2301,992.61664C697.4332,993.5075,699.9418,992.4445,700.8334,990.24164L708.90515,970.29803C709.79663,968.09564,708.7335,965.587,706.53076,964.6951L706.5305,964.69574C704.32764,963.8031,701.81934,964.86664,700.9276,967.06903L692.8561,987.0128C691.9645,989.2159,693.0276,991.72455,695.23035,992.616 Z"/> </g> <g style="fill:rgb(255,178,152); fill-opacity:1.0; stroke-linejoin: miter"> <path d="M654.213,1050.9036L668.4579,1052.7659L677.2949,1047.5957L689.3524,1038.5193L701.6522,1022.38446C702.5425,1021.22736,703.374,1020.231,704.1643,1019.4111C706.1792,1017.3199,708.1183,1016.44696,709.9558,1016.8178C712.3977,1017.3105,713.282,1018.8747,712.3816,1021.387C711.4164,1024.0793,708.286,1028.2688,703.2234,1034.0425C714.0093,1034.0281,720.42773,1034.604,722.6509,1035.2639C725.57275,1036.1318,727.3071,1037.8684,727.71655,1040.9917L721.0945,1049.5818C721.82935,1052.9761,721.8937,1055.3191,721.12805,1056.5137C720.5145,1057.4702,719.11414,1058.0203,717.08057,1058.2681C716.88245,1061.1323,716.27,1063.0583,715.1398,1063.9158C714.2134,1064.6189,712.6018,1064.864,710.40186,1064.7859C709.73804,1067.9023,708.64355,1069.7351,707.2086,1070.471C703.4061,1072.4211,700.3684,1071.1064,697.99915,1066.344C696.0582,1068.9397,693.94556,1071.2637,691.6117,1073.2583C690.0596,1074.5847,688.2517,1075.5276,686.23645,1076.1428C682.28394,1077.3501,676.5574,1076.5173,669.02,1073.742C666.0375,1072.6438,658.0614,1073.4978,652.28784,1070.9873L654.213,1050.9036 Z"/> </g> <g style="fill:rgb(86,31,28); fill-opacity:1.0; stroke-linejoin: miter"> <path d="M750.4033,1009.0965L753.89294,1000.49567L757.3822,991.8947Q729.3856,980.53564,701.3894,969.17694Q697.8998,977.7776,694.41064,986.37885Q722.4064,997.7376,750.4033,1009.0965 Z"/> </g> <g style="fill:rgb(86,31,28); fill-opacity:1.0; stroke-linejoin: miter"> <path d="M714.36646,1002.6822L726.3324,1007.5252C727.4337,1007.97125,728.68835,1007.4395,729.1339,1006.3381L732.3627,998.3609L716.4076,991.9034L713.1793,999.8807C712.73376,1000.9821,713.2649,1002.23615,714.36646,1002.6822 Z"/> </g> <g style="fill:rgb(236,154,94); fill-opacity:1.0; stroke-linejoin: miter"> <path d="M732.7428,1003.1567L732.7423,1003.15765C733.84436,1003.60223,735.09863,1003.071,735.5443,1001.9694L742.00195,986.01483C742.4479,984.9132,741.91614,983.659,740.8147,983.213L740.81445,983.21387C739.71326,982.7674,738.45874,983.29877,738.0132,984.40027L731.55566,1000.35516C731.1101,1001.4567,731.6417,1002.71136,732.7428,1003.1567 Z"/> </g> <g style="fill:rgb(236,154,94); fill-opacity:1.0; stroke-linejoin: miter"> <path d="M712.7993,995.08453L712.7992,995.08514C713.9009,995.5301,715.15515,994.99835,715.6006,993.8969L722.0585,977.9427C722.5043,976.8413,721.9729,975.58685,720.8712,975.14136L720.87146,975.14197C719.7698,974.69507,718.5155,975.22687,718.0697,976.3285L711.61206,992.2828C711.16614,993.3848,711.69763,994.6391,712.7993,995.08453 Z"/> </g> <g style="fill:rgb(86,31,28); fill-opacity:1.0; stroke-linejoin: miter"> <path d="M747.0835,1013.6031L747.0834,1013.60406C749.2859,1014.49445,751.7948,1013.43134,752.6863,1011.2288L760.75854,991.2856C761.6499,989.0826,760.5868,986.5739,758.38403,985.6821L758.3843,985.68274C756.181,984.79034,753.6726,985.8538,752.78076,988.05634L744.7092,1008.00006C743.81775,1010.2027,744.8806,1012.7115,747.0835,1013.6031 Z"/> </g> <g style="fill:rgb(90,73,57); fill-opacity:1.0; stroke-linejoin: miter"> <path d="M742.7147,1007.1927L742.71497,1007.1934C743.81616,1007.6386,745.07056,1007.107,745.51624,1006.0058L751.97375,990.05035C752.41956,988.9495,751.8878,987.69464,750.78674,987.24896L750.7865,987.2493C749.6854,986.8036,748.43054,987.33466,747.9852,988.43634L741.5272,1004.3914C741.0818,1005.4926,741.61316,1006.74677,742.7147,1007.1927 Z"/> </g> <g style="fill:rgb(90,73,57); fill-opacity:1.0; stroke-linejoin: miter"> <path d="M702.82764,991.04913L702.8279,991.0495C703.92896,991.4948,705.1835,990.9632,705.6289,989.86176L712.0864,973.907C712.5327,972.80585,712.001,971.55115,710.8993,971.1056L710.8994,971.1062C709.79785,970.65985,708.5438,971.1913,708.09814,972.29266L701.6405,988.24756C701.1948,989.3488,701.72644,990.6031,702.82764,991.04913 Z"/> </g> <g style="fill:rgb(236,154,94); fill-opacity:1.0; stroke-linejoin: miter"> <path d="M748.62305,1048.2654L729.42834,1044.1772L710.23364,1040.0894L748.62305,1048.2654 Z"/> </g> <g style="fill:rgb(86,31,28); fill-opacity:1.0; stroke-linejoin: miter"> <path d="M699.3856,1074.103C698.74963,1075.6758,697.56995,1076.9924,696.0265,1077.6963C694.03125,1078.6055,691.7505,1078.4597,689.84155,1077.2527C689.08777,1076.7761,688.44214,1076.1377,687.9564,1075.3892C686.7687,1073.5566,686.5681,1071.3623,687.36145,1069.4045L715.1732,1000.6884L727.13916,1005.53156L699.3856,1074.103 Z"/> </g> <g style="fill:rgb(60,70,79); fill-opacity:1.0; stroke-linejoin: miter"> <path d="M777.87,969.6128L709.3887,1014.2574L640.9072,1058.9026L777.87,969.6128 Z"/> </g> <g style="fill:rgb(0,0,0); fill-opacity:1.0; stroke-linejoin: miter"> <path d="M549.0066,789.7754Q557.93054,790.7655,567.8541,797.1033Q577.69995,803.20386,580.6958,810.12463Q583.3126,815.6522,583.35754,827.8493Q583.1681,851.9087,581.32104,861.83655L521.0149,868.47723Q509.0972,864.4069,508.42078,859.1694Q508.10623,857.9347,507.96695,856.01697L507.5427,846.9421Q505.99588,830.8291,506.08807,827.4603Q505.9387,819.324,507.7358,814.3436Q510.67184,804.7656,526.1704,795.73785Q538.47144,788.27954,548.99854,789.7751 Z"/> </g> <g style="fill:rgb(255,184,155); fill-opacity:1.0; stroke-linejoin: miter"> <path d="M535.55457,809.13916L535.55457,809.14014L550.52527,812.55646C552.16296,812.88586,555.9822,813.0207,561.9833,812.961L564.70605,813.31134C566.96594,813.77075,569.224,814.9753,571.4855,816.91864C574.94055,819.8877,576.9972,824.1911,577.9364,829.78955C578.6,833.7443,578.39014,842.4102,577.0917,855.8454C577.06604,856.1098,577.28015,855.9791,577.5105,855.3828C578.9254,851.721,579.81384,849.5108,580.2285,848.7518C580.77,847.7604,581.2612,847.0202,581.896,846.8021C583.45764,846.2656,584.865,848.2469,585.651,852.60187C586.3445,856.4443,585.8727,860.1299,584.56396,863.56714C584.1216,864.72906,583.5183,865.5886,582.9464,866.2803C582.6627,866.62335,581.5802,867.46985,579.6946,868.8973C579.2395,869.24176,579.0055,869.673,578.8522,870.02814C578.77576,869.645,578.1489,871.9655,576.9717,876.98975L575.5498,881.0418C575.0204,882.3622,574.46484,883.4964,573.9662,884.48737C573.7019,885.0126,572.95557,886.1666,571.6426,887.9098L571.0615,889.32416C570.43225,890.84973,570.39087,895.96075,570.9376,904.6571L555.86316,935.4822C524.79626,904.3831,520.45276,900.43146,520.45276,900.43146C518.50696,898.66125,517.1377,897.46497,516.4674,896.70465C517.0913,893.12256,517.4297,889.8482,517.4828,886.88135C517.63855,886.7548,516.99536,885.2467,515.6521,882.3111C515.4147,881.79224,515.3428,881.218,515.2103,880.6553C515.072,880.06775,515.21704,878.2679,515.5631,875.1968C515.6387,874.5265,515.47,874.04083,515.33997,873.7182C515.1731,873.3041,514.7682,872.8977,514.0471,872.5277L509.243,870.714C508.68436,870.4181,508.11954,869.89404,507.5942,869.1105C507.0528,868.303,506.61838,867.24713,506.21118,865.984C504.07822,859.3675,503.12598,855.75507,503.04333,855.1501C502.72586,852.8261,502.77933,851.0238,503.59714,849.72217C504.67712,848.00323,506.00818,847.31213,507.50647,847.728C508.2688,847.93964,508.9392,848.7725,509.73798,849.99976C510.0408,850.4651,511.18536,853.1645,513.19055,858.15283C513.5325,859.00354,513.8269,859.2064,513.9253,858.85754C514.0532,858.4043,514.1393,857.34644,513.99365,855.6818C512.8602,842.7213,512.46277,835.1911,512.56494,833.0483C512.79114,828.3073,513.26917,824.25916,514.81335,821.11615C519.2605,812.06396,526.28064,808.1374,535.4509,809.1246L535.55457,809.13916 Z"/> </g> <g style="fill:rgb(250,84,34); fill-opacity:0.15294118; stroke-linejoin: miter"> <path d="M571.3231,889.1173L549.4164,916.3877L521.35266,890.1996Q531.26587,899.11017,536.50354,902.0636Q542.60034,905.6089,547.5952,905.4891Q557.75366,905.29065,571.28125,889.16656 Z"/> </g> <g style="fill:rgb(255,169,136); fill-opacity:1.0; stroke-linejoin: miter"> <path d="M557.7079,880.1414L557.046,880.21265Q552.1926,880.7223,549.8578,881.16595Q547.885,881.5379,545.2811,882.3396Q544.5221,882.01996,542.8634,881.6009Q541.9247,881.3877,541.03076,881.3044Q538.34094,881.0537,533.6924,881.09515Q536.62805,884.471,539.6426,885.62964Q542.96045,886.86096,547.7234,886.4039Q551.03796,886.01685,552.94006,884.87646Q553.79553,884.3611,554.6914,883.533Q557.61145,880.1052,557.7079,880.1414 Z"/> </g> <g style="fill:rgb(255,255,255); fill-opacity:0.99607843; stroke-linejoin: miter"> <path d="M536.2268,849.6999L536.2268,849.7005Q534.38477,848.66205,533.2814,848.2977Q532.8413,848.14655,532.3833,848.0453L531.9188,847.9595L531.44214,847.9044L530.95325,847.8831L530.4507,847.8987L529.9348,847.9473L529.4071,848.0276Q528.8734,848.1228,528.32104,848.2678Q526.94507,848.6173,524.32227,849.6284L536.2268,849.6999 Z"/> </g> <g style="fill:rgb(0,0,0); fill-opacity:0.99607843; stroke-linejoin: miter"> <path d="M527.7147,848.42694L527.6892,848.4598Q527.51013,848.6648,527.51636,848.895Q527.51306,849.0936,527.7615,849.6656L532.88403,849.8261Q533.1771,848.747,532.9812,848.49475Q532.92444,848.3546,532.7742,848.14075Q532.4385,848.0327,532.09326,847.9394Q531.14014,847.6897,530.3679,847.78394Q530.14966,847.80646,529.9203,847.8472Q529.81116,847.8591,529.2113,848.00024Q528.479,848.1891,527.7147,848.42694 Z"/> </g> <g style="fill:rgb(0,0,0); fill-opacity:0.99607843; stroke-linejoin: miter"> <path d="M539.71326,879.1982L539.7134,879.19904L539.71326,879.1985L539.71326,879.1982 Z"/> </g> <g style="fill:rgb(255,255,255); fill-opacity:0.99607843; stroke-linejoin: miter"> <path d="M553.8351,849.57666L553.8351,849.57697Q555.6687,848.52466,556.77,848.1518Q557.20825,847.99725,557.6658,847.8922L558.1299,847.80273L558.60547,847.7444L559.09436,847.7192L559.59753,847.7307L560.1135,847.7754L560.64197,847.85175Q561.176,847.94305,561.72986,848.0838Q563.1084,848.423,565.7389,849.4137L553.8351,849.57666 Z"/> </g> <g style="fill:rgb(0,0,0); fill-opacity:0.99607843; stroke-linejoin: miter"> <path d="M562.33704,848.23865L562.36304,848.2715Q562.5436,848.4747,562.5392,848.70526Q562.5437,848.9035,562.2998,849.477L557.1787,849.67676Q556.8773,848.60004,557.07117,848.34674Q557.1267,848.20624,557.27515,847.99023Q557.6106,847.8806,557.9551,847.7839Q558.9061,847.5272,559.67957,847.6157Q559.89734,847.6367,560.12744,847.6756Q560.23645,847.6866,560.83704,847.8229Q561.57104,848.0066,562.33704,848.23865 Z"/> </g> <g style="fill:rgb(0,0,0); fill-opacity:1.0; stroke-linejoin: miter"> <path d="M518.42676,846.07404L518.42676,846.07556C518.2063,849.3415,517.9663,852.7728,518.99036,855.91144L518.99036,855.912C520.0226,859.07416,522.33826,861.9518,526.18835,863.1608L526.18835,863.16174C528.55994,863.905,531.5022,864.01025,534.1162,863.287L534.1162,863.2879C535.6957,862.8493,537.183,862.1008,538.3489,860.979L538.3489,860.9793C541.3987,858.0438,542.0404,852.7077,542.66675,847.7588C542.7013,847.4835,542.5625,847.2153,542.3176,847.0847L542.3176,847.08563C539.02673,845.33344,535.58923,843.49316,531.59607,843.23004L531.59607,843.23126C528.422,843.0211,524.94836,843.8104,521.5033,844.7643L521.5033,844.7644C520.621,845.0081,519.73804,845.2642,518.85657,845.5194C518.5021,845.6222,518.298,845.9933,518.40076,846.3478C518.50354,846.7024,518.87415,846.9065,519.229,846.80365L519.229,846.8049C520.11194,846.5479,520.9868,846.29425,521.85986,846.0525L521.85986,846.05365C525.30164,845.0994,528.5813,844.3713,531.5083,844.56415L531.5083,844.5647C535.1681,844.80536,538.35547,846.49036,541.68945,848.2645L541.3401,847.5909C540.6902,852.73016,540.0552,857.482,537.4221,860.01575L537.4221,860.01605C536.45056,860.9507,535.1763,861.60583,533.7593,861.998L533.7593,861.9986C531.4016,862.6516,528.7219,862.5552,526.58887,861.88556L526.58887,861.88617C523.21826,860.8269,521.18274,858.321,520.261,855.4969L520.261,855.4981C519.33167,852.64874,519.53613,849.48785,519.76074,846.16437C519.78564,845.79565,519.50696,845.4772,519.1384,845.4525C518.77014,845.42725,518.45166,845.7059,518.42676,846.07404 Z"/> </g> <g style="fill:rgb(0,0,0); fill-opacity:1.0; stroke-linejoin: miter"> <path d="M549.35205,847.152L549.35205,847.1522C549.54736,850.4208,549.7439,853.85474,551.15735,856.8385L551.1571,856.8388C552.5818,859.8455,555.24365,862.4065,559.21594,863.118L559.21594,863.1183C561.6626,863.5563,564.59424,863.287,567.09534,862.2383L567.09534,862.2398C568.6073,861.6042,569.9874,860.67426,571.00195,859.4135L571.00195,859.4137C573.65564,856.1159,573.61584,850.7411,573.61035,845.7525C573.60986,845.4748,573.438,845.2266,573.17834,845.1281L573.17834,845.12836C569.69226,843.808,566.0492,842.4183,562.05493,842.6628L562.05493,842.66296C558.8805,842.8577,555.53455,844.0802,552.23816,845.4623L552.23816,845.4626C551.3937,845.817,550.55054,846.18256,549.7085,846.54785C549.36975,846.6948,549.21436,847.0884,549.3611,847.4272C549.50806,847.76575,549.9016,847.92114,550.24,847.7745L550.24023,847.77545C551.08374,847.4087,551.9193,847.0458,552.7551,846.6954L552.7551,846.6963C556.0481,845.31445,559.2097,844.1767,562.1367,843.99725L562.1367,843.9985C565.798,843.77295,569.17285,845.041,572.70496,846.3784L572.2733,845.75397C572.2793,850.93445,572.25146,855.72815,569.9607,858.57495L569.9607,858.5762C569.115,859.6256,567.93445,860.43677,566.5781,861.00586L566.5785,861.00616C564.3224,861.9517,561.65247,862.1958,559.45154,861.8022L559.45154,861.8023C555.97424,861.17926,553.63745,858.9513,552.3655,856.2661L552.3655,856.26733C551.08276,853.5585,550.8854,850.3983,550.6865,847.07227C550.6648,846.7042,550.348,846.42285,549.9795,846.44476C549.6113,846.4673,549.3302,846.78357,549.35205,847.152 Z"/> </g> <g style="fill:rgb(0,0,0); fill-opacity:0.99607843; stroke-linejoin: miter"> <path d="M550.4634,846.96515L550.06555,846.9378Q547.46704,846.7377,545.8248,846.82367Q544.354,846.88434,541.7202,847.447L541.7444,849.966Q543.4424,849.5859,544.3644,849.4344Q545.6511,849.23364,546.17676,849.22Q546.7146,849.1728,547.90906,849.23157Q548.75977,849.28204,550.25146,849.48004L550.4634,846.96515 Z"/> </g> <g style="fill:rgb(0,0,0); fill-opacity:0.99607843; stroke-linejoin: miter"> <path d="M538.4468,843.923L537.8933,843.6848Q536.23413,842.9475,534.56836,842.42523Q534.01306,842.25946,533.4557,842.14087L532.8987,842.0378Q532.34045,841.9477,531.7809,841.92395L531.22046,841.9183L530.6594,841.945L530.09717,842.00183Q529.53467,842.0742,528.97046,842.1941Q527.56067,842.4815,525.01196,843.36694L538.4468,843.923 Z"/> </g> <g style="fill:rgb(0,0,0); fill-opacity:0.99607843; stroke-linejoin: miter"> <path d="M540.7864,859.5252L540.78674,859.5258L540.78674,859.52545L540.7864,859.5252 Z"/> </g> <g style="fill:rgb(0,0,0); fill-opacity:0.99607843; stroke-linejoin: miter"> <path d="M567.3268,842.51526L566.7528,842.33307Q564.7112,841.67303,563.1937,841.38226Q562.4668,841.2424,561.62036,841.1846Q561.18115,841.1508,560.4968,841.1806L559.93896,841.22986L559.3833,841.31195Q558.6122,841.4464,557.72656,841.72534Q557.3279,841.82794,555.86743,842.4153Q554.9912,842.7781,553.9027,843.2811L567.3268,842.51526 Z"/> </g> <g style="fill:rgb(255,12,0); fill-opacity:0.105882354; stroke-linejoin: miter"> <path d="M534.9429,865.3627L534.5543,865.9185Q532.7721,868.5148,531.2805,870.32996Q530.7943,870.8844,530.46765,871.2171L528.86694,872.5832Q528.6437,872.8335,528.51416,873.04675Q528.22034,873.711,528.2113,874.6098Q528.17957,875.55194,528.3756,877.66486Q528.401,875.5327,528.5072,874.594Q528.59106,873.69763,528.88025,873.0638Q529.00146,872.86304,529.2012,872.63214Q530.3932,871.5985,530.62634,871.34125Q530.8584,871.0878,531.0913,870.8071L531.60095,870.1846Q532.55347,868.96185,534.9429,865.3627 Z"/> </g> <g style="fill:rgb(255,12,0); fill-opacity:0.105882354; stroke-linejoin: miter"> <path d="M557.724,865.5921L558.03735,866.1931Q559.46875,868.9978,560.71265,870.9913Q561.1233,871.6038,561.4044,871.97614L562.8146,873.53766Q563.0034,873.81506,563.1044,874.04315Q563.3097,874.74,563.2025,875.6318Q563.1128,876.5699,562.64404,878.6396Q562.89514,876.5227,562.91125,875.57825Q562.94385,874.6786,562.7394,874.0124Q562.645,873.7977,562.47705,873.54315Q561.42834,872.36395,561.23047,872.0786Q561.03345,871.7973,560.8391,871.4889L560.4138,870.8054Q559.62805,869.4701,557.724,865.5921 Z"/> </g> <g style="fill:rgb(0,0,0); fill-opacity:0.99607843; stroke-linejoin: miter"> <path d="M570.13184,844.6164L569.01746,844.1638L582.4927,844.4687L582.6118,846.9418Q576.7588,847.62885,575.3495,848.15894Q574.96497,848.2873,574.68054,848.4288L574.41675,848.57166Q574.1759,848.7183,574.0078,848.8735Q573.5697,849.2595,573.3429,850.02356L573.4668,846.0895L570.13184,844.6164 Z"/> </g> <g style="fill:rgb(0,0,0); fill-opacity:0.99607843; stroke-linejoin: miter"> <path d="M521.98816,845.2846L523.1024,844.8324L509.62708,845.1368L509.50803,847.61005Q515.36084,848.29767,516.77026,848.82745Q517.1549,848.9558,517.43933,849.097L517.703,849.24023Q517.9441,849.38684,518.11194,849.542Q518.5499,849.9277,518.77686,850.6914L518.6532,846.75806L521.98816,845.2846 Z"/> </g> <g style="fill:rgb(255,169,136); fill-opacity:1.0; stroke-linejoin: miter"> <path d="M538.76575,871.83673L542.39514,875.11884L546.02454,878.40094Q549.4866,874.90784,552.9485,871.41473Q549.3766,873.4724,545.80457,875.53L538.76575,871.83673"/> </g> <g style="fill:rgb(217,130,61); fill-opacity:1.0; stroke-linejoin: miter"> <path d="M186.58617,1099.6602L574.4077,1099.6606L962.229,1099.6611Q962.229,1311.8438,962.2291,1524.0264Q574.40784,1524.0269,186.58627,1524.0273Q186.58617,1311.8438,186.58617,1099.6602"/> </g> <g style="fill:rgb(243,167,82); fill-opacity:1.0; stroke-linejoin: miter"> <path d="M872.7904,1155.5625L900.7976,1155.563L928.80493,1155.5637Q928.8048,1320.4414,928.8048,1485.3191Q900.7976,1485.3198,872.7903,1485.3203Q872.7904,1320.4414,872.7904,1155.5625"/> </g> <g style="fill:rgb(243,167,82); fill-opacity:1.0; stroke-linejoin: miter"> <path d="M214.94264,1155.5623L270.95712,1155.5635L270.957,1485.3191L214.94252,1485.3203L214.94264,1155.5623"/> </g> <g style="fill:rgb(198,124,57); fill-opacity:1.0; stroke-linejoin: miter"> <path d="M834.5205,1105.9939L837.6726,1105.9941L840.8247,1105.9944Q840.8248,1306.2107,840.8248,1506.4272Q837.6727,1506.4275,834.5205,1506.4277Q834.5205,1306.2107,834.5205,1105.9939"/> </g> <g style="fill:rgb(198,124,57); fill-opacity:1.0; stroke-linejoin: miter"> <path d="M317.29852,1108.2837L323.60278,1108.2842L323.60294,1508.7168L317.29852,1508.7173L317.29852,1108.2837"/> </g> <g style="fill:rgb(220,158,69); fill-opacity:1.0; stroke-linejoin: miter"> <path d="M120.00507,1087.2007L578.69604,1087.2012L1037.387,1087.2021Q1037.387,1103.0657,1037.387,1118.929Q578.69604,1118.9302,120.00507,1118.9309Q120.00507,1103.0659,120.00507,1087.2007 Z"/> </g> <g style="fill:rgb(220,158,69); fill-opacity:1.0; stroke-linejoin: miter"> <path d="M120.00507,1502.6887L578.69604,1502.6892L1037.387,1502.69Q1037.387,1518.5535,1037.387,1534.417Q578.69604,1534.418,120.00507,1534.4187Q120.00507,1518.554,120.00507,1502.6887 Z"/> </g> <g style="fill:rgb(198,124,57); fill-opacity:1.0; stroke-linejoin: miter"> <path d="M747.7825,1306.6565L746.2388,1328.3696Q743.8003,1342.9517,739.2743,1356.2361Q726.1328,1388.3113,720.99963,1393.1692Q705.6854,1415.8452,682.02136,1433.3303Q670.10754,1442.0662,657.2534,1448.4934Q624.2954,1462.5425,616.5757,1462.5825Q588.04675,1468.513,555.75684,1465.2109Q524.94055,1460.5952,499.6085,1448.0779Q486.9425,1441.8191,475.6477,1433.5845Q469.14334,1430.7021,444.84842,1404.437Q403.59753,1350.2568,410.58746,1291.8284Q413.65982,1262.7361,425.7982,1238.1562Q431.86737,1225.8662,440.20312,1214.7043Q443.08865,1208.2913,470.0412,1184.0115Q514.8342,1148.1667,578.7003,1146.6416Q587.4286,1145.4917,623.9176,1152.6116Q638.09595,1156.2104,651.0823,1161.9541Q677.05493,1173.4414,698.2594,1193.509Q719.46387,1213.5762,731.6022,1238.1558Q744.7919,1269.8679,744.70996,1277.564Q747.3794,1291.5464,747.7825,1306.6565"/> </g> <g style="fill:rgb(243,167,82); fill-opacity:1.0; stroke-linejoin: miter"> <path d="M735.86316,1306.6252L734.42847,1326.8083Q724.22815,1387.803,674.7363,1424.3728Q624.90186,1460.9128,557.3695,1454.0066Q492.91855,1444.3533,454.2767,1397.5154Q441.89545,1382.3755,433.8799,1364.5215L427.1431,1346.1663Q421.59137,1327.2212,421.5289,1306.6255Q423.21426,1243.4209,467.56204,1201.4512Q511.90985,1159.4817,578.69604,1157.8867Q645.48206,1159.4814,689.82996,1201.4509Q734.17773,1243.4207,735.86316,1306.6252"/> </g> <g> <g style="fill:rgb(246,210,153); fill-opacity:1.0; stroke-linejoin: miter"> <path d="M609.81104,1374.938L556.74866,1375.1807L556.7156,1367.9448C556.70935,1366.6125,557.78455,1365.5281,559.11633,1365.5217L607.355,1365.3008C608.687,1365.2949,609.772,1366.3696,609.77795,1367.7012L609.81104,1374.938 Z"/> </g> <g style="fill:rgb(246,210,153); fill-opacity:1.0; stroke-linejoin: miter"> <path d="M614.6682,1382.1519L551.95776,1382.438L551.9358,1377.6145C551.9237,1374.9504,554.07324,1372.781,556.7379,1372.7678L609.8002,1372.5261C612.4647,1372.5132,614.63416,1374.6626,614.64624,1377.3274L614.6686,1382.1519 Z"/> </g> <g style="fill:rgb(246,210,153); fill-opacity:1.0; stroke-linejoin: miter"> <path d="M614.6792,1384.5637L551.96875,1384.8506C550.63684,1384.856,549.5521,1383.781,549.5459,1382.4487L549.5459,1382.4492C549.5398,1381.1167,550.615,1380.0325,551.94666,1380.0264L614.6571,1379.7402C615.98926,1379.7336,617.07385,1380.8083,617.07996,1382.1399L617.07996,1382.1404C617.08606,1383.4724,616.011,1384.5576,614.6792,1384.5637 Z"/> </g> <g style="fill:rgb(246,210,153); fill-opacity:1.0; stroke-linejoin: miter"> <path d="M577.2075,1258.3809L582.9,1258.3821L588.5924,1258.383Q588.5924,1312.646,588.5924,1366.9104Q582.9,1366.9106,577.20764,1366.9109Q577.2075,1312.646,577.2075,1258.3809 Z"/> </g> <g style="fill:rgb(246,210,153); fill-opacity:1.0; stroke-linejoin: miter"> <path d="M508.79034,1248.9624L582.9,1248.9629L657.0095,1248.9634Q657.0095,1252.314,657.0095,1255.6653Q582.9,1255.6653,508.79034,1255.6655Q508.79034,1252.3137,508.79034,1248.9624 Z"/> </g> <g style="fill:rgb(246,210,153); fill-opacity:1.0; stroke-linejoin: miter"> <path d="M654.7106,1255.3486L654.7106,1255.3499L654.7106,1255.3489C654.72034,1255.5244,654.6968,1255.7004,654.64087,1255.8679L654.64087,1255.8689L636.374,1310.6682C636.13,1311.4006,635.33826,1311.7966,634.60596,1311.5527C633.87366,1311.3081,633.4779,1310.5166,633.72205,1309.7842L633.72205,1309.7849L651.989,1254.9839L651.9193,1255.5029L651.9193,1255.5039C651.8767,1254.7319,652.46716,1254.0725,653.2379,1254.03C654.00867,1253.9875,654.6681,1254.5781,654.7106,1255.3486 Z"/> </g> <g style="fill:rgb(246,210,153); fill-opacity:1.0; stroke-linejoin: miter"> <path d="M654.7106,1255.3486L654.7106,1255.3499L654.7106,1255.3489C654.71204,1255.3743,654.71277,1255.4004,654.71277,1255.4258L654.71277,1255.427L654.71277,1310.2263C654.71277,1310.9985,654.0869,1311.6243,653.31494,1311.624C652.5431,1311.624,651.91724,1310.9985,651.91724,1310.2263L651.91724,1310.2273L651.91724,1255.4258L651.9193,1255.5029L651.9193,1255.5039C651.8767,1254.7319,652.46716,1254.0725,653.2379,1254.03C654.00867,1253.9875,654.6681,1254.5781,654.7106,1255.3486 Z"/> </g> <g style="fill:rgb(246,210,153); fill-opacity:1.0; stroke-linejoin: miter"> <path d="M654.7106,1255.3486L654.7106,1255.3499L654.7106,1255.3489L654.641,1254.9839L672.90784,1309.7844C673.1521,1310.5166,672.7561,1311.3083,672.0238,1311.5527C671.2916,1311.7966,670.4999,1311.4004,670.25586,1310.6687L670.25586,1310.6694L651.989,1255.8679C651.9496,1255.7498,651.9263,1255.6272,651.9193,1255.5029L651.9193,1255.5039L651.9193,1255.5029C651.8767,1254.7319,652.46716,1254.0725,653.2379,1254.03C654.00867,1253.9875,654.6681,1254.5781,654.7106,1255.3486 Z"/> </g> <g style="fill:rgb(246,210,153); fill-opacity:1.0; stroke-linejoin: miter"> <path d="M686.2987,1311.144L620.33105,1311.1445Q623.3956,1322.6204,633.30164,1330.3401Q642.864,1336.7932,653.43787,1336.7141Q665.18066,1336.7275,674.30676,1329.4775Q683.0082,1323.0244,686.2987,1311.144 Z"/> </g> <g style="fill:rgb(246,210,153); fill-opacity:1.0; stroke-linejoin: miter"> <path d="M603.48254,1261.0146L603.2947,1263.8074Q601.95886,1272.2476,595.4773,1277.3083Q588.9509,1282.3645,580.10706,1281.4092Q571.6665,1280.073,566.6061,1273.5916Q564.9846,1271.4968,563.93494,1269.0259L563.05273,1266.4861Q562.32556,1263.8645,562.3174,1261.0146Q562.5381,1252.2678,568.34595,1246.4604Q574.1537,1240.6526,582.8999,1240.4314Q591.64636,1240.6526,597.4541,1246.4604Q603.2617,1252.2678,603.48254,1261.0146 Z"/> </g> <g style="fill:rgb(246,210,153); fill-opacity:1.0; stroke-linejoin: miter"> <path d="M513.20337,1254.2715L513.20337,1254.2727L513.20337,1254.272C513.213,1254.4478,513.18933,1254.6238,513.13367,1254.791L513.13367,1254.7917L494.8668,1309.5911C494.62262,1310.3237,493.831,1310.72,493.0986,1310.4758C492.36633,1310.2317,491.97067,1309.4402,492.21466,1308.7078L492.21466,1308.7087L510.48166,1253.907L510.412,1254.426L510.412,1254.4258C510.36942,1253.6548,510.95975,1252.9956,511.73068,1252.9534C512.50146,1252.9104,513.16077,1253.5012,513.20337,1254.2715 Z"/> </g> <g style="fill:rgb(246,210,153); fill-opacity:1.0; stroke-linejoin: miter"> <path d="M513.20337,1254.2715L513.20337,1254.2727L513.20337,1254.272C513.20483,1254.2976,513.20544,1254.3237,513.20544,1254.3489L513.20544,1254.3496L513.20544,1309.1499C513.20544,1309.9216,512.5796,1310.5474,511.80753,1310.5474C511.03555,1310.5474,510.40985,1309.9216,510.40985,1309.1499L510.40985,1309.1509L510.4099,1254.3491L510.412,1254.426L510.412,1254.4258C510.36942,1253.6548,510.95975,1252.9956,511.73068,1252.9534C512.50146,1252.9104,513.16077,1253.5012,513.20337,1254.2715 Z"/> </g> <g style="fill:rgb(246,210,153); fill-opacity:1.0; stroke-linejoin: miter"> <path d="M513.20337,1254.2715L513.20337,1254.2727L513.20337,1254.272L513.13367,1253.907L531.4005,1308.7075C531.64465,1309.44,531.2489,1310.2317,530.5166,1310.4758C529.7844,1310.72,528.99255,1310.3237,528.74854,1309.5916L528.74854,1309.5925L510.48154,1254.791C510.44226,1254.6729,510.41888,1254.5503,510.412,1254.426L510.412,1254.427L510.412,1254.4258C510.36942,1253.6548,510.95975,1252.9956,511.73068,1252.9534C512.50146,1252.9104,513.16077,1253.5012,513.20337,1254.2715 Z"/> </g> <g style="fill:rgb(246,210,153); fill-opacity:1.0; stroke-linejoin: miter"> <path d="M544.7915,1310.0674L478.82376,1310.0681Q481.88837,1321.5437,491.79425,1329.2632Q501.35657,1335.7163,511.93054,1335.6372Q523.67334,1335.6504,532.79956,1328.4009Q541.5012,1321.9475,544.7915,1310.0674 Z"/> </g> <g style="fill:rgb(246,210,153); fill-opacity:1.0; stroke-linejoin: miter"> <path d="M598.2212,1260.9878L598.0813,1263.0669Q597.63916,1265.8599,596.44055,1268.1555L595.7938,1269.2722Q595.1,1270.3584,594.2169,1271.3193Q593.33374,1272.281,592.26135,1273.1182Q590.10205,1274.7913,587.6018,1275.5801Q586.3517,1275.9746,585.01636,1276.1482Q584.402,1276.3728,580.8187,1276.1709Q579.42236,1275.95,578.15027,1275.54Q575.07874,1274.3491,574.6135,1273.884Q572.442,1272.4958,570.7677,1270.3516Q567.0293,1265.1633,567.6627,1259.5679Q567.9413,1256.782,569.04114,1254.4282Q569.5912,1253.251,570.3467,1252.1826Q570.60815,1251.5686,573.0508,1249.2434Q577.1102,1245.8108,582.89795,1245.6643Q585.7919,1245.7378,588.2538,1246.6323Q589.48474,1247.0801,590.60754,1247.7324Q591.23645,1247.9302,593.73303,1250.1528Q595.95544,1252.6492,596.1533,1253.2783Q596.806,1254.4014,597.2534,1255.6321Q598.1481,1258.0938,598.2212,1260.9878 Z"/> </g> <g style="fill:rgb(246,210,153); fill-opacity:1.0; stroke-linejoin: miter"> <path d="M648.94165,1324.0857L648.8728,1325.1072Q648.6559,1326.4788,648.06714,1327.6062Q647.7728,1328.1699,647.3854,1328.6729Q646.33606,1329.8765,646.01465,1330.0437Q644.9541,1330.8652,643.7261,1331.2529Q643.1123,1331.447,642.4562,1331.532Q642.15454,1331.6423,640.39453,1331.5435Q639.02295,1331.3262,637.8955,1330.7375Q637.3318,1330.4429,636.829,1330.0559Q635.6256,1329.0063,635.4581,1328.685Q633.6221,1326.1367,633.9332,1323.3884Q634.07007,1322.0203,634.6102,1320.8645Q634.8804,1320.2864,635.25146,1319.7612Q635.37976,1319.4597,636.57947,1318.3179Q638.57324,1316.6323,641.4159,1316.5603Q642.83716,1316.5962,644.04614,1317.0354Q645.5111,1317.6731,645.74036,1317.9219Q646.2655,1318.2925,646.7374,1318.7646Q647.20935,1319.2363,647.5803,1319.7612Q648.41943,1321.1199,648.4663,1321.4556Q648.90576,1322.6646,648.94165,1324.0857 Z"/> </g> <g style="fill:rgb(246,210,153); fill-opacity:1.0; stroke-linejoin: miter"> <path d="M505.15558,1322.0046L505.08688,1323.0259Q504.59335,1326.0759,502.309,1327.9119Q499.87137,1329.8174,496.60855,1329.4617Q493.7667,1329.0564,491.79767,1326.7825Q489.9773,1324.2493,490.10455,1321.9153Q490.2094,1318.7759,492.31317,1316.7024Q494.49512,1314.5227,497.62976,1314.4788Q498.7575,1314.4644,500.26028,1314.9541Q501.61066,1315.5554,501.7915,1315.7104Q502.4497,1316.1826,502.95132,1316.6833Q503.80252,1317.4312,504.62033,1319.1746Q505.09436,1320.3923,505.15558,1322.0046 Z"/> </g> </g> </g> </svg>