<?xml version='1.0' encoding='utf-8'?>
<svg xmlns="http://www.w3.org/2000/svg" version="1.1" width="1080px" height="2132px" viewBox="0 0 1080 2132"> <g id="layer1"> <g style="fill:rgb(255,255,255); fill-opacity:1.0; stroke-linejoin: miter"> <path d="M-152.00096,558.0947C-152.24083,558.0947,-152.47089,558.19,-152.6405,558.3596C-152.81012,558.52924,-152.90541,558.7593,-152.90541,558.99915L-152.9044,1547.0C-152.9044,1547.4995,-152.49947,1547.9045,-151.99995,1547.9045L1231.001,1547.9055C1231.2408,1547.9055,1231.471,1547.81,1231.6405,1547.6406C1231.81,1547.471,1231.9054,1547.241,1231.9054,1547.001L1231.9044,559.0001C1231.9044,558.5006,1231.4995,558.0957,1231.0,558.0957L-152.00096,558.0947 Z"/> </g> <g style="fill:rgb(218,245,252); fill-opacity:1.0; stroke-linejoin: miter"> <path d="M105.24462,1431.1495L90.456566,1410.1697Q-12.67162,1272.1796,-7.5775414,1194.3406Q-9.461435,1185.214,7.125351,1144.855L65.62874,1047.6113Q75.071495,1030.3755,81.766914,1011.5775Q87.47856,1003.28845,92.7436,950.83875Q89.76537,809.6254,95.646255,806.2234Q101.44109,770.38934,129.86398,751.5998Q134.33176,744.9032,184.371,732.14374Q204.34175,726.6204,324.3241,717.6042Q347.3093,715.21014,367.3551,710.9122Q387.11942,706.42084,403.89014,699.9495L500.46948,658.4825Q534.7478,646.1296,586.92883,645.3736Q655.9825,641.6292,808.8285,686.1472Q909.52563,718.9312,948.8717,762.59125Q958.5693,769.3399,968.68866,806.46405L969.12225,900.5136Q970.5118,916.7323,976.8525,933.2008Q977.2727,941.2126,1008.1415,983.27094Q1084.0588,1070.0342,1095.8762,1091.1388Q1122.2145,1129.5077,1125.5084,1172.6444Q1127.7164,1270.4224,1010.91235,1433.9905L105.24462,1431.1495"/> </g> <g style="fill:rgb(253,176,92); fill-opacity:1.0; stroke-linejoin: miter"> <path d="M571.74146,739.8198C571.2636,740.2978,570.7854,741.8912,570.7854,743.2456C570.7854,747.3093,565.04877,758.06537,559.71063,763.9616C554.5316,769.61835,551.66315,775.75323,551.66315,781.0917C551.66327,786.589,554.691,793.04285,559.3918,797.50464C561.70233,799.73553,563.6145,802.2851,563.6145,803.1614C563.6145,804.91425,561.62274,806.8265,556.7626,809.934C551.58356,813.2003,547.75916,817.66223,544.8112,823.7175C543.29724,826.74506,541.14624,830.49005,540.1104,832.0037C538.4372,834.3144,538.11847,835.5892,538.1183,840.52893L538.1184,846.42487L534.37366,846.5845C532.2225,846.5845,529.99133,846.5845,529.3541,846.5845C527.5215,846.3455,506.72626,847.93896,498.28064,848.895C485.4529,850.3291,466.72903,854.0737,452.46713,857.97766C450.31595,858.61523,446.1728,859.7306,443.30447,860.4477C433.74332,862.83777,400.19998,874.5504,391.91367,878.2949C389.84213,879.33075,375.0225,883.39404,368.01114,884.90796C357.41425,887.29816,353.90842,887.8557,349.76544,887.8557C346.10025,887.8557,345.30356,887.53705,342.91327,885.067C339.8856,881.95966,333.19287,879.0916,328.97015,879.0916C321.63995,879.09143,314.07077,884.2702,310.56494,891.7597C307.37796,898.373,309.36984,907.2966,315.4251,913.989L318.05438,917.0167L312.55685,928.8883C309.4496,935.50146,306.2623,942.43317,305.3063,944.4251C304.42984,946.41705,301.2429,953.1098,298.2152,959.40424C295.18747,965.6985,292.71756,970.9571,292.71756,971.196C292.71756,971.435,290.80533,975.57794,288.41492,980.5178C282.43927,992.9472,275.1888,1008.4043,270.8066,1018.12476C269.61148,1020.754,266.90256,1026.4906,264.83093,1030.8727C262.75934,1035.255,260.1302,1040.8324,259.01465,1043.2225C257.89917,1045.6128,255.34946,1051.1902,253.2779,1055.572C251.2063,1059.9541,248.41772,1065.8502,247.0632,1068.7185C245.78836,1071.5868,243.15903,1077.0844,241.32648,1081.0684C239.41426,1084.9722,236.62563,1090.9479,235.11172,1094.2146C229.3751,1106.5643,219.89357,1126.8018,215.75052,1135.4067C213.36026,1140.3468,211.44798,1144.5695,211.44798,1144.8086C211.44798,1145.0474,209.37642,1149.5892,206.74715,1155.0068C200.9308,1167.1974,196.15019,1177.3958,193.0429,1184.1685C186.58913,1198.3505,184.83621,1201.3783,182.76462,1201.6172C180.13535,1202.0157,175.83284,1205.2821,173.92067,1208.4691C171.21169,1212.9309,172.72543,1221.3763,176.94824,1225.0417C179.01978,1226.874,184.75641,1228.8661,188.02307,1228.8661C189.53694,1228.8661,192.16621,1229.7427,193.91905,1230.858C197.42488,1233.0894,212.6429,1240.8177,213.43965,1240.8177C213.75839,1240.8177,217.10472,1242.0927,220.84944,1243.6858C224.6739,1245.2794,228.49829,1246.8728,229.37468,1247.1915C237.50157,1250.5378,268.17664,1258.4261,279.5702,1260.0195C318.13324,1265.6769,362.672,1264.6415,393.9049,1257.3115C409.12283,1253.7258,425.2175,1249.2639,430.15747,1247.1926C449.8375,1239.1455,458.92044,1235.0023,465.77246,1230.6996C467.44562,1229.6637,469.75626,1228.8676,471.03107,1228.8676C477.24582,1228.8676,483.06213,1225.7599,485.53207,1221.0593C486.88657,1218.3502,486.7272,1211.2592,485.21335,1208.3907C483.69965,1205.3633,479.23776,1201.7778,477.00684,1201.7778C475.5727,1201.7778,472.784,1199.547,472.784,1198.4316C472.784,1197.9534,464.41812,1179.7874,457.4066,1165.1271C455.65372,1161.382,453.26343,1156.2031,452.06833,1153.5737C450.87323,1150.9448,448.0846,1145.0485,445.85355,1140.4275C443.70245,1135.8063,440.6747,1129.3523,439.08127,1126.0854C435.0178,1117.2417,430.7154,1108.1588,427.3691,1100.988C424.66003,1095.3304,417.72818,1080.4314,410.4778,1064.7354C409.12326,1061.867,405.9363,1055.0948,403.38672,1049.6766C400.7575,1044.2588,398.68597,1039.7175,398.68597,1039.5582C398.68597,1039.4786,395.97702,1033.7421,392.71017,1026.8898C389.44345,1019.95776,386.73453,1014.22107,386.73453,1013.98206C386.73453,1013.82263,384.0255,1008.08606,380.75885,1001.3136C377.49213,994.5409,374.78326,988.88416,374.78326,988.645C374.78326,988.48584,372.39304,983.38666,369.5246,977.33105C366.65643,971.2762,364.02698,965.619,363.6288,964.74243C363.23035,963.86615,360.36203,957.89056,357.33438,951.3568C354.22708,944.90344,351.6775,939.3258,351.6775,939.0072C351.6775,938.68854,349.36697,933.7488,346.49854,928.0918C343.6301,922.35486,341.31958,917.17633,341.31958,916.45917C341.31958,914.30774,344.82553,911.75836,347.77338,911.75836C353.27103,911.75836,378.76724,907.85455,386.33624,905.78265C388.56726,905.22504,392.15265,904.2691,394.30402,903.791C396.53494,903.2333,399.00476,902.5957,399.8812,902.1973C400.75766,901.8789,403.06824,901.1619,405.06012,900.6042C407.0521,900.04645,409.3627,899.3294,410.23907,899.01074C411.11557,898.61224,412.70905,898.13416,413.8246,897.89496C414.93988,897.57654,417.80826,896.85913,420.19846,896.1421C424.8992,894.7875,436.53192,892.1585,442.74658,890.9634C458.5224,887.9355,461.8688,887.45764,478.76004,885.4658C494.69522,883.55365,525.05164,883.3146,532.9394,884.9083L537.7201,885.9442L538.19794,892.6368C538.59656,899.80786,539.23395,901.8793,541.30536,903.7915C542.02264,904.4292,543.6958,907.37683,545.0501,910.3248C546.72327,913.9102,549.1136,917.177,552.45984,920.4434C556.7623,924.6665,557.24054,925.463,556.4437,926.89734C554.691,930.2438,554.13324,937.2552,554.8502,947.8518C558.1965,995.4181,558.9138,1013.3451,558.5952,1037.6464C558.35583,1051.4298,557.63885,1070.4727,556.9217,1079.874C556.2046,1089.2759,555.24854,1101.4664,554.8501,1106.964C552.69885,1135.9663,549.67114,1160.3464,546.08575,1177.0785C544.8109,1183.1339,544.41266,1187.4366,544.6514,1192.6154C544.89075,1198.9098,545.2092,1200.5032,547.7589,1205.7618C549.35254,1209.0286,551.663,1212.6937,552.77856,1213.8888C555.2483,1216.4384,555.32806,1217.4742,553.3362,1219.6255C551.3443,1221.7766,547.67926,1228.4697,547.67926,1229.9033C547.67926,1230.541,546.2452,1232.6925,544.4923,1234.6843C540.2694,1239.465,535.967,1246.6357,534.37335,1251.5754C533.4969,1254.3639,532.939,1260.0206,532.6204,1270.2993C532.0627,1286.7122,531.50507,1288.784,526.3261,1294.0422C521.3862,1298.903,518.67725,1299.6201,502.66235,1300.098C494.77435,1300.3367,487.04593,1300.7352,485.532,1301.0542C480.27338,1302.0895,474.69614,1305.0375,472.78394,1307.8264C471.74814,1309.34,470.79202,1310.6945,470.55298,1310.9338C470.39362,1311.1726,459.47784,1311.4908,446.25183,1311.73C422.58798,1312.128,422.10995,1312.128,418.20578,1314.1201C412.7879,1316.8289,409.4415,1321.9286,408.64474,1328.4619C408.24634,1331.8081,408.40576,1333.6409,409.04315,1334.4379C409.9197,1335.4734,430.2369,1335.6332,574.29114,1335.4746L738.5033,1335.2358L738.3436,1329.3397C738.1845,1322.727,736.3518,1319.0615,731.5712,1315.4764C727.2689,1312.2097,723.8428,1311.8114,700.4977,1311.7316L678.4274,1311.6516L674.20447,1307.5084C667.9102,1301.2938,664.006,1300.2583,646.8757,1300.0985C639.4659,1300.0189,632.056,1299.7002,630.54224,1299.3815C624.5665,1298.0267,618.8299,1292.7683,616.1207,1286.0754C615.0053,1283.3667,614.6866,1280.1796,614.6867,1270.0609C614.60693,1252.4523,612.4557,1245.6002,603.77106,1235.4016C601.3807,1232.6132,599.46844,1229.824,599.46844,1229.1863C599.46844,1227.5135,597.2376,1223.3704,594.4488,1219.9442L592.0586,1216.9962L594.6879,1213.969C598.4329,1209.7458,601.9384,1201.7781,602.65533,1195.9617C603.29297,1190.8624,602.65533,1182.2576,601.1417,1175.4851C599.94653,1170.1469,598.1142,1158.5938,597.15784,1149.5907C596.60016,1145.2084,595.80347,1139.3125,595.4051,1136.4442C594.1302,1128.5564,592.2978,1106.1672,590.30585,1075.4924C589.66864,1065.0548,589.1108,1045.375,589.19025,1029.6787C589.19037,1004.5012,589.58875,993.42633,592.37744,948.8081C593.25397,934.5462,593.17426,933.4308,591.7401,929.28754L590.2262,924.90533L594.8473,920.68256C597.95465,917.8144,600.26514,914.70715,601.85895,911.28094C603.2133,908.49225,605.2848,905.06635,606.4802,903.6323C608.39246,901.4015,608.71106,900.2859,609.02954,893.51355L609.42804,885.9444L611.81836,885.22736C613.1729,884.8289,623.1324,884.2713,633.9685,884.11163C656.1179,883.6337,664.80286,884.35077,693.4858,888.8128C696.3542,889.2111,699.93945,889.84845,701.45337,890.2468C702.96716,890.6452,707.82733,891.6807,712.2098,892.63715C725.67487,895.50543,731.25226,896.93994,745.2753,901.4019C747.6655,902.1188,751.2513,903.23444,753.24304,903.71246C755.2349,904.27026,757.94385,904.9872,759.21875,905.38556C765.991,907.3774,794.1964,911.7598,800.2518,911.7598C803.04034,911.7598,805.74927,914.2297,805.82886,916.8589C805.82886,917.65564,803.51843,923.1532,800.6502,929.0492C797.7818,934.94543,795.4713,939.8851,795.4713,940.04443C795.4713,940.20404,792.6029,946.33887,789.0971,953.5893C785.59125,960.83966,782.723,966.97473,782.723,967.13403C782.723,967.29346,780.7311,971.6756,778.2611,976.85455C775.7914,982.03345,772.7635,988.40765,771.5683,991.03674C768.8594,996.93274,764.87573,1005.4579,760.1749,1015.3379C758.2626,1019.48096,753.004,1030.7948,748.54224,1040.4353C744.08026,1050.076,739.8573,1058.9994,739.1402,1060.354C738.50287,1061.6289,735.6347,1067.6049,732.92566,1073.5012C728.54346,1082.9023,722.96606,1094.934,713.4051,1115.3306C711.97095,1118.358,708.5448,1125.6884,705.7562,1131.5845C702.9675,1137.401,700.6569,1142.3408,700.6569,1142.4205C700.6569,1142.5797,698.2666,1147.5992,695.3984,1153.6545C692.52997,1159.7893,689.2633,1166.7214,688.1479,1169.112C687.0325,1171.502,685.2795,1175.2466,684.32355,1177.4779C675.5587,1196.6792,672.77026,1201.7787,670.9377,1201.7787C668.46783,1201.7787,663.9264,1205.2047,662.25323,1208.3918C660.57996,1211.499,660.4206,1216.8375,661.9344,1220.343C663.92615,1225.283,670.06134,1228.868,676.35565,1228.868C677.7103,1228.8683,680.8176,1230.1432,683.5268,1231.7368C693.7253,1237.9517,714.7596,1246.7161,732.1291,1251.8947C734.43964,1252.6119,743.7618,1254.843,754.04,1257.2334C756.90814,1257.9504,760.49365,1258.7472,762.00757,1259.1455C763.52124,1259.5438,766.6288,1260.1017,768.77997,1260.3408C771.011,1260.5797,775.63214,1261.1376,779.13794,1261.5359C807.0244,1264.7231,837.38116,1264.4047,863.59467,1260.6603C881.2032,1258.1105,912.7548,1249.9042,923.35175,1245.2034C924.7062,1244.5662,929.3275,1242.6538,933.7097,1240.8213C938.09204,1239.0684,945.10345,1235.6425,949.24664,1233.332C954.6643,1230.3035,958.0108,1228.949,960.95886,1228.6305C969.9623,1227.5946,974.74304,1222.7346,974.74304,1214.6079C974.74304,1207.995,972.0341,1204.2501,965.34106,1201.8597C962.23364,1200.6642,961.7557,1200.1066,959.2856,1194.6086C956.7358,1188.7924,955.30176,1185.7648,947.2545,1168.714C945.1828,1164.3322,942.4739,1158.436,941.11945,1155.568C939.8448,1152.6997,937.3746,1147.5206,935.7014,1144.0149C930.28357,1132.7808,922.9529,1117.1641,922.9529,1116.9247C922.9529,1116.7655,920.24384,1111.0288,916.9773,1104.1768C913.71075,1097.3247,911.0016,1091.5879,911.0016,1091.349C911.0016,1091.1893,908.53174,1085.7719,905.4242,1079.3976C902.39667,1072.9436,899.847,1067.6056,899.847,1067.4464C899.847,1067.2871,897.1379,1061.5503,893.79175,1054.6187C890.44507,1047.6864,887.1783,1040.5956,886.46124,1038.8427C885.74426,1037.0898,882.95557,1031.0342,880.1669,1025.4568C877.3781,1019.8794,875.147,1015.0991,875.147,1014.8601C875.147,1014.621,873.31476,1010.5575,871.08374,1005.9365C868.7733,1001.2356,865.7455,994.70215,864.2317,991.4354C857.53894,976.9345,850.7661,962.5128,847.10114,954.78436C844.87024,950.1633,842.00195,944.10803,840.7272,941.2397C839.37286,938.37146,836.42456,931.9975,834.03424,927.1371C831.6439,922.197,829.73175,917.65564,829.73175,917.0184C829.73175,916.38086,830.6081,915.1858,831.5643,914.38916C832.6001,913.59204,834.5123,911.2818,835.7871,909.3695C837.7791,906.1827,838.01825,905.067,838.0184,899.41016C838.01794,893.91254,837.779,892.6375,835.9465,889.8489C832.9983,885.30743,829.89087,882.59863,825.50903,880.766C818.338,877.65845,810.8487,879.1724,804.3947,884.9887C801.6858,887.4586,800.72974,887.857,797.14435,887.857C794.9133,887.857,791.56696,887.5384,789.73444,887.13983C787.8222,886.66174,783.44,885.7853,779.93427,884.9886C772.6041,883.4748,758.3423,879.3317,750.85266,876.4635C722.8863,866.0259,715.8749,863.55597,707.03076,861.16516C702.88763,860.04987,697.7086,858.6157,695.47766,858.05804C693.32666,857.42065,689.8208,856.4647,687.74927,856.06616C685.59796,855.58813,682.41113,854.8711,680.5785,854.4727C678.6664,853.99457,675.3996,853.3571,673.16876,852.8791C671.0175,852.4807,666.3166,851.6044,662.81085,850.8871C650.8595,848.5766,627.6738,846.42523,615.64276,846.4253L609.02966,846.42633L609.02966,840.13116C609.0298,834.6336,608.7907,833.5182,607.11743,831.52637C606.08167,830.33105,604.08966,826.8249,602.6555,823.79736C599.5482,817.18445,596.0424,813.2004,590.46545,809.69495C582.89606,804.9942,582.4181,802.5243,587.9157,797.6641C591.97894,794.07874,593.97095,790.65265,595.48474,784.59717C596.4409,780.932,596.3614,780.05566,594.68805,775.11566C593.3336,771.0523,591.8198,768.50287,589.1109,765.5548C582.0199,758.0655,578.514,751.452,576.60175,742.4491C575.88464,739.023,573.7336,737.82776,571.74146,739.8198 Z M331.12125,926.1795C331.99762,927.6931,340.5228,946.0186,340.5228,946.41693C340.5228,946.5761,342.59436,951.1178,345.2237,956.5361C351.4384,969.52295,359.00757,985.6971,364.26614,997.0115C365.5409,999.8795,368.8076,1006.81104,371.51666,1012.3883C374.2255,1017.9657,376.37665,1022.6664,376.37665,1022.8258C376.37665,1022.9852,379.0856,1028.7217,382.3524,1035.574C385.6189,1042.426,388.32797,1048.1627,388.32797,1048.3221C388.32797,1048.5613,390.39948,1053.1028,393.0289,1058.5208C395.57843,1063.9386,398.60617,1070.3126,399.7217,1072.703C400.837,1075.0934,404.1038,1082.025,406.97205,1088.16C409.84036,1094.2151,412.23062,1099.3145,412.23062,1099.3944C412.23062,1099.5536,414.78027,1104.9714,417.80795,1111.3453C420.91516,1117.7196,423.385,1123.1376,423.385,1123.3763C423.385,1123.5359,426.41275,1129.9895,430.15775,1137.7184C433.90228,1145.447,436.92996,1151.901,436.92996,1152.0599C436.92996,1152.2991,438.68286,1156.1235,440.834,1160.5854C442.98526,1165.0472,445.69418,1170.8634,446.88943,1173.4929C448.1642,1176.1221,451.43088,1183.0537,454.2195,1188.9498C457.00824,1194.8457,459.1593,1199.9451,459.07962,1200.3435C458.76102,1201.2997,200.77127,1201.1389,200.45259,1200.2623C200.29327,1199.8643,201.80705,1196.199,203.71935,1192.0558C205.63156,1187.9924,208.10158,1182.8136,209.05762,1180.6626C210.01375,1178.4315,213.36015,1171.4999,216.30812,1165.2853C219.3358,1158.9906,221.80588,1153.7322,221.80588,1153.5728C221.80588,1153.493,224.11649,1148.4735,226.98479,1142.498C229.85307,1136.5223,232.16376,1131.5028,232.16376,1131.3436C232.16376,1131.1843,234.63362,1125.9254,237.66136,1119.631C240.60938,1113.3365,244.1948,1105.8473,245.54926,1102.979C246.82404,1100.1107,249.77194,1093.8959,252.00293,1089.1951C254.23395,1084.4149,256.06647,1080.4309,256.06647,1080.2716C256.06647,1080.1918,258.3772,1075.2523,261.1658,1069.4359C263.95444,1063.5398,267.14148,1056.7673,268.25684,1054.3772C270.0894,1050.3136,273.8343,1042.2666,279.80994,1029.6774C282.1204,1024.6578,286.26376,1015.8937,291.28317,1004.97815C292.63782,1002.11035,295.26703,996.5326,297.09958,992.6288C298.93216,988.6449,301.4818,983.3068,302.6769,980.6775C303.872,978.04803,307.37784,970.7181,310.40552,964.34406C313.51282,957.96985,316.6202,951.1973,317.41693,949.2055C318.2138,947.2136,321.00235,941.2381,323.71143,935.8997C326.42038,930.56165,328.57147,925.7811,328.57153,925.303C328.57153,924.10803,330.2448,924.66583,331.12125,926.1795 Z M822.8799,933.6707C825.34955,938.76984,827.34155,943.15186,827.34155,943.47046C827.34155,943.7892,829.8115,949.1276,832.8392,955.2625C835.78723,961.3976,838.5759,967.214,838.81494,968.1699C839.1338,969.12616,841.1256,973.4286,843.2766,977.7309C845.3482,982.03375,847.8981,987.292,848.8541,989.4434C849.8103,991.67426,851.9614,996.2954,853.6347,999.8015C855.3079,1003.3069,858.0966,1009.3627,860.0087,1013.34607C865.1875,1024.5009,881.84,1059.9564,891.08264,1079.4772C892.91504,1083.3816,896.3412,1090.7911,898.6519,1095.8108C900.96277,1100.8303,904.46826,1108.3997,906.46,1112.5426C909.8064,1119.6335,913.3123,1127.2029,919.1288,1139.6326C920.4831,1142.5006,922.8734,1147.6799,924.5467,1151.1857C930.36304,1163.4558,934.34705,1171.9811,936.6579,1177.0801C938.0124,1179.9484,940.80084,1185.9246,942.95197,1190.466C945.10315,1194.9279,946.8562,1199.1506,946.8562,1199.7878C946.8562,1200.8237,931.8773,1200.9834,819.4541,1200.9827C749.33905,1200.9824,691.49414,1201.2211,690.7771,1201.4602C687.82916,1202.5756,688.7852,1198.9105,694.5217,1186.4012C697.86847,1179.3104,703.76434,1166.6418,707.6686,1158.3555C711.57245,1149.9896,716.43274,1139.7114,718.50433,1135.4089C720.49634,1131.0271,722.1695,1127.4415,722.1695,1127.2822C722.1695,1127.2024,724.8784,1121.4661,728.1452,1114.5338C731.41187,1107.6818,734.1208,1101.9454,734.1208,1101.7856C734.1208,1101.6265,736.4314,1096.6067,739.29944,1090.7108C742.1678,1084.815,744.47876,1079.7954,744.47876,1079.5563C744.47876,1079.3971,747.1877,1073.6602,750.4546,1066.8881C753.721,1060.0358,756.43005,1054.2992,756.43005,1054.1399C756.43005,1053.9008,758.7408,1048.9608,761.52936,1043.1447C770.6121,1024.102,775.5523,1013.58496,775.5523,1013.3458C775.5523,1013.1865,777.783,1008.48535,780.4126,1002.829C785.83044,991.51495,790.61127,981.3961,793.6388,974.7035C794.7544,972.3134,797.0647,967.2936,798.8176,963.5488C800.5704,959.80383,804.4745,951.59735,807.42255,945.2235C814.59344,929.6867,817.2225,924.5076,817.8599,924.5076C818.09894,924.5076,820.40967,928.6508,822.8799,933.6707 Z"/> </g> <g style="fill:rgb(44,66,72); fill-opacity:1.0; stroke-linejoin: miter"> <path d="M1012.3235,1434.6293L1008.1741,1435.8142Q978.69293,1439.329,835.71045,1440.9482Q691.7385,1442.5619,496.65027,1441.3911Q310.46454,1440.0914,198.84547,1436.8695Q163.08153,1435.8292,139.93019,1434.6766L120.472916,1433.5085Q104.43923,1432.3187,104.26368,1431.0924Q109.14705,1427.3503,237.27036,1425.3519Q365.39368,1423.3534,558.328,1424.0099Q751.2618,1424.8563,879.3655,1427.8529Q1007.4695,1430.8492,1012.3235,1434.6293"/> </g> <g style="fill:rgb(232,164,75); fill-opacity:1.0; stroke-linejoin: miter"> <path d="M819.3864,1200.9827C819.3812,1200.9827,819.3762,1200.9827,819.3712,1200.9827L819.3705,1200.9834C819.3786,1200.9827,819.38654,1200.9827,819.3947,1200.9827 Z"/> </g> <g style="fill:rgb(232,164,75); fill-opacity:1.0; stroke-linejoin: miter"> <path d="M819.39886,1200.9827L819.413,1200.9834L819.4046,1200.9827C748.78687,1200.9847,691.4908,1201.2223,690.7771,1201.4602C691.494,1201.2211,749.30865,1200.9827,819.39886,1200.9827 Z"/> </g> <g style="fill:rgb(254,195,136); fill-opacity:1.0; stroke-linejoin: miter"> <path d="M537.7373,886.18353L538.19794,892.6368C538.59656,899.80786,539.23395,901.8793,541.30536,903.7915C542.02264,904.4292,543.6958,907.37683,545.0501,910.3248C546.72327,913.9102,549.1136,917.177,552.45984,920.4434C554.9518,922.8893,556.16077,924.1857,556.5822,925.12244Q573.43854,925.1224,590.29504,925.1223L590.2262,924.90533L594.8473,920.68256C597.95465,917.8144,600.26514,914.70715,601.85895,911.28094C603.2133,908.49225,605.2848,905.06635,606.4802,903.6323C608.39246,901.4015,608.71106,900.2859,609.02954,893.51355L609.41534,886.18365L577.52124,886.1836L537.7373,886.18353 Z"/> </g> <g style="fill:rgb(254,195,136); fill-opacity:1.0; stroke-linejoin: miter"> <path d="M428.35846,1312.1211C421.78772,1312.3914,420.69067,1312.8522,418.20578,1314.1201C412.7879,1316.8289,409.4415,1321.9286,408.64474,1328.4619C408.24634,1331.8081,408.40576,1333.6409,409.04315,1334.4379C409.73535,1335.2556,422.55106,1335.5275,498.8526,1335.5275C519.1727,1335.5275,543.99554,1335.508,574.29114,1335.4746L738.5033,1335.2358L738.3436,1329.3397C738.1845,1322.727,736.3518,1319.0615,731.5712,1315.4764C728.9469,1313.4839,726.64874,1312.5586,719.95746,1312.1216L572.439,1312.1213L428.3629,1312.1211 Z"/> </g> <g style="fill:rgb(254,195,136); fill-opacity:1.0; stroke-linejoin: miter"> <path d="M563.39484,802.43396C563.5352,802.7353,563.6145,802.9831,563.6145,803.1614C563.6145,804.91425,561.62274,806.8265,556.7626,809.934C551.58356,813.2003,547.75916,817.66223,544.8112,823.7175C543.29724,826.74506,541.14624,830.49005,540.1104,832.0037C538.4372,834.3144,538.11847,835.5892,538.1183,840.52893L538.1184,845.9997Q573.5709,845.9995,609.02356,845.9994L609.02966,840.13116C609.0298,834.6336,608.7907,833.5182,607.11743,831.52637C606.08167,830.33105,604.08966,826.8249,602.6555,823.79736C599.5482,817.18445,596.0424,813.2004,590.46545,809.69495C585.7807,806.78564,583.8123,804.73083,584.29565,802.43506L584.2897,802.43604L579.5553,802.437L563.40063,802.43396 Z"/> </g> <g style="fill:rgb(254,195,136); fill-opacity:1.0; stroke-linejoin: miter"> <path d="M839.1454,898.3815L838.958,901.16656Q837.626,909.5833,831.16266,914.62976Q824.6547,919.672,815.83545,918.719Q807.41864,917.38684,802.37225,910.92365Q800.75543,908.83435,799.7086,906.37067L798.82886,903.8378Q798.1038,901.2235,798.0957,898.3815Q798.3158,889.6597,804.10724,883.86816Q809.89874,878.07666,818.62054,877.85657Q827.34235,878.07666,833.1338,883.86816Q838.9253,889.6597,839.1454,898.3815"/> </g> <g style="fill:rgb(254,195,136); fill-opacity:1.0; stroke-linejoin: miter"> <path d="M350.168,899.3365L349.98062,902.1216Q348.64853,910.53845,342.1853,915.58484Q335.6773,920.62714,326.8581,919.6741Q318.4413,918.342,313.39502,911.87866Q311.7781,909.7895,310.73132,907.32574L309.85156,904.79285Q309.12656,902.1785,309.11838,899.3365Q309.33847,890.61475,315.12997,884.8233Q320.92145,879.0318,329.64316,878.8117Q338.36493,879.0318,344.1564,884.8233Q349.9479,890.61475,350.168,899.3365"/> </g> <g style="fill:rgb(218,160,103); fill-opacity:1.0; stroke-linejoin: miter"> <path d="M334.1081,1332.398L566.68384,1332.3984L799.2595,1332.3989Q799.2595,1379.9606,799.2595,1427.5222Q566.68384,1427.5227,334.1081,1427.5232Q334.1081,1379.9606,334.1081,1332.398"/> </g> <g style="fill:rgb(255,176,99); fill-opacity:1.0; stroke-linejoin: miter"> <path d="M905.7074,1200.892L905.7277,1200.8931C896.28644,1200.928,884.7478,1200.9503,870.66846,1200.9639L870.66846,1200.9648C884.7331,1200.9501,896.2623,1200.9271,905.69824,1200.892 Z"/> </g> <g style="fill:rgb(240,147,34); fill-opacity:1.0; stroke-linejoin: miter"> <path d="M972.92865,1198.805Q945.6534,1198.805,918.378,1198.8053L911.5591,1198.806Q796.09564,1198.8053,680.6321,1198.8055C680.6321,1198.8055,680.6321,1198.8055,680.6321,1198.8055L680.6247,1198.8069Q671.6749,1198.8058,662.7328,1198.8058C662.132,1199.4727,661.638,1199.7507,661.1962,1199.7507C658.56226,1199.7507,653.7192,1203.4044,651.93475,1206.803C650.1503,1210.1168,649.9804,1215.8097,651.5948,1219.5483C653.71875,1224.8163,660.26166,1228.6398,666.97406,1228.6398C668.41876,1228.64,671.7324,1229.9995,674.6217,1231.6992C685.49756,1238.3267,707.9293,1247.6736,726.45264,1253.1962C728.9167,1253.9612,738.85815,1256.3406,749.8191,1258.8894C752.87775,1259.6542,756.70154,1260.5035,758.316,1260.9286C759.93024,1261.3533,763.24426,1261.9482,765.53827,1262.2035C767.9174,1262.4581,772.84564,1263.0529,776.5842,1263.4779C790.1736,1265.0309,804.313,1265.8032,818.3296,1265.8035C834.9868,1265.8035,851.47064,1264.7124,866.6514,1262.5441C885.4299,1259.8252,919.0774,1251.0731,930.3782,1246.0603C931.82263,1245.3806,936.751,1243.3414,941.4243,1241.3871C946.09766,1239.5177,953.5747,1235.864,957.9932,1233.4001C963.7708,1230.1704,967.3396,1228.726,970.48346,1228.3864C980.08496,1227.2817,985.1834,1222.0989,985.1834,1213.4323C985.1834,1206.38,982.2945,1202.3862,975.15686,1199.8372C974.23645,1199.483,973.5325,1199.1815,972.9391,1198.805 Z M819.4949,1198.902L820.01953,1198.9026L820.01953,1198.9036L819.501,1198.9028L819.501,1198.904C819.496,1198.9022,819.49097,1198.902,819.4861,1198.902 Z"/> </g> <g style="fill:rgb(71,151,173); fill-opacity:1.0; stroke-linejoin: miter"> <path d="M623.75977,1236.0923L589.1984,1248.9628Q584.9954,1240.4784,584.658,1237.4728Q584.00586,1234.246,586.2297,1230.266L624.81213,1216.6813L623.75977,1236.0923 Z"/> </g> <g style="fill:rgb(0,0,0); fill-opacity:1.0; stroke-linejoin: miter"> <path d="M634.8893,1117.7281C638.10016,1117.1791,640.7897,1117.5818,642.9571,1118.9363C643.26794,1119.0297,644.67896,1120.4736,647.7388,1122.5171C651.1092,1124.7686,653.15326,1125.6808,653.3841,1126.0472C654.65875,1127.158,655.57513,1128.5599,656.0246,1130.2821C657.48627,1135.8827,657.1015,1142.3607,654.95184,1149.6799C654.49603,1151.2329,652.05255,1153.095,651.4042,1154.7489L644.13403,1155.4098C635.983,1150.8945,633.7489,1150.6376,630.834,1147.4691C629.37195,1145.8802,627.9889,1144.0059,626.6749,1141.8232C625.9204,1140.57,624.4378,1137.5481,622.2419,1132.7366C621.90155,1131.9904,621.4888,1131.3436,621.1051,1130.7435C620.20514,1129.337,619.00507,1128.203,617.481,1127.3558C617.93774,1125.2651,619.5337,1123.5034,622.272,1122.0743C626.4323,1119.903,630.6314,1118.4568,634.8679,1117.7314 Z"/> </g> <g style="fill:rgb(255,188,147); fill-opacity:1.0; stroke-linejoin: miter"> <path d="M621.41626,1129.9888L621.4159,1129.989C625.23804,1130.7661,627.35834,1131.7216,627.9971,1132.7242C628.5331,1133.5662,628.67584,1135.0068,628.21484,1137.1918L631.3502,1140.099L631.9578,1145.3154L634.5613,1145.6176C635.59155,1142.7493,636.40106,1141.0514,636.9403,1140.476C637.6059,1139.7664,638.3962,1139.672,639.36884,1140.2256C640.54254,1140.893,641.31573,1141.7551,641.7626,1142.7909C642.052,1143.4608,642.05304,1144.802,641.68567,1146.8508C641.7209,1147.2316,641.93207,1147.5874,642.18353,1148.0115C642.5899,1148.6979,644.61017,1156.58,649.9008,1154.5955L633.7543,1168.8923L633.51904,1163.1768L625.3141,1163.2969C622.1654,1164.0242,620.35925,1163.9996,619.6915,1163.4373C619.02,1162.8721,619.00977,1161.2034,619.8396,1158.1926C618.9751,1156.7444,618.6223,1155.781,618.6709,1155.2872C618.7273,1154.7092,619.22,1154.1167,620.2601,1153.517C618.92737,1153.3705,618.20325,1153.033,617.9552,1152.567C617.69916,1152.0848,617.6912,1151.0242,618.05896,1149.3107C615.7466,1149.1185,614.71204,1148.6989,614.81616,1148.0258C614.8669,1147.6952,615.06604,1147.1855,615.55457,1146.5082L619.2374,1141.8654L619.4042,1140.4902C618.97095,1139.3317,618.9105,1138.1613,619.1366,1136.9622C619.3532,1135.8129,620.0815,1133.4908,621.40814,1130.0111L621.41626,1129.9888 Z"/> </g> <g style="fill:rgb(0,0,0); fill-opacity:0.99607843; stroke-linejoin: miter"> <path d="M603.7296,1148.8447L603.7296,1148.8458L603.7296,1148.8447L603.7296,1148.8458 Z"/> </g> <g style="fill:rgb(255,200,166); fill-opacity:0.99607843; stroke-linejoin: miter"> <path d="M660.2739,1139.5258L660.27356,1139.526L660.2739,1139.5258L660.2739,1139.5262 Z"/> </g> <g style="fill:rgb(255,188,147); fill-opacity:1.0; stroke-linejoin: miter"> <path d="M586.44073,1232.1251L576.3404,1231.1295Q572.2269,1238.7245,571.61774,1240.7738Q570.34143,1244.0786,570.7605,1246.3035L570.9465,1247.0098Q571.17706,1247.6857,571.5518,1248.2517Q572.318,1249.3782,573.4604,1250.136Q576.0243,1251.8348,579.29144,1252.2319Q581.5955,1252.3899,582.66095,1251.607Q583.76575,1251.0334,584.9467,1248.2844L590.32654,1244.6438L586.44073,1232.1251 Z"/> </g> <g style="fill:rgb(0,0,0); fill-opacity:1.0; stroke-linejoin: miter"> <path d="M489.3318,1151.8015L489.40982,1151.4232Q489.8365,1149.1135,489.5322,1147.9113Q489.23758,1146.4911,489.0715,1146.1035L487.5587,1142.1334Q486.72906,1139.7388,486.61795,1139.132Q485.74802,1135.2,485.94342,1133.0402Q486.08087,1128.83,487.65594,1124.8552Q489.1036,1121.796,489.5808,1121.4117Q490.3397,1120.4088,491.25333,1119.677Q492.5398,1118.3727,496.5429,1117.6146Q497.70105,1117.4521,498.87457,1117.3964Q504.65607,1117.2902,505.41046,1117.0983L507.1994,1116.7828L512.30316,1115.5303Q513.75543,1115.3328,514.61115,1115.4958Q517.74414,1115.9711,519.26135,1118.5311Q520.29614,1120.3383,519.59326,1123.9254Q519.0438,1126.4828,518.13983,1129.2451L507.68396,1146.6768L489.3318,1151.8015 Z"/> </g> <g style="fill:rgb(255,188,147); fill-opacity:1.0; stroke-linejoin: miter"> <path d="M507.30176,1165.3634L509.4228,1160.3115Q514.40656,1161.4395,516.5571,1161.505Q519.4471,1161.4869,519.937,1160.7996Q520.3768,1160.4438,520.6176,1159.9078Q520.83527,1159.728,520.9837,1157.976Q521.0464,1156.1456,520.0465,1151.8414Q520.9552,1151.0221,520.969,1150.6396Q520.9376,1150.341,520.33246,1150.0966Q521.8432,1149.3546,522.04315,1148.9817Q522.3422,1148.6086,521.8292,1147.8585Q525.0465,1147.8037,525.3552,1146.7837Q525.41595,1146.3889,525.1992,1145.851L523.8507,1142.858Q523.4934,1141.79,523.2022,1140.1394Q524.2588,1137.0684,523.35974,1134.6499Q522.71545,1132.3892,518.5721,1126.1005L511.65063,1126.1711L506.27838,1136.4877L506.7414,1142.3002L504.75366,1142.0294Q502.48175,1138.5088,500.97522,1137.4761Q499.94836,1136.7859,498.81146,1137.2267Q496.9137,1138.0941,496.05334,1141.0549Q495.2309,1143.3276,497.3069,1146.5386Q496.53558,1148.2039,495.94357,1148.9359Q494.84305,1150.2134,493.76712,1150.3754Q492.63455,1150.7567,488.97223,1150.4447L487.98724,1155.131L507.30176,1165.3634 Z"/> </g> <g style="fill:rgb(255,255,255); fill-opacity:1.0; stroke-linejoin: miter"> <path d="M487.22092,1156.3845L488.58426,1151.6334Q495.5774,1153.3351,499.45825,1155.8287Q503.2705,1158.0292,511.6637,1165.7166L506.92035,1177.0519L487.22092,1156.3845 Z"/> </g> <g style="fill:rgb(0,0,0); fill-opacity:1.0; stroke-linejoin: miter"> <path d="M480.09216,1425.7975L491.6135,1424.2144L503.40717,1420.3075L515.3639,1429.3289Q520.64703,1430.1035,525.1161,1431.0795Q529.9443,1432.3135,530.8933,1433.1184Q534.03754,1435.3998,531.9687,1438.1412Q530.04034,1440.3523,528.4236,1440.9226Q526.5906,1441.7749,524.1214,1442.1538Q519.26447,1442.8591,510.8897,1442.3179Q502.72876,1441.9117,479.19135,1439.6874L480.09216,1425.7975 Z"/> </g> <g style="fill:rgb(0,0,0); fill-opacity:1.0; stroke-linejoin: miter"> <path d="M501.12006,1409.5345L510.73236,1417.3578Q518.2907,1416.974,520.3006,1417.3395Q523.68787,1417.7351,525.42053,1418.8987Q528.2666,1420.8433,527.7696,1423.0123Q527.3971,1424.6951,524.11523,1425.7603Q520.36884,1426.9712,511.055,1427.925L476.3309,1427.9924L476.28668,1415.1262L485.97293,1416.6448L501.12006,1409.5345 Z"/> </g> <g style="fill:rgb(73,104,113); fill-opacity:1.0; stroke-linejoin: miter"> <path d="M504.2403,1421.6239L492.22827,1424.7451L478.78333,1424.7675L478.24893,1418.0144L475.52994,1417.7509Q474.9363,1401.4634,473.39673,1375.3766Q473.04364,1368.2286,473.15152,1362.9165Q473.21683,1358.3998,474.03275,1353.1394Q474.59848,1349.2385,476.10785,1343.497Q476.80127,1339.851,476.8727,1338.8962Q477.52112,1332.7094,477.3895,1328.6821Q477.43896,1319.2876,474.2512,1289.4543L493.65427,1286.1094L504.8285,1280.0917L517.0998,1287.8253Q512.8476,1319.3762,509.836,1330.9497Q506.98248,1343.2731,499.50458,1359.5157L504.2403,1421.6239 Z"/> </g> <g style="fill:rgb(255,188,147); fill-opacity:1.0; stroke-linejoin: miter"> <path d="M566.305,1233.374L566.96564,1233.0715Q570.6016,1231.3639,572.8723,1230.9276Q575.4657,1230.4493,577.98566,1231.0746Q579.87695,1231.5219,581.7557,1232.1593Q586.1645,1235.6194,587.95905,1237.4205Q589.66296,1239.204,589.8049,1239.5238Q590.2941,1240.2014,590.57294,1240.8401Q590.84546,1241.478,590.9075,1242.0726L590.92645,1242.656Q590.8977,1243.2284,590.7156,1243.7554Q589.6843,1246.8782,583.3803,1249.9248Q582.2625,1246.0985,581.70264,1245.3696Q580.8394,1243.9983,580.00854,1243.9147Q578.3546,1243.6243,575.1651,1245.5387L567.27783,1246.7704L566.305,1233.374 Z"/> </g> <g style="fill:rgb(255,255,255); fill-opacity:1.0; stroke-linejoin: miter"> <path d="M654.8922,1157.9033L653.47327,1153.1686Q646.50055,1154.9521,642.6492,1157.4915Q638.863,1159.7363,630.5607,1167.522L635.4367,1178.8008L654.8922,1157.9033 Z"/> </g> <g style="fill:rgb(0,0,0); fill-opacity:1.0; stroke-linejoin: miter"> <path d="M665.18335,1427.2137L653.64417,1425.7659L641.80536,1421.998L629.9556,1431.159Q624.6818,1431.996,620.2246,1433.0245Q615.4113,1434.3147,614.47156,1435.131Q611.3545,1437.4493,613.45544,1440.1661Q615.40967,1442.3542,617.03296,1442.9054Q618.87573,1443.736,621.3491,1444.086Q626.2142,1444.7344,634.58185,1444.0951Q642.73755,1443.593,666.24713,1441.0922L665.18335,1427.2137 Z"/> </g> <g style="fill:rgb(0,0,0); fill-opacity:1.0; stroke-linejoin: miter"> <path d="M643.9661,1411.199L634.4461,1419.1345Q626.8838,1418.8397,624.8785,1419.2285Q621.49603,1419.6641,619.77704,1420.848Q616.9542,1422.8254,617.4765,1424.9888Q617.8686,1426.6667,621.16284,1427.6935Q624.9233,1428.8605,634.24756,1429.7046L668.97003,1429.3645L668.86316,1416.4988L659.19543,1418.1309L643.9661,1411.199 Z"/> </g> <g style="fill:rgb(34,95,112); fill-opacity:1.0; stroke-linejoin: miter"> <path d="M640.988,1423.3245L653.0357,1426.3038L666.48,1426.1682L666.9351,1419.4095L669.6508,1419.1145Q670.05316,1402.8207,671.28644,1376.7183Q671.55554,1369.5663,671.3854,1364.2562Q671.2672,1359.7397,670.38965,1354.4896Q669.778,1350.5961,668.20135,1344.8721Q667.4652,1341.2349,667.38257,1340.281Q666.66156,1334.1023,666.74585,1330.0734Q666.5861,1320.6803,669.4234,1290.8116L649.9823,1287.6947L638.73816,1281.8087L626.55865,1289.686Q631.18097,1321.1846,634.3282,1332.7224Q637.3261,1345.0111,644.99445,1361.1646L640.988,1423.3245 Z"/> </g> <g style="fill:rgb(71,151,173); fill-opacity:1.0; stroke-linejoin: miter"> <path d="M617.61414,1243.9342L616.2194,1294.2999L654.57074,1292.8828L663.4836,1292.114Q672.0582,1291.0779,682.2292,1285.0643Q677.8171,1245.3221,677.7589,1232.6637Q677.53,1223.745,678.1688,1217.0002L680.50214,1197.9991Q680.8902,1193.6117,680.0218,1189.5996Q677.8029,1181.33,672.7947,1175.126Q666.9252,1167.137,658.6665,1162.7666L655.27386,1156.1537Q649.9876,1156.1826,645.35675,1160.8771Q641.51843,1165.0251,635.3277,1175.0232Q630.5256,1180.1472,628.25415,1183.2979Q625.1516,1187.7681,624.30206,1190.0518Q621.56696,1195.7821,619.94885,1210.1937L617.61414,1243.9342 Z"/> </g> <g style="fill:rgb(34,43,50); fill-opacity:1.0; stroke-linejoin: miter"> <path d="M632.5488,1289.5239L632.5488,1289.5245L652.31726,1289.4084C653.9157,1289.3987,655.2189,1290.6869,655.2283,1292.285L655.2283,1292.2855L655.30273,1304.984C655.3123,1306.5822,654.0242,1307.8854,652.4259,1307.8947L652.4259,1307.8955L632.6574,1308.0112C631.8899,1308.0157,631.152,1307.7148,630.606,1307.1757C630.06024,1306.6359,629.751,1305.9015,629.74646,1305.1342L629.74646,1305.1346L629.6718,1292.4347C629.6673,1291.6675,629.96783,1290.9298,630.50745,1290.3834C631.04694,1289.8379,631.78125,1289.5284,632.5488,1289.5239L632.5488,1289.5245 M632.5827,1295.3121L635.45984,1292.4011L635.5343,1305.1002L632.6234,1302.2234L652.39185,1302.1068L649.5149,1305.0178L649.4403,1292.3187L652.3513,1295.196L632.5827,1295.3121 Z"/> </g> <g style="fill:rgb(255,188,147); fill-opacity:1.0; stroke-linejoin: miter"> <path d="M638.5539,1276.3707C638.5539,1276.3707,638.2701,1278.2014,636.2956,1280.0038C635.44525,1280.7379,633.8279,1281.4694,632.38544,1282.0308C631.5857,1282.4916,631.19464,1282.4137,630.64496,1284.2709C630.1086,1285.4734,628.9506,1287.3888,626.8986,1288.3927C625.97015,1288.7119,623.7899,1288.3857,624.0151,1290.3207C624.213,1292.3734,626.0651,1292.0798,627.3306,1292.0725C629.55865,1291.7041,631.55707,1289.7462,631.55707,1289.7462L633.8811,1287.9873C633.8811,1287.9873,633.904,1288.556,634.17676,1290.3385C634.39325,1291.7518,634.2772,1293.2651,635.0759,1295.2008C637.79364,1299.5048,639.0197,1295.5107,639.0197,1295.5107C641.0451,1297.8094,642.7329,1295.4211,642.7329,1295.4211C645.69653,1296.708,646.0359,1294.1062,646.07355,1294.2542C646.19727,1294.7415,648.1489,1296.2795,649.42523,1293.2018C649.42523,1293.2018,650.52356,1289.8728,650.3548,1288.124C650.43494,1286.9653,650.1571,1283.6924,648.8923,1281.3204C648.11566,1278.4408,648.8203,1278.9866,649.0418,1276.5096 Z"/> </g> <g style="fill:rgb(34,43,50); fill-opacity:1.0; stroke-linejoin: miter"> <path d="M605.92175,1300.2811L644.5494,1300.0543L683.17694,1299.8275Q683.32086,1324.3687,683.46515,1348.9095Q644.8376,1349.1366,606.2097,1349.3632Q606.0658,1324.822,605.92175,1300.2811 Z"/> </g> <g style="fill:rgb(255,255,255); fill-opacity:1.0; stroke-linejoin: miter"> <path d="M566.1719,662.4428L566.17194,662.44336L566.172,662.44385L566.17194,662.44336L566.1719,662.4428L566.17194,662.44336L566.172,662.44385Q566.17194,662.44336,566.1719,662.4428"/> </g> <g style="fill:rgb(255,255,255); fill-opacity:1.0; stroke-linejoin: miter"> <path d="M566.1719,662.4428L566.17194,662.44336L566.172,662.44385L566.17194,662.44336L566.1719,662.4428L566.17194,662.44336L566.172,662.44385Q566.17194,662.44336,566.1719,662.4428"/> </g> <g style="fill:rgb(240,147,34); fill-opacity:1.0; stroke-linejoin: miter"> <path d="M489.80478,1200.3822Q462.52948,1200.3822,435.25412,1200.3824L428.43524,1200.3832Q312.9718,1200.3824,197.5082,1200.3827C197.5082,1200.3827,197.5082,1200.3827,197.5082,1200.3827L197.5008,1200.3839Q188.55103,1200.3829,179.6089,1200.3829C179.00812,1201.0498,178.51414,1201.3278,178.07234,1201.3278C175.43837,1201.3278,170.59528,1204.9814,168.81087,1208.38C167.02647,1211.6938,166.85655,1217.3868,168.47092,1221.1254C170.5949,1226.3933,177.13776,1230.2168,183.8502,1230.2168C185.2949,1230.217,188.60854,1231.5767,191.49782,1233.2762C202.37366,1239.9038,224.8054,1249.2506,243.32874,1254.7732C245.79279,1255.5383,255.73428,1257.9176,266.69522,1260.4664C269.7539,1261.2312,273.57764,1262.0807,275.19214,1262.5056C276.80637,1262.9303,280.1204,1263.5254,282.4144,1263.7805C284.79355,1264.0353,289.7218,1264.63,293.4604,1265.0549C307.04968,1266.6079,321.18912,1267.3802,335.2057,1267.3805C351.86298,1267.3805,368.34677,1266.2894,383.5276,1264.1211C402.30603,1261.4022,435.9535,1252.6501,447.2543,1247.6375C448.69876,1246.9578,453.62714,1244.9186,458.30045,1242.9642C462.97382,1241.0947,470.45087,1237.441,474.86935,1234.9772C480.6469,1231.7474,484.21573,1230.303,487.35956,1229.9634C496.96112,1228.8588,502.0595,1223.676,502.0595,1215.0093C502.0595,1207.957,499.1706,1203.9633,492.033,1201.4142C491.1126,1201.06,490.4086,1200.7587,489.81522,1200.3822 Z M336.37097,1200.4791L336.89566,1200.4796L336.89566,1200.4806L336.37714,1200.4799L336.37714,1200.4811C336.3721,1200.4794,336.3671,1200.4791,336.36218,1200.4791 Z"/> </g> <g style="fill:rgb(123,168,180); fill-opacity:1.0; stroke-linejoin: miter"> <path d="M525.50665,1241.9718L527.49255,1292.3177Q489.12143,1291.1184,489.12714,1291.351Q482.63666,1291.0842,480.20575,1290.6869Q470.87558,1289.4766,461.37866,1283.8574Q465.32382,1244.0663,465.2334,1231.4081Q465.35767,1222.4874,464.63983,1215.7507L462.08356,1196.7782Q461.6439,1192.3956,462.46506,1188.3737Q464.58685,1180.0787,469.52182,1173.8159Q475.29724,1165.7588,483.50412,1161.2917L486.81876,1154.6394Q493.25668,1155.126,496.79065,1159.2461Q500.67737,1163.3489,506.98505,1173.2733Q512.9862,1179.4209,515.9287,1184.021Q520.40045,1189.3949,522.7759,1208.261L530.53156,1220.7753L568.5437,1232.4213Q570.3355,1236.8978,569.8657,1240.1772Q569.63983,1243.2711,566.45654,1251.5408L525.50665,1241.9718 Z"/> </g> </g> </svg>