<?xml version="1.0" encoding="utf-8"?>
<svg xmlns="http://www.w3.org/2000/svg" xmlns:xlink="http://www.w3.org/1999/xlink" version= "1.1" width="1399px" height="1123px" viewBox="-273 203 1399 1123">
<g id="layer1">
<g style="fill:rgb(53,143,195); fill-opacity:1.0; stroke-linejoin: miter">
<path d="M-273.00095,201.55545C-273.3838,201.55545,-273.75098,201.70753,-274.0217,201.97826C-274.29242,202.24898,-274.4445,202.61613,-274.4445,202.999L-274.44348,1326.0C-274.44348,1326.7972,-273.79718,1327.4435,-272.99994,1327.4435L1126.001,1327.4445C1126.3838,1327.4445,1126.751,1327.2925,1127.0217,1327.0217C1127.2925,1326.751,1127.4446,1326.3838,1127.4446,1326.001L1127.4436,203.0C1127.4436,202.20276,1126.7974,201.55646,1126.0,201.55646L-273.00095,201.55545 Z"/>
</g>
<g style="fill:rgb(170,105,85); fill-opacity:1.0; stroke-linejoin: miter">
<path d="M-275.18033,1107.358L399.2427,1107.3585L1073.6658,1107.359Q1073.6658,1221.153,1073.6658,1334.9469Q399.2427,1334.9474,-275.18033,1334.9479Q-275.18033,1221.153,-275.18033,1107.358"/>
</g>
<g style="fill:rgb(0,0,0); fill-opacity:1.0; stroke-linejoin: miter">
<path d="M702.8372,1090.0208C677.6973,1090.0205,657.52313,1068.3431,660.0267,1042.6987C662.2077,1020.34924,682.30035,1003.9768,704.7548,1003.9768L1010.6353,1003.9785C1015.09906,1003.97766,1018.71783,1000.3594,1018.71783,995.8955L1018.71783,995.89685C1018.71783,991.43176,1015.09906,987.81433,1010.6353,987.81433L705.3151,987.81384C672.9052,987.81335,644.6446,1012.7871,643.6724,1045.1815C642.6668,1078.7028,669.5407,1106.1909,702.8326,1106.1914L1010.6351,1106.193C1015.0992,1106.1921,1018.7177,1102.5736,1018.7177,1098.1096L1018.7177,1098.1051C1018.7177,1093.6421,1015.0992,1090.023,1010.6353,1090.023L702.8372,1090.023 Z"/>
</g>
<g style="fill:rgb(235,240,243); fill-opacity:1.0; stroke-linejoin: miter">
<path d="M660.0267,1042.6996C657.5224,1068.3431,677.6973,1090.0215,702.8372,1090.0215L1009.1015,1090.023C995.7526,1061.3413,995.7526,1032.6603,1009.1015,1003.9785L704.7557,1003.9785C682.2989,1003.9774,662.2077,1020.34924,660.0267,1042.6996 Z"/>
</g>
<g style="fill:rgb(225,230,233); fill-opacity:1.0; stroke-linejoin: miter">
<path d="M686.43634,1023.6052L1002.14044,1023.6068C1002.42816,1022.468,1002.8035,1021.33215,1003.1326,1020.19666L686.43634,1020.1963L686.43634,1023.6052 Z"/>
</g>
<g style="fill:rgb(225,230,233); fill-opacity:1.0; stroke-linejoin: miter">
<path d="M686.43634,1036.1512L999.7305,1036.1533C999.86554,1035.0144,1000.1519,1033.8778,1000.3265,1032.7423L686.43634,1032.742L686.43634,1036.1512 Z"/>
</g>
<g style="fill:rgb(225,230,233); fill-opacity:1.0; stroke-linejoin: miter">
<path d="M686.43634,1048.7045L999.18805,1048.7064C999.16583,1047.5684,999.16583,1046.4314,999.18805,1045.2955L686.43634,1045.2955L686.43634,1048.7045 Z"/>
</g>
<g style="fill:rgb(225,230,233); fill-opacity:1.0; stroke-linejoin: miter">
<path d="M686.43634,1061.2577L1000.3265,1061.2596C1000.1519,1060.122,999.86554,1058.9841,999.7305,1057.8495L686.43634,1057.8492L686.43634,1061.2577 Z"/>
</g>
<g style="fill:rgb(225,230,233); fill-opacity:1.0; stroke-linejoin: miter">
<path d="M686.43634,1073.8053L1003.1326,1073.8068C1002.8028,1072.6682,1002.42816,1071.5315,1002.14044,1070.3969L686.43634,1070.3971L686.43634,1073.8053 Z"/>
</g>
<g style="fill:rgb(136,70,54); fill-opacity:1.0; stroke-linejoin: miter">
<path d="M957.22906,970.0421C982.36896,970.0425,1002.54376,948.3645,1000.03986,922.7201C997.8593,900.3712,977.7663,883.99817,955.31146,883.9979L649.4317,883.9988C644.96783,883.9978,641.3493,880.3795,641.3493,875.91614L641.3493,875.9169C641.3493,871.4519,644.96783,867.834,649.4317,867.834L954.7514,867.8347C987.16144,867.83435,1015.42255,892.8091,1016.39435,925.20337C1017.4003,958.72375,990.5256,986.213,957.2337,986.21265L649.4317,986.2124C644.9676,986.21204,641.3492,982.5936,641.3492,978.1295L641.3492,978.1244C641.3492,973.6614,644.9676,970.0427,649.4317,970.0427L957.22906,970.04407 Z"/>
</g>
<g style="fill:rgb(235,240,243); fill-opacity:1.0; stroke-linejoin: miter">
<path d="M1000.03986,922.7207C1002.5445,948.3645,982.36896,970.04285,957.22906,970.0425L650.9655,970.0427C664.31415,941.3613,664.3143,912.68054,650.96576,883.9988L955.31085,883.99915C977.7679,883.99927,997.8593,900.3712,1000.03986,922.7207 Z"/>
</g>
<g style="fill:rgb(225,230,233); fill-opacity:1.0; stroke-linejoin: miter">
<path d="M973.6303,903.626L657.92645,903.62634C657.63873,902.4879,657.26337,901.3518,656.9345,900.21655L973.6303,900.2174L973.6303,903.626 Z"/>
</g>
<g style="fill:rgb(225,230,233); fill-opacity:1.0; stroke-linejoin: miter">
<path d="M973.6302,916.1727L660.33636,916.17285C660.20123,915.0348,659.915,913.89746,659.7403,912.76196L973.6302,912.7632L973.6302,916.1727 Z"/>
</g>
<g style="fill:rgb(225,230,233); fill-opacity:1.0; stroke-linejoin: miter">
<path d="M973.6302,928.72546L660.8786,928.72595C660.90094,927.588,660.90094,926.45105,660.8786,925.31555L973.6302,925.3165L973.6302,928.72546 Z"/>
</g>
<g style="fill:rgb(225,230,233); fill-opacity:1.0; stroke-linejoin: miter">
<path d="M973.6302,941.2793L659.7402,941.27966C659.915,940.1416,660.2011,939.0039,660.33624,937.869L973.6302,937.87024L973.6302,941.2793 Z"/>
</g>
<g style="fill:rgb(225,230,233); fill-opacity:1.0; stroke-linejoin: miter">
<path d="M973.6302,953.8264L656.93427,953.82654C657.264,952.6881,657.6386,951.5513,657.9262,950.4164L973.6302,950.41797L973.6302,953.8264 Z"/>
</g>
<g style="fill:rgb(86,31,28); fill-opacity:1.0; stroke-linejoin: miter">
<path d="M76.599976,480.45374L84.00397,435.50577L91.40784,390.55783Q237.71524,414.65607,384.02252,438.7543Q376.6197,483.70227,369.21686,528.65027Q222.90848,504.552,76.599976,480.45374"/>
</g>
<g style="fill:rgb(86,31,28); fill-opacity:1.0; stroke-linejoin: miter">
<path d="M123.830185,883.2589C122.47032,891.47076,124.03697,900.00494,128.6981,906.90265C134.7256,915.8177,144.65051,921.04474,155.73364,920.87714C160.10982,920.811,164.44872,919.7896,168.39723,917.898C178.06343,913.2653,184.51784,904.5922,186.2076,894.3614L245.64389,535.42456L183.14017,525.07513L123.830185,883.2589 Z"/>
</g>
<g style="fill:rgb(86,31,28); fill-opacity:1.0; stroke-linejoin: miter">
<path d="M243.91867,545.8383L181.41489,535.4888C175.66138,534.53613,171.76923,529.09924,172.72266,523.3467L179.62222,481.67786L262.96198,495.47736L256.06183,537.1453C255.10846,542.8977,249.67249,546.7893,243.91867,545.8383 Z"/>
</g>
<g style="fill:rgb(236,154,94); fill-opacity:1.0; stroke-linejoin: miter">
<path d="M165.75525,500.78656L165.75592,500.78748C160.00171,499.8338,156.1095,494.3969,157.06287,488.64453L170.86224,405.30505C171.81506,399.55157,177.25095,395.66003,183.00436,396.61267L183.00516,396.61377C188.75806,397.56537,192.65024,403.0022,191.69684,408.75476L177.89737,492.09424C176.94476,497.84784,171.50781,501.74,165.75525,500.78656 Z"/>
</g>
<g style="fill:rgb(236,154,94); fill-opacity:1.0; stroke-linejoin: miter">
<path d="M269.92896,518.0347L269.92957,518.0358C264.17523,517.082,260.28314,511.64508,261.23645,505.8927L275.03607,422.55325C275.98853,416.79977,281.4254,412.9073,287.1781,413.86102L287.17877,413.86194C292.93176,414.81354,296.8233,420.24954,295.87036,426.00314L282.0711,509.34253C281.11823,515.09766,275.6822,518.9891,269.92896,518.0347 Z"/>
</g>
<g style="fill:rgb(86,31,28); fill-opacity:1.0; stroke-linejoin: miter">
<path d="M78.96631,507.8227L78.9671,507.8238C67.46106,505.91772,59.67737,495.04486,61.581665,483.53857L78.83084,379.36447C80.73581,367.8591,91.608734,360.07553,103.115265,361.97995L103.115906,361.98087C114.62039,363.88498,122.40427,374.75778,120.49985,386.26395L103.25064,490.438C101.34561,501.94342,90.47272,509.7271,78.96631,507.8227 Z"/>
</g>
<g style="fill:rgb(86,31,28); fill-opacity:1.0; stroke-linejoin: miter">
<path d="M349.81793,552.6693L349.81873,552.67035C338.31238,550.7641,330.52887,539.89136,332.4331,528.3851L349.6823,424.21143C351.5874,412.70596,362.46014,404.92227,373.96667,406.8267L373.96735,406.8276C385.472,408.73172,393.2558,419.60455,391.35162,431.11084L374.1023,535.28455C372.19672,546.7915,361.3238,554.5754,349.81793,552.6693 Z"/>
</g>
<g style="fill:rgb(90,73,57); fill-opacity:1.0; stroke-linejoin: miter">
<path d="M113.66818,492.16205L113.66885,492.1631C107.91458,491.20935,104.02231,485.77252,104.97574,480.0199L118.775055,396.68036C119.72775,390.92685,125.16379,387.0355,130.9172,387.988L130.918,387.98904C136.67075,388.94064,140.5629,394.3777,139.60953,400.13007L125.81027,483.46967C124.8577,489.22314,119.42166,493.1147,113.66818,492.16205 Z"/>
</g>
<g style="fill:rgb(90,73,57); fill-opacity:1.0; stroke-linejoin: miter">
<path d="M322.01572,526.66095L322.01645,526.662C316.26212,525.7083,312.3699,520.2714,313.32333,514.51886L327.12268,431.17947C328.07544,425.426,333.51245,421.53403,339.265,422.48727L339.26562,422.4882C345.01843,423.4399,348.9098,428.8759,347.9572,434.62918L334.15796,517.9685C333.20453,523.72107,327.76855,527.61255,322.01572,526.66095 Z"/>
</g>
<g style="fill:rgb(86,31,28); fill-opacity:1.0; stroke-linejoin: miter">
<path d="M547.6123,1074.8027L359.42935,1074.8033L359.4293,1049.1407C359.4293,1044.4163,363.25952,1040.5872,367.98288,1040.587L539.0586,1040.5883C543.783,1040.5873,547.6123,1044.4177,547.6123,1049.1409L547.6124,1074.8027 Z"/>
</g>
<g style="fill:rgb(90,73,57); fill-opacity:1.0; stroke-linejoin: miter">
<path d="M564.72034,1100.4642L342.32126,1100.4647L342.32123,1083.3558C342.32123,1073.9073,349.9798,1066.2477,359.42935,1066.2478L547.6133,1066.249C557.0619,1066.2482,564.7214,1073.9066,564.7214,1083.3563L564.7214,1100.4642 Z"/>
</g>
<g style="fill:rgb(252,184,38); fill-opacity:1.0; stroke-linejoin: miter">
<path d="M564.72034,1109.0178L342.32126,1109.0183C337.59702,1109.0175,333.76773,1105.187,333.76773,1100.4639L333.76773,1100.4647C333.7677,1095.7394,337.59793,1091.9103,342.32123,1091.9103L564.72034,1091.9116C569.44464,1091.9105,573.2739,1095.741,573.2739,1100.4642L573.2739,1100.4652C573.2739,1105.1886,569.4436,1109.0178,564.72034,1109.0178 Z"/>
</g>
<g style="fill:rgb(236,154,94); fill-opacity:1.0; stroke-linejoin: miter">
<path d="M152.08391,634.36554L175.81395,727.7139L199.54395,821.0624L152.08391,634.36554"/>
</g>
<g style="fill:rgb(246,175,111); fill-opacity:1.0; stroke-linejoin: miter">
<path d="M254.00137,758.0291L255.87363,759.81177Q271.12473,774.0285,271.18033,782.3346Q271.99442,791.5609,264.9872,806.18274Q270.04208,829.28613,266.2378,842.317Q263.41425,850.548,256.7256,856.75757Q252.6706,861.28357,236.13712,872.2091Q228.3104,884.1083,223.43027,887.8536Q217.74039,892.35114,213.89005,893.5932Q193.28888,900.6779,158.3083,887.61957Q122.23967,875.3157,47.214504,839.6907L50.603294,727.37256L105.95235,728.1508L130.46724,702.3481Q172.16939,713.96533,185.9806,713.32623Q193.11743,713.2177,198.71957,711.71216Q223.6702,703.13806,222.82242,704.099Q233.25763,702.3899,237.57617,703.37585Q249.70529,704.5018,253.84402,716.5679Q257.41135,724.8186,254.00137,758.0291"/>
</g>
<g style="fill:rgb(255,255,255); fill-opacity:1.0; stroke-linejoin: miter">
<path d="M6.5847616,726.94556L44.3802,727.4225L82.17553,727.9006Q81.2644,800.0194,80.35342,872.1376Q42.55821,871.6614,4.76271,871.18494Q5.673797,799.0652,6.5847616,726.94556"/>
</g>
<g style="fill:rgb(255,177,133); fill-opacity:1.0; stroke-linejoin: miter">
<path d="M97.32228,733.3445L101.08708,729.5525Q127.40639,703.0603,134.93367,697.5244Q139.40584,693.65796,146.17747,690.3161Q149.10307,688.84753,153.97087,688.4573Q154.68102,688.37854,157.88652,688.5208L158.3043,725.6141L97.32228,733.3445"/>
</g>
<g style="fill:rgb(255,177,133); fill-opacity:1.0; stroke-linejoin: miter">
<path d="M348.77356,1322.9698L348.7736,1322.9707L348.77362,1322.9716L348.77356,1322.9698"/>
</g>
<g style="fill:rgb(0,0,0); fill-opacity:1.0; stroke-linejoin: miter">
<path d="M781.72284,1259.0878L781.7229,1259.0885L781.72296,1259.0892L781.7229,1259.0885L781.72284,1259.0878L781.7229,1259.0885L781.72296,1259.0892Q781.7229,1259.0885,781.72284,1259.0878"/>
</g>
<g style="fill:rgb(0,0,0); fill-opacity:1.0; stroke-linejoin: miter">
<path d="M-273.43265,718.2987L-273.4326,931.4498L45.002247,931.44904L45.002254,718.29944L-273.43265,718.2987 Z"/>
</g>
<g>
<g style="fill:rgb(11,46,67); fill-opacity:1.0; stroke-linejoin: miter">
<path d="M921.8407,560.9116C923.02496,561.1265,924.1058,561.3719,924.9641,561.6277L924.959,561.62915Q925.80975,566.4458,926.17944,571.79114Q926.55963,577.36487,926.4701,584.38684Q926.43475,587.4541,926.3025,591.2987Q926.25714,592.65344,926.184,594.42126C925.94183,594.32794,925.6816,594.2769,925.407,594.2769C925.3924,594.2769,925.3779,594.27704,925.36316,594.2773C924.9125,594.2773,924.36304,594.3555,924.1476,594.43396C924.00854,594.4921,923.87006,594.5807,923.7358,594.6933Q923.12885,589.04755,922.805,585.4902Q922.15656,578.49634,921.90424,573.09625Q921.59985,566.0016,921.8356,560.9116 Z M956.0915,624.4569C957.1111,624.4569,957.38574,624.5351,957.6994,624.8881C957.91504,625.1431,958.24854,625.5746,958.4251,625.8685C958.6212,626.1627,959.01324,626.53534,959.3075,626.69196C959.75867,626.9274,960.1114,627.6727,961.6802,631.5358C962.7,634.0654,965.5823,641.1445,968.0728,647.30206C975.74023,666.2058,979.0348,674.442,978.93665,674.5396C978.93256,674.5439,978.91876,674.5458,978.89594,674.5458C978.6973,674.5458,977.81903,674.39624,976.7991,674.16754C973.77924,673.4808,968.73975,672.7556,964.8374,672.40234C962.4582,672.1981,959.6144,672.10034,956.62115,672.10034C951.2754,672.10034,945.45325,672.41254,940.9529,672.99084C938.5017,673.3239,935.1483,673.9515,934.364,674.24567C934.1862,674.3155,934.0436,674.3502,933.9397,674.3502C933.7226,674.3502,933.67554,674.1978,933.8346,673.89294C934.011,673.5789,937.2859,665.20557,947.03186,640.34064C950.40466,631.69275,952.26764,627.2021,952.5225,627.0063C953.0717,626.5944,953.87555,625.79016,954.4051,625.0646C954.8365,624.4959,954.95416,624.4569,956.0915,624.4569 Z M894.34076,624.4568C895.34094,624.4568,895.61536,624.535,895.9294,624.8881C896.145,625.14294,896.4782,625.57446,896.6549,625.8683C896.85077,626.1625,897.243,626.5351,897.53735,626.6919C897.92957,626.88837,898.2431,627.37854,898.6943,628.51575C901.9493,636.497,906.85187,648.6354,909.6756,655.63605C911.55786,660.323,914.0288,666.44135,915.1466,669.2255C916.26434,671.9904,917.18585,674.3635,917.18585,674.48083C917.18585,674.5672,917.123,674.62164,917.0274,674.62164C916.9927,674.62164,916.9533,674.61444,916.9114,674.5987C916.3232,674.3635,911.6757,673.48065,909.048,673.1081C904.49817,672.4337,899.3123,672.09534,894.0217,672.09534C889.006,672.09534,883.89594,672.3995,879.14343,673.01013C876.692,673.30426,873.39777,673.9515,872.5348,674.2851C872.4005,674.3354,872.2985,674.36053,872.22577,674.36053C872.12866,674.36053,872.0838,674.3157,872.0838,674.2261C872.0838,673.9709,876.2214,663.3228,882.43787,647.5961C884.3201,642.7916,886.90875,636.22235,888.1833,632.9868C890.3404,627.49615,890.5365,627.0843,891.1836,626.6723C891.5563,626.4174,891.9681,626.0253,892.1052,625.79C892.65424,624.6916,893.06616,624.4568,894.34045,624.4568 Z M752.70575,320.89328C752.5024,320.90082,751.0754,321.93857,749.4545,323.10562C746.5915,325.1877,745.55035,327.26993,713.0164,394.03003C694.6022,431.8347,679.246,462.74203,678.85565,462.74203C678.4652,462.74203,674.23584,461.4407,669.4207,459.81393C664.90094,458.26614,661.0291,457.07172,660.6085,457.07172C660.58704,457.07172,660.5746,457.07483,660.57153,457.08115C660.50635,457.14624,660.2463,458.83786,659.98584,460.855L659.5304,464.49893L664.34546,468.2728C668.4448,471.46127,669.09546,472.3071,669.09546,474.064C669.09546,475.30014,668.64,476.4064,667.9242,476.9921C667.0134,477.6428,666.8182,478.35843,667.07837,479.72482C667.27356,480.70084,667.1435,481.74197,666.75323,482.0023C666.36255,482.19754,666.29755,483.23856,666.49274,484.21457C666.68805,485.25565,666.6229,486.23172,666.2324,486.49197C665.1262,487.14267,665.38654,489.09464,666.75323,490.78647C668.2495,492.60843,667.7941,494.62552,665.90717,494.62552C664.9312,494.62552,664.15027,495.34128,663.43445,496.83786C662.39343,498.98502,662.39343,499.05002,664.0852,500.67673C665.712,502.23856,669.87634,504.3857,671.30774,504.3857C671.63306,504.3857,672.47906,503.40976,673.19476,502.30356C674.431,500.41666,674.431,500.09128,673.5851,499.11526C672.6878,498.1102,672.82007,497.5804,673.5997,497.5804C674.2334,497.5804,675.29474,497.9304,676.5783,498.65976C678.40015,499.7007,679.3762,500.87204,679.8966,502.4337C680.2871,503.67007,682.82477,508.94052,685.49255,514.14606C689.7873,522.4097,691.02344,524.23157,695.5133,528.72144C698.31116,531.5192,702.6056,536.59454,704.94794,539.91296C712.8212,551.0397,723.7525,561.38556,735.0093,568.41284L737.7422,570.16974L737.6772,576.4813L737.61206,582.85803L741.64636,591.9025C743.9889,597.3032,745.94086,602.63885,746.2662,604.98114C746.8518,608.62506,746.7217,609.47107,744.57446,615.9778C743.3381,619.8168,741.7115,623.78595,740.9958,624.762C740.27997,625.738,739.434,627.36475,738.9786,628.4059C738.00256,631.1386,738.1326,637.38525,739.369,641.02905C740.27997,643.827,740.27997,644.41266,739.49915,645.714C738.1978,647.7312,737.54706,652.74133,738.1326,656.4503C738.45807,658.6626,739.23883,660.1591,741.0607,662.1764C742.75256,663.99817,743.5984,665.5598,743.5984,666.79614C743.66345,669.464,744.76965,673.95374,746.2662,677.46735C747.17725,679.61456,748.2182,680.7859,749.71484,681.5666C751.4717,682.3475,751.9922,683.1283,752.64294,685.73114C754.9853,694.97064,761.88245,709.7411,770.79675,724.77203C773.6597,729.522,776.32764,734.72723,776.78314,736.354C777.30365,738.24097,778.67035,740.45337,780.6222,742.47046C786.4783,748.6519,786.4783,748.7821,787.129,757.6314C787.51953,763.8779,787.45435,766.09033,786.7385,767.782C786.28314,768.88824,785.69745,771.686,785.5023,773.96356C785.242,776.17596,784.6564,778.4532,784.1359,779.03894C783.6153,779.6245,782.8344,782.55255,782.31396,785.5457C781.85834,788.5388,781.2728,791.5319,781.01245,792.11755C780.68713,792.9635,781.14264,793.354,783.29004,794.0045L786.0878,794.85046L785.69745,799.7304C785.30707,805.26154,783.4201,810.7271,780.75214,814.1107C779.77625,815.34705,778.47485,817.234,777.8892,818.34015C776.0673,821.9189,766.50226,831.5489,764.09485,832.3299C761.81744,833.0456,760.97156,834.9976,762.4681,835.9084C763.50916,836.5591,763.2489,838.18585,762.07776,838.18585C761.5571,838.18585,760.71124,838.57635,760.2559,839.0317C759.80035,839.48737,750.6908,841.2441,739.6293,843.001C728.76294,844.7577,716.07465,846.84,711.38983,847.55566L702.93097,848.98724L702.7357,854.90857L702.54047,860.8948L700.4582,861.28516C699.2871,861.4805,695.44824,862.19617,691.8694,862.78174C685.6228,863.888,685.36255,864.0182,685.16736,865.7099C685.03723,866.6859,684.5817,867.46674,684.1914,867.46674C682.8899,867.46674,661.4175,870.06934,659.8558,870.3949C659.14355,870.5729,658.70544,870.90326,658.49976,871.4483L968.0822,871.44965C968.0638,869.6002,967.8206,869.4672,965.35065,869.1583C963.78906,868.9632,957.8676,868.5078,952.14185,868.1173C946.4157,867.72705,939.90894,867.27167,937.6968,867.0763L933.5974,866.6859L933.5974,864.5386C933.5974,862.00104,933.9228,862.1311,922.7311,860.56964L914.7278,859.4634L914.72766,854.32275C914.72766,851.52496,914.59753,849.24744,914.4672,849.24744C914.33716,849.24744,912.7105,848.98724,910.82355,848.59686C908.3509,848.1414,906.2036,847.0353,902.9502,844.6276C900.47754,842.8057,898.4606,840.91876,898.4606,840.39825C898.4606,839.87787,898.13513,839.48737,897.8099,839.48737C897.4194,839.48737,896.83374,838.7715,896.4434,837.92566C896.05304,837.0799,894.9468,836.03864,894.10095,835.6482C892.53925,834.93243,892.4741,834.8675,893.6455,834.02155C895.0769,832.9154,894.23114,831.614,891.303,830.37775C889.2207,829.5319,888.9607,829.0765,890.06665,827.9702C890.58734,827.4497,890.1316,826.79913,888.44,825.4976C887.1385,824.52167,886.0975,823.1552,886.0975,822.5045C886.0975,821.85394,884.6008,819.57635,882.77905,817.364C879.91595,813.91534,879.5256,813.13464,879.91614,811.44293C880.3065,809.62103,882.5188,807.0184,887.07355,802.9188C888.17975,802.008,889.6763,800.3813,890.45703,799.3401L891.88855,797.388L887.9194,788.99426C885.77216,784.37445,883.55975,778.90875,883.1043,776.82666C881.9982,772.14166,879.98114,768.1723,874.25507,759.25806C869.5051,751.84015,868.26886,748.91223,865.27576,737.9157C862.73804,728.61096,858.8989,718.46027,850.7006,699.00494C846.8615,689.9605,842.567,679.1591,841.1355,675.05975C837.6218,664.9091,828.31696,645.25854,823.7623,638.4264C821.7451,635.43317,817.2555,629.9674,813.80695,626.38873C808.08093,620.4675,807.4953,619.62164,807.23505,616.95386C807.03986,615.3271,807.1699,613.30994,807.4953,612.399C807.8857,611.2928,807.6254,609.21075,806.77954,606.0224C806.13025,603.4902,805.7401,601.3467,805.997,601.3376L806.00116,601.3389C806.26404,601.344,807.1072,602.44763,807.8857,603.8101C810.6185,608.69025,816.0842,613.0497,820.5089,614.02576C822.98157,614.48126,826.6904,617.9298,827.21094,620.077C827.406,621.11816,828.5773,623.33044,829.8136,625.08734C831.05,626.84424,832.091,628.6661,832.091,629.12164C832.091,630.6832,837.5567,635.43317,841.8513,637.5805C845.6902,639.53253,846.7313,639.7278,852.5876,639.85785C854.0263,639.90326,855.15466,639.93463,856.0674,639.93463C859.0762,639.93463,859.7393,639.5941,861.43677,638.2962C864.88525,635.6284,865.7312,633.67645,864.36475,631.6593C862.99835,629.51196,863.0635,629.12164,864.82007,628.34076C865.92645,627.8201,866.3168,627.03937,866.447,624.9572C866.64215,622.54974,866.447,622.09424,864.36475,620.5326C862.0224,618.71063,861.37177,617.27924,862.80316,616.8237C863.97437,616.4333,862.99835,613.7654,859.68,608.8204C858.05316,606.2826,856.1011,602.63885,855.3854,600.7519C853.7588,596.5224,849.1387,591.2519,846.14557,590.2758C844.8443,589.8854,843.28265,588.519,842.0463,586.762C840.74493,584.94037,839.1833,583.5737,837.6868,583.05316C835.4745,582.2724,835.3445,582.0122,835.3445,579.40955L835.3445,576.61145L839.1833,576.6129C841.26556,576.61145,844.584,576.35126,846.471,575.9608C850.8306,575.18,862.41266,571.60126,864.82007,570.29987C865.99146,569.64923,869.2448,569.1937,873.9296,568.99854C883.75494,568.6081,890.6523,567.30676,899.30646,564.1835C909.3268,560.5396,910.7584,560.14935,913.7516,560.14935C913.8776,560.1471,914.00586,560.1461,914.13617,560.1461C915.8095,560.1461,917.81824,560.3137,919.7429,560.57855L919.7378,560.57983Q919.56824,564.11774,919.6441,568.68695Q919.74725,574.22723,920.3453,581.57434Q920.8879,588.35815,922.1783,599.8372L922.6004,603.59937L922.59515,603.6005C922.5033,603.90216,922.4808,604.2081,922.4808,604.631C922.4808,605.359,922.4552,605.58887,922.29083,605.58887C922.25146,605.58887,922.20416,605.57574,922.1474,605.5531C921.9513,605.49384,921.01,605.18036,920.0295,604.8469C919.0687,604.51355,917.38226,604.1016,916.3037,603.94495C915.479,603.81995,914.7804,603.746,914.1115,603.746C912.15607,603.746,910.4543,604.3784,906.59705,606.21954C904.59686,607.1606,902.6358,608.0434,902.2043,608.1806C901.79266,608.31396,901.3679,608.3817,900.9172,608.3817C899.9085,608.3817,898.7706,608.0422,897.3608,607.3373C895.90765,606.61646,895.2401,606.3093,894.7496,606.3093C894.41254,606.3093,894.15906,606.4541,893.79193,606.70984C893.3919,606.9631,893.1554,607.0803,892.95215,607.0803C892.85645,607.0803,892.76825,607.0542,892.67413,607.0041C892.4117,606.8617,892.1262,606.7937,891.8543,606.7937C891.41455,606.7937,891.0096,606.971,890.79144,607.29816C890.06604,608.41583,890.1249,609.98474,890.92883,610.8475C891.21106,611.14905,891.5172,611.3011,891.8451,611.3011C892.1783,611.3011,892.5338,611.144,892.9095,610.8278C893.22296,610.5532,893.55646,610.3374,893.65454,610.3374C893.92914,610.3374,895.0076,611.69073,895.145,612.181C895.2038,612.4358,895.2232,612.92596,895.18414,613.29846C895.12524,613.9068,895.0663,613.96533,894.41925,614.02423C894.295,614.0355,894.191,614.0425,894.10266,614.0425C893.73096,614.0425,893.63654,613.9189,893.47815,613.4752C893.3309,613.0496,893.2245,612.9109,892.93115,612.9109C892.87317,612.9109,892.8075,612.9163,892.7331,612.926C892.26215,612.98505,892.1839,613.08295,892.1249,613.69073C892.06616,614.2989,892.16425,614.4948,892.7526,615.00464C893.26245,615.45557,893.4586,615.7697,893.4586,616.22064C893.4583,616.61273,893.3604,616.80865,893.16437,616.80865C893.14996,616.80865,893.1363,616.80835,893.1233,616.80835C892.85236,616.80835,892.85376,616.9154,892.1052,621.57404C891.7915,623.49554,891.4976,625.12335,891.41895,625.1821C891.3095,625.29156,891.1098,625.34326,890.891,625.34326C890.6001,625.34326,890.27576,625.25195,890.0854,625.08417C889.9391,624.95593,889.8439,624.89197,889.7482,624.89197C889.63873,624.89197,889.5286,624.9756,889.3403,625.14294C888.8109,625.61346,888.8501,626.143,889.4188,626.7121L889.909,627.2019L886.0851,636.94775C882.3005,646.5961,880.4964,651.2039,874.4174,666.89197L871.2993,674.9125L872.1034,675.9714C873.2997,677.50116,876.3392,680.3443,877.94714,681.403C879.7709,682.6189,882.3789,683.91345,884.3201,684.56036C887.57495,685.6498,891.1211,686.17426,894.66846,686.17426C901.53,686.17426,908.3961,684.2121,913.1661,680.5797C915.0292,679.1679,916.8134,677.2264,917.5782,675.77545L918.0488,674.8929L915.95074,669.73517C910.2835,655.63605,906.4007,646.06665,900.79266,632.2417L898.7334,627.1825L899.22363,626.7903C899.8511,626.2998,899.89044,625.5548,899.30206,625.1626C899.1094,625.0278,898.9925,624.9591,898.8859,624.9591C898.77594,624.9591,898.67737,625.0326,898.5176,625.1824C898.36475,625.32336,898.2472,625.39386,898.1438,625.39386C898.07465,625.39386,898.01184,625.3624,897.949,625.2997C897.8629,625.2137,897.72424,625.1591,897.59467,625.1591C897.5471,625.1591,897.50073,625.16644,897.45874,625.18225C897.41797,625.19745,897.3824,625.2091,897.3497,625.2091C897.1298,625.2091,897.04395,624.6858,896.49786,621.22095C895.8267,616.9141,895.82935,616.80835,895.5614,616.80835C895.54755,616.80835,895.533,616.80865,895.51776,616.80865L895.51746,616.81006C895.047,616.80865,895.12524,615.5145,895.59607,615.3772C895.7921,615.3382,896.1253,615.04395,896.3215,614.74976C896.6352,614.2595,896.6549,614.0832,896.4197,612.80804C895.9882,610.3769,895.92944,609.7298,896.18427,609.5531C896.2107,609.538,896.26154,609.53094,896.3322,609.53094C896.63055,609.53094,897.2834,609.6571,897.94916,609.84717C898.7922,610.1021,900.2827,610.3964,901.2631,610.5335C901.8524,610.60724,902.37823,610.64856,902.9073,610.64856C904.3495,610.64856,905.8152,610.34216,908.65594,609.5531C911.7148,608.69037,913.42084,608.3765,915.0681,608.3765L915.0688,608.3779C917.06885,608.3765,920.10803,609.122,921.91205,610.06305C922.4808,610.3573,922.4808,610.3573,922.36304,611.6122L922.2273,612.8734L927.9531,612.88666L928.2263,612.8476L928.08923,611.6122C927.9714,610.3573,927.9714,610.3573,928.5401,610.06305C930.36383,609.122,933.3836,608.3765,935.4232,608.3765C936.99194,608.3765,939.4234,608.82764,942.1492,609.6315C944.4221,610.306,946.13477,610.6347,947.80444,610.6347C949.28955,610.6347,950.74115,610.3747,952.52277,609.867C953.1761,609.6648,953.80475,609.5489,954.10535,609.5489C954.18353,609.5489,954.2395,609.55676,954.26794,609.57294C954.5229,609.7101,954.46405,610.3964,954.03265,612.80835C953.7973,614.0833,953.817,614.25964,954.1306,614.7499C954.3267,615.04425,954.6601,615.33826,954.85626,615.3773C955.3269,615.5148,955.3661,616.57367,954.9149,616.90704C954.67957,617.0834,954.4052,618.2012,953.9346,621.1427C953.5815,623.3388,953.28735,625.1627,953.2679,625.1627C953.2679,625.1824,953.03253,625.24133,952.7383,625.2998C952.6549,625.31464,952.5715,625.32196,952.49023,625.32196C952.2468,625.32196,952.0225,625.2557,951.8755,625.1234C951.7556,625.01294,951.6705,624.95856,951.57526,624.95856C951.4678,624.95856,951.3475,625.02765,951.1499,625.1627C950.5812,625.5548,950.60095,626.2999,951.2086,626.7707L951.67926,627.14325L950.1498,631.0652C949.28687,633.222,947.6006,637.5362,946.38477,640.6543C941.6391,652.87134,937.5212,663.4408,935.3445,669.02966C932.67773,675.8146,932.69714,674.8339,935.3053,677.5598C938.2467,680.658,941.0508,682.57996,944.77673,684.07025C948.3093,685.4832,952.3289,686.16315,956.376,686.16315C963.2252,686.16315,970.15393,684.21594,974.9363,680.5799C976.7991,679.1679,978.58356,677.2265,979.34845,675.77545L979.819,674.91254L974.19104,661.0094C971.1123,653.3619,966.7591,642.61523,964.5433,637.1442L960.50354,627.1826L960.9939,626.79047C961.5821,626.3195,961.6606,625.6332,961.15076,625.1824C960.92535,624.9764,960.76843,624.87335,960.62866,624.87335C960.48895,624.87335,960.36633,624.9764,960.2095,625.1824C960.0963,625.34064,960.0158,625.4142,959.93036,625.4142C959.8676,625.4142,959.80237,625.37463,959.7193,625.2998C959.63306,625.21375,959.49445,625.1593,959.3726,625.1593C959.32794,625.1593,959.2855,625.1666,959.2487,625.1824C959.2076,625.1969,959.17126,625.2078,959.1378,625.2078C958.90076,625.2078,958.81586,624.6571,958.24854,620.92694C957.8369,618.26025,957.6015,617.22076,957.3467,616.9657C956.7779,616.3972,956.89575,615.5734,957.58215,615.18134C958.5624,614.593,958.6801,613.0241,957.7584,612.92615C957.7058,612.9211,957.6575,612.91833,957.6126,612.91833C957.306,612.91833,957.1649,613.04755,956.9937,613.47534C956.8193,613.9191,956.70905,614.04266,956.3418,614.04266C956.25464,614.04266,956.1532,614.0357,956.03296,614.02454C955.40533,613.9656,955.3269,613.887,955.268,613.37726C955.1699,612.4948,955.54254,611.47504,956.18976,610.84753L956.7779,610.2788L957.5428,610.78876C958.0179,611.1224,958.3786,611.28937,958.6943,611.28937C958.9908,611.28937,959.2479,611.14215,959.52344,610.84753C960.6412,609.6516,960.2881,607.102,958.9547,606.7492C958.921,606.7423,958.88086,606.7391,958.836,606.7391C958.61945,606.7391,958.2895,606.81537,958.0134,606.9454C957.79626,607.0498,957.6518,607.10815,957.508,607.10815C957.30133,607.10815,957.0964,606.9875,956.6801,606.70984C956.3048,606.45435,956.04645,606.30945,955.7068,606.30945C955.2121,606.30945,954.54456,606.61664,953.0915,607.3376C951.6817,608.0423,950.54376,608.3818,949.535,608.3818C949.0843,608.3818,948.6594,608.314,948.24774,608.18085C947.8558,608.0435,945.87494,607.1606,943.8748,606.2196C941.8747,605.2589,939.698,604.3372,939.05084,604.141C938.2786,603.9086,937.35175,603.7954,936.33307,603.7954C934.4284,603.7954,932.2033,604.1912,930.06976,604.945C929.2853,605.2193,928.50104,605.49384,928.32434,605.5724C928.26965,605.58936,928.2234,605.5995,928.18414,605.5995C927.99835,605.5995,927.97144,605.37616,927.97144,604.631C927.97144,604.2131,927.94934,603.90924,927.8601,603.60986L927.8549,603.6113Q927.8657,603.5637,927.8738,603.5151Q928.7637,586.68463,928.5663,578.368Q928.43146,569.8226,927.25305,562.5165L927.25836,562.51794C930.6655,563.8909,935.8192,565.5499,936.9807,565.5499C937.69653,565.5499,938.152,565.0944,938.152,564.3136C938.152,563.6433,938.287,563.3775,938.991,563.3775C939.3804,563.3775,939.9437,563.45874,940.7547,563.5979C941.3794,563.7064,941.9703,563.7585,942.4606,563.7585C943.1449,563.7585,943.6342,563.65735,943.74786,563.4678C944.2684,562.68695,942.12115,560.3445,940.8848,560.3445C939.4533,560.3445,935.5493,558.84784,935.5493,558.3273C935.5493,558.0671,936.7856,557.6766,938.34717,557.4164C941.86084,556.83075,942.3163,556.5055,941.34033,555.39935C940.97186,554.9489,940.24286,554.7562,938.43994,554.7562C937.37744,554.7562,935.94196,554.82324,933.9876,554.9438C932.17334,555.048,930.83374,555.10547,929.82513,555.10547C927.6861,555.10547,927.03534,554.8471,926.5049,554.228C926.08685,553.69073,925.3951,553.26294,924.98236,553.19604L924.97705,553.1974Q923.9451,550.6504,922.85504,550.6504Q922.7632,550.6504,922.67096,550.6686L922.65625,550.6684Q922.61,550.6653,922.5644,550.6653Q922.1698,550.6653,921.83356,550.89935C921.69885,550.7748,921.56384,550.64777,921.4294,550.51917C918.6966,547.9814,917.85077,546.0295,919.4777,546.0295C919.8679,546.0295,921.36444,545.7041,922.7309,545.3137C924.68286,544.79315,925.1384,544.33765,925.1384,543.1014C925.1384,542.01935,924.83844,541.517,923.7843,541.517C922.93665,541.517,921.6015,541.84174,919.54254,542.4507C917.7857,542.97125,915.24805,543.4267,913.81647,543.4267C911.7994,543.4267,910.95355,543.88214,909.19684,545.7041C908.09064,547.0055,906.13855,548.3068,904.9022,548.69727C903.66595,549.0876,895.53235,549.47797,886.7482,549.6081C873.14905,549.80334,870.09076,549.9986,865.92645,551.16986C863.12256,551.9487,861.6705,552.26135,857.4132,552.26135C854.5573,552.26135,850.43884,552.1206,843.80334,551.88556C823.4369,551.1047,821.6151,550.9095,819.5327,549.2829C818.66724,548.57465,818.0871,548.27075,816.7855,548.27075C815.9345,548.27075,814.7752,548.4006,813.026,548.6321C806.58435,549.4129,804.6323,549.93353,803.396,550.9747C802.93066,551.3683,802.4655,551.56506,801.643,551.56506C800.9701,551.56506,800.0579,551.43335,798.711,551.16986C796.694,550.71423,795.00226,550.1287,795.00226,549.80334C795.00226,549.47797,793.7658,548.69727,792.26935,548.0466C790.2989,547.21893,789.02075,546.36755,788.0877,545.14545L788.0839,545.1467L788.51306,544.9165L788.7682,545.07367C789.4354,545.48157,790.1649,545.7841,790.82513,545.92456C790.8298,545.92554,790.8344,545.92645,790.83905,545.9275C790.8917,545.9385,790.9439,545.94855,790.99567,545.9574C791.012,545.9603,791.0284,545.96295,791.04474,545.9655C791.32416,546.01056,791.5958,546.0331,791.8599,546.0331C793.0684,546.0331,794.11597,545.56165,794.9995,544.62036C795.14856,544.4591,795.5357,544.1002,795.86084,543.8248C796.6144,543.184,797.1393,542.5774,797.7563,541.6496C798.3012,540.82477,798.9932,539.60614,799.13257,539.22327C799.199,539.044,799.22723,538.8764,799.2282,538.67944C799.2309,538.1231,799.5417,537.25665,800.00775,536.52893C800.0864,536.40137,800.3145,536.1436,800.5168,535.9485C800.71484,535.75287,800.96155,535.49115,801.05786,535.36383C801.79456,534.3985,802.0772,533.169,801.9941,531.33563C801.96924,530.8159,801.93317,530.5779,801.8452,530.32153C801.7295,529.97455,801.36633,529.24835,800.14886,526.89526C799.4908,525.62946,799.4632,525.5686,799.575,525.56836L799.5768,525.5697C799.5788,525.56836,799.581,525.56836,799.5833,525.56836C799.6535,525.56836,799.87506,525.5781,800.0845,525.5885C800.1799,525.59344,800.27344,525.59595,800.36505,525.59595C801.34375,525.59595,802.102,525.3101,802.6234,524.7508C802.9712,524.37646,803.11066,524.0899,803.27094,523.4059C803.34436,523.0881,803.40216,522.7794,803.40564,522.71906C803.4067,522.6185,803.4328,522.60364,803.76605,522.5544C804.7637,522.40125,805.31744,522.04346,805.4828,521.4527C805.64514,520.857,805.4472,520.1364,804.9013,519.3562L804.6962,519.0636L805.0217,518.94604C805.39606,518.8119,805.8659,518.5362,806.12225,518.30365C806.7356,517.7429,806.9124,516.85297,806.59045,515.9276C806.54596,515.8016,806.36615,515.43243,806.18475,515.1155L805.8659,514.5333L806.0155,514.01715C806.1319,513.60614,806.16864,513.42334,806.1682,513.1514C806.18195,512.26495,805.73425,511.5596,804.74835,510.9139L804.4245,510.70285L804.4702,510.53525C804.55927,510.20895,804.57477,509.81406,804.5151,509.48642C804.42236,508.99942,804.1617,508.62808,803.6268,508.2852C803.2984,508.07462,802.86646,507.8748,802.3065,507.6655L802.0438,507.5674L801.96014,507.31216C801.8473,506.9703,801.6005,506.5563,801.41614,506.39658C801.35376,506.3422,801.29016,506.2939,801.22437,506.25174C801.0849,506.16238,800.93677,506.10068,800.7777,506.0668L800.77356,506.06595C800.75275,506.06155,800.7316,506.0577,800.7105,506.0544C800.6345,506.04202,800.5558,506.03586,800.4744,506.03586C800.1186,506.03586,799.7107,506.15317,799.2305,506.38803L798.7494,506.62515L798.732,506.48013C798.6978,506.15512,798.3865,504.67575,798.2483,504.16904C797.399,501.07852,795.9033,498.39505,793.7061,496.03342C793.0521,495.3287,791.7168,494.13168,790.931,493.5402C790.4565,493.183,789.9555,492.8356,789.4349,492.5018C787.44147,491.22397,785.1583,490.1437,782.9494,489.4476C782.42,489.28116,782.2973,489.23807,782.03406,489.06918C781.98193,489.0358,781.9242,488.99734,781.8568,488.95224C781.68,488.8323,781.5023,488.71524,781.3238,488.60074C779.84985,487.6559,778.3185,486.89346,776.79987,486.3541C776.2723,486.16525,775.0946,485.85648,774.28735,485.68503C774.27075,485.68124,774.254,485.6779,774.23773,485.67453C774.0672,485.63864,773.9148,485.60953,773.7907,485.58945C773.77466,485.58694,773.7589,485.58444,773.7437,485.582C773.0317,485.4758,772.3259,485.42325,771.6353,485.42325C769.8784,485.42325,768.2196,485.76364,766.80524,486.42575C766.65393,486.4985,766.1777,486.65384,765.75006,486.77414C764.8676,487.02005,764.4447,487.1721,763.88855,487.45895C763.1135,487.85678,762.5785,488.25906,762.0562,488.84C760.631,490.43314,760.1645,492.7701,760.7244,495.54074L760.90356,496.42697L760.69525,496.56302C760.14594,496.92172,759.4769,497.58987,758.51776,498.74417C758.1745,499.15054,757.76556,499.6047,757.61285,499.74716C756.554,500.7037,755.75806,501.93356,755.0328,503.75693C754.8315,504.2546,754.70294,504.69315,754.25525,506.35092L753.7191,508.34897L753.4686,508.2543C753.3308,508.20193,753.21295,508.14615,753.10675,508.07822C752.80597,507.88516,752.5989,507.59286,752.296,506.9921C752.17786,506.7518,752.067,506.5549,752.04266,506.53696L752.041,506.53677L752.0376,506.538C751.98303,506.57462,751.9978,507.23764,752.0633,507.60373C752.1445,508.07748,752.2841,508.51443,752.59467,509.2568C752.7108,509.53848,752.8052,509.7877,752.7982,509.8121C752.78253,509.8693,751.93036,510.51828,751.41516,510.86435C750.4182,511.53073,749.0518,512.37695,748.8117,512.4693C748.67413,512.5239,748.3958,512.6279,748.1952,512.7046C747.65515,512.8995,747.45154,513.01935,747.4103,513.1702C747.3181,513.509,747.6784,514.4228,748.22626,515.24286C748.6867,515.934,748.84375,516.2268,748.8838,516.46564C748.9588,516.8981,748.69836,517.3229,748.02234,517.88837C747.44464,518.3664,747.38873,518.5877,747.727,519.03534C747.94666,519.3231,748.2052,519.80597,748.2473,520.00586C748.27747,520.1369,748.27106,520.14386,748.09,520.2612C747.62177,520.5634,747.4571,520.9261,747.5579,521.4401C747.59937,521.65765,747.6915,521.86694,747.9164,522.2483C748.23334,522.79065,748.3241,523.00415,748.4048,523.39886C748.5296,524.0026,748.39764,524.6638,747.9769,525.5796C747.6659,526.2535,747.5626,526.7775,747.5915,527.4912C747.63043,528.4096,748.0288,529.2152,748.7554,529.8474C748.9148,529.9866,749.0676,530.1053,749.2305,530.2094C749.7115,530.5177,750.28033,530.7031,751.36884,530.9349C751.3985,530.9411,751.4285,530.9476,751.45886,530.95374C751.5463,530.97205,751.637,530.9908,751.7309,531.00977C751.7689,531.01746,751.8075,531.0255,751.84717,531.0337C751.87463,531.03955,751.9023,531.04535,751.93036,531.0515C753.38477,531.3609,755.8111,531.98944,756.43805,532.22327C756.83905,532.37427,757.1904,532.54315,757.4438,532.70557C757.5344,532.7638,757.6127,532.8211,757.67615,532.8766C757.8916,533.0669,758.0386,533.3481,758.1451,533.79364C758.2339,534.1599,759.9744,539.35223,760.1558,539.79614C760.2009,539.90485,760.30396,540.1215,760.3847,540.27515C761.30896,542.0415,761.34534,544.6698,760.4748,547.27893L760.4713,547.2802C760.26514,547.30457,760.0329,547.31824,759.7675,547.325L759.7675,547.3263Q759.2729,547.1081,758.7336,546.8624L758.733,546.8624C758.56067,547.0161,758.3917,547.1567,758.22894,547.28L758.22894,547.2814C757.22687,547.1761,756.4355,546.92804,756.2867,546.6802C756.09143,546.2897,755.2455,546.0295,754.46484,546.0295C753.74896,546.0295,751.9922,545.2486,750.6258,544.2726C748.87445,543.0861,747.76074,542.6845,745.7939,542.6845C745.4956,542.6845,745.17755,542.6938,744.8348,542.711C744.6541,542.7152,744.4799,542.7176,744.3114,542.7176C741.9294,542.7176,740.6462,542.2566,737.54706,540.43353C735.33466,539.06714,731.7561,536.3343,729.6089,534.3172C727.4616,532.30023,723.5577,529.24194,720.95483,527.485C717.6364,525.2727,715.6844,523.38574,714.25287,521.0433C710.8692,515.5776,706.57477,510.30704,700.19806,503.6049C696.87946,500.15634,694.1467,497.09805,694.1467,496.70767C694.1467,496.38242,693.0406,494.82065,691.609,493.2592C689.722,491.04666,689.0062,489.5502,688.48566,486.68716L687.835,482.9783L693.4309,485.84128L699.0268,488.76932L701.62946,486.1666L704.1671,483.56387L697.2049,476.9921C693.3659,473.4133,690.2426,470.02975,690.2425,469.5093C690.2425,468.98868,704.2322,437.75583,721.28015,400.08133L752.3174,331.62952L752.64276,326.2289C752.8375,323.30777,752.9028,320.90463,752.7092,320.89328 Z"/>
</g>
<g style="fill:rgb(11,46,67); fill-opacity:1.0; stroke-linejoin: miter">
<path d="M751.2342,506.93405C751.2347,506.9341,751.23535,506.93436,751.236,506.93503L751.2327,506.93436C751.2332,506.934,751.2337,506.934,751.2342,506.93405 Z"/>
</g>
</g>
<g style="fill:rgb(118,84,66); fill-opacity:1.0; stroke-linejoin: miter">
<path d="M-273.41376,1142.691L381.16962,1142.6915L1035.7529,1142.692Q1035.7529,1236.0325,1035.7529,1329.3729Q381.16962,1329.3734,-273.41376,1329.3739Q-273.41376,1236.0325,-273.41376,1142.691"/>
</g>
</g>
</svg>